G04*
G04 #@! TF.GenerationSoftware,Altium Limited,Altium Designer,25.1.2 (22)*
G04*
G04 Layer_Color=2752767*
%FSLAX25Y25*%
%MOIN*%
G70*
G04*
G04 #@! TF.SameCoordinates,55C7A4E3-F40F-403C-8796-4D9BC59CBE91*
G04*
G04*
G04 #@! TF.FilePolarity,Positive*
G04*
G01*
G75*
%ADD25C,0.00667*%
%ADD26C,0.00500*%
D25*
X65386Y13386D02*
G03*
X65386Y13386I-2000J0D01*
G01*
Y23386D02*
G03*
X65386Y23386I-2000J0D01*
G01*
Y43386D02*
G03*
X65386Y43386I-2000J0D01*
G01*
Y33386D02*
G03*
X65386Y33386I-2000J0D01*
G01*
D26*
X27559Y10598D02*
X28559Y11598D01*
X29559D01*
X28559Y12598D01*
X29559Y13598D01*
X28559D01*
X27559Y14598D01*
X26559Y13598D01*
X25559D01*
X26559Y12598D01*
X25559Y11598D01*
X26559D01*
X27559Y10598D01*
Y44614D02*
X28559Y45614D01*
X29559D01*
X28559Y46614D01*
X29559Y47614D01*
X28559D01*
X27559Y48614D01*
X26559Y47614D01*
X25559D01*
X26559Y46614D01*
X25559Y45614D01*
X26559D01*
X27559Y44614D01*
X12598Y10598D02*
X13598Y11598D01*
X14598D01*
X13598Y12598D01*
X14598Y13598D01*
X13598D01*
X12598Y14598D01*
X11598Y13598D01*
X10598D01*
X11598Y12598D01*
X10598Y11598D01*
X11598D01*
X12598Y10598D01*
Y44614D02*
X13598Y45614D01*
X14598D01*
X13598Y46614D01*
X14598Y47614D01*
X13598D01*
X12598Y48614D01*
X11598Y47614D01*
X10598D01*
X11598Y46614D01*
X10598Y45614D01*
X11598D01*
X12598Y44614D01*
X43701Y7842D02*
X41701Y11842D01*
X45701D01*
X43701Y7842D01*
Y47213D02*
X41701Y51213D01*
X45701D01*
X43701Y47213D01*
M02*
