G04*
G04 #@! TF.GenerationSoftware,Altium Limited,Altium Designer,25.1.2 (22)*
G04*
G04 Layer_Physical_Order=1*
G04 Layer_Color=255*
%FSLAX25Y25*%
%MOIN*%
G70*
G04*
G04 #@! TF.SameCoordinates,55C7A4E3-F40F-403C-8796-4D9BC59CBE91*
G04*
G04*
G04 #@! TF.FilePolarity,Positive*
G04*
G01*
G75*
%ADD10R,0.04724X0.02756*%
%ADD11R,0.04724X0.02992*%
%ADD12R,0.04724X0.03150*%
%ADD20C,0.01000*%
%ADD21R,0.06000X0.06000*%
%ADD22C,0.06000*%
%ADD23O,0.06693X0.05512*%
%ADD24C,0.11811*%
G36*
X70866Y1969D02*
X1969D01*
Y57087D01*
X70866D01*
Y1969D01*
D02*
G37*
%LPC*%
G36*
X63912Y47386D02*
X63886D01*
Y43886D01*
X67386D01*
Y43912D01*
X67113Y44930D01*
X66587Y45842D01*
X65842Y46587D01*
X64930Y47113D01*
X63912Y47386D01*
D02*
G37*
G36*
X62886D02*
X62859D01*
X61842Y47113D01*
X60930Y46587D01*
X60185Y45842D01*
X59658Y44930D01*
X59386Y43912D01*
Y43886D01*
X62886D01*
Y47386D01*
D02*
G37*
G36*
X13189Y50402D02*
X12008D01*
X11027Y50273D01*
X10114Y49895D01*
X9329Y49293D01*
X8727Y48508D01*
X8349Y47595D01*
X8220Y46614D01*
X8349Y45634D01*
X8727Y44720D01*
X9329Y43935D01*
X10114Y43333D01*
X11027Y42955D01*
X12008Y42826D01*
X13189D01*
X14169Y42955D01*
X15083Y43333D01*
X15868Y43935D01*
X16470Y44720D01*
X16848Y45634D01*
X16977Y46614D01*
X16848Y47595D01*
X16470Y48508D01*
X15868Y49293D01*
X15083Y49895D01*
X14169Y50273D01*
X13189Y50402D01*
D02*
G37*
G36*
X44381Y56118D02*
X43021D01*
X41686Y55853D01*
X40430Y55332D01*
X39299Y54576D01*
X38337Y53615D01*
X37581Y52484D01*
X37061Y51227D01*
X36795Y49893D01*
Y48533D01*
X37061Y47198D01*
X37581Y45942D01*
X38337Y44811D01*
X39299Y43849D01*
X40430Y43093D01*
X41686Y42573D01*
X43021Y42307D01*
X44381D01*
X45715Y42573D01*
X46972Y43093D01*
X48103Y43849D01*
X49065Y44811D01*
X49820Y45942D01*
X50341Y47198D01*
X50606Y48533D01*
Y49893D01*
X50341Y51227D01*
X49820Y52484D01*
X49065Y53615D01*
X48103Y54576D01*
X46972Y55332D01*
X45715Y55853D01*
X44381Y56118D01*
D02*
G37*
G36*
X28150Y50402D02*
X26969D01*
X25988Y50273D01*
X25074Y49895D01*
X24290Y49293D01*
X23688Y48508D01*
X23309Y47595D01*
X23180Y46614D01*
X23309Y45634D01*
X23688Y44720D01*
X24290Y43935D01*
X24847Y43508D01*
X24677Y43008D01*
X24197D01*
Y40933D01*
X27559D01*
X30921D01*
Y43008D01*
X30441D01*
X30271Y43508D01*
X30828Y43935D01*
X31430Y44720D01*
X31809Y45634D01*
X31938Y46614D01*
X31809Y47595D01*
X31430Y48508D01*
X30828Y49293D01*
X30044Y49895D01*
X29130Y50273D01*
X28150Y50402D01*
D02*
G37*
G36*
X67386Y42886D02*
X63886D01*
Y39386D01*
X63912D01*
X64930Y39658D01*
X65842Y40185D01*
X66587Y40930D01*
X67113Y41842D01*
X67386Y42859D01*
Y42886D01*
D02*
G37*
G36*
X62886D02*
X59386D01*
Y42859D01*
X59658Y41842D01*
X60185Y40930D01*
X60930Y40185D01*
X61842Y39658D01*
X62859Y39386D01*
X62886D01*
Y42886D01*
D02*
G37*
G36*
X30921Y39933D02*
X27559D01*
X24197D01*
Y37120D01*
X23779D01*
X23194Y37003D01*
X22698Y36672D01*
X20572Y34546D01*
X20241Y34050D01*
X20124Y33465D01*
Y25591D01*
X20241Y25005D01*
X20572Y24509D01*
X22541Y22541D01*
X23037Y22209D01*
X23622Y22093D01*
X24197D01*
Y19279D01*
X27559D01*
X30921D01*
Y22093D01*
X48579D01*
X58367Y12304D01*
X58864Y11973D01*
X59386Y11869D01*
Y9386D01*
X67386D01*
Y17386D01*
X59386D01*
Y16265D01*
X58924Y16074D01*
X50294Y24703D01*
X49798Y25035D01*
X49213Y25151D01*
X30921D01*
Y26108D01*
X54406D01*
X57996Y22518D01*
X58493Y22186D01*
X59078Y22070D01*
X59597D01*
X59658Y21842D01*
X60185Y20930D01*
X60930Y20185D01*
X61842Y19658D01*
X62859Y19386D01*
X63912D01*
X64930Y19658D01*
X65842Y20185D01*
X66587Y20930D01*
X67113Y21842D01*
X67386Y22859D01*
Y23912D01*
X67113Y24930D01*
X66587Y25842D01*
X65842Y26587D01*
X64930Y27113D01*
X63912Y27386D01*
X62859D01*
X61842Y27113D01*
X60930Y26587D01*
X60185Y25842D01*
X60009Y25538D01*
X59385Y25455D01*
X56121Y28719D01*
X55625Y29051D01*
X55039Y29167D01*
X30921D01*
Y30045D01*
X59295D01*
X59880Y30162D01*
X60376Y30493D01*
X60499Y30616D01*
X60930Y30185D01*
X61842Y29658D01*
X62859Y29386D01*
X63912D01*
X64930Y29658D01*
X65842Y30185D01*
X66587Y30930D01*
X67113Y31842D01*
X67386Y32859D01*
Y33912D01*
X67113Y34930D01*
X66587Y35842D01*
X65842Y36587D01*
X64930Y37113D01*
X63912Y37386D01*
X62859D01*
X61842Y37113D01*
X60930Y36587D01*
X60185Y35842D01*
X59658Y34930D01*
X59386Y33912D01*
Y33723D01*
X59068Y33511D01*
X58661Y33104D01*
X30921D01*
Y37858D01*
Y39933D01*
D02*
G37*
G36*
Y18280D02*
X27559D01*
X24197D01*
Y16205D01*
X24677D01*
X24847Y15705D01*
X24290Y15277D01*
X23688Y14493D01*
X23309Y13579D01*
X23180Y12598D01*
X23309Y11618D01*
X23688Y10704D01*
X24290Y9920D01*
X25074Y9318D01*
X25988Y8939D01*
X26969Y8810D01*
X28150D01*
X29130Y8939D01*
X30044Y9318D01*
X30828Y9920D01*
X31430Y10704D01*
X31809Y11618D01*
X31938Y12598D01*
X31809Y13579D01*
X31430Y14493D01*
X30828Y15277D01*
X30271Y15705D01*
X30441Y16205D01*
X30921D01*
Y18280D01*
D02*
G37*
G36*
X13189Y16387D02*
X12008D01*
X11027Y16258D01*
X10114Y15879D01*
X9329Y15277D01*
X8727Y14493D01*
X8349Y13579D01*
X8220Y12598D01*
X8349Y11618D01*
X8727Y10704D01*
X9329Y9920D01*
X10114Y9318D01*
X11027Y8939D01*
X12008Y8810D01*
X13189D01*
X14169Y8939D01*
X15083Y9318D01*
X15868Y9920D01*
X16470Y10704D01*
X16848Y11618D01*
X16977Y12598D01*
X16848Y13579D01*
X16470Y14493D01*
X15868Y15277D01*
X15083Y15879D01*
X14169Y16258D01*
X13189Y16387D01*
D02*
G37*
G36*
X44381Y16748D02*
X43021D01*
X41686Y16483D01*
X40430Y15962D01*
X39299Y15206D01*
X38337Y14244D01*
X37581Y13114D01*
X37061Y11857D01*
X36795Y10523D01*
Y9162D01*
X37061Y7828D01*
X37581Y6572D01*
X38337Y5441D01*
X39299Y4479D01*
X40430Y3723D01*
X41686Y3202D01*
X43021Y2937D01*
X44381D01*
X45715Y3202D01*
X46972Y3723D01*
X48103Y4479D01*
X49065Y5441D01*
X49820Y6572D01*
X50341Y7828D01*
X50606Y9162D01*
Y10523D01*
X50341Y11857D01*
X49820Y13114D01*
X49065Y14244D01*
X48103Y15206D01*
X46972Y15962D01*
X45715Y16483D01*
X44381Y16748D01*
D02*
G37*
%LPD*%
D10*
X27559Y27638D02*
D03*
Y31575D02*
D03*
D11*
Y23622D02*
D03*
Y35591D02*
D03*
D12*
Y18779D02*
D03*
Y40433D02*
D03*
D20*
X23779Y35591D02*
X27559D01*
X21654Y33465D02*
X23779Y35591D01*
X21654Y25591D02*
Y33465D01*
Y25591D02*
X23622Y23622D01*
X27559D01*
X49213D01*
X59449Y13386D01*
X63386D01*
X27559Y27638D02*
X55039D01*
X59078Y23599D02*
X63172D01*
X55039Y27638D02*
X59078Y23599D01*
X63172D02*
X63386Y23386D01*
X60149Y32429D02*
X62429D01*
X29528Y31575D02*
X59295D01*
X62429Y32429D02*
X63386Y33386D01*
X59295Y31575D02*
X60149Y32429D01*
D21*
X63386Y13386D02*
D03*
D22*
Y23386D02*
D03*
Y43386D02*
D03*
Y33386D02*
D03*
D23*
X27559Y12598D02*
D03*
Y46614D02*
D03*
X12598Y12598D02*
D03*
Y46614D02*
D03*
D24*
X43701Y9843D02*
D03*
Y49213D02*
D03*
M02*
