G04*
G04 #@! TF.GenerationSoftware,Altium Limited,Altium Designer,25.1.2 (22)*
G04*
G04 Layer_Color=128*
%FSLAX25Y25*%
%MOIN*%
G70*
G04*
G04 #@! TF.SameCoordinates,19B07A0D-A3DB-41EE-8325-5E09B68B2A2D*
G04*
G04*
G04 #@! TF.FilePolarity,Positive*
G04*
G01*
G75*
%ADD77C,0.00500*%
D77*
X117717Y250984D02*
X121653D01*
X119685Y249016D02*
Y252953D01*
X117717Y177165D02*
X121653D01*
X119685Y175197D02*
Y179134D01*
X253618Y133465D02*
X256618D01*
X255118Y131965D02*
Y134965D01*
X243618Y133465D02*
X246618D01*
X245118Y131965D02*
Y134965D01*
X263618Y133465D02*
X266618D01*
X265118Y131965D02*
Y134965D01*
X223933Y-3150D02*
X226933D01*
X225433Y-4650D02*
Y-1650D01*
X203933Y-3150D02*
X206933D01*
X205433Y-4650D02*
Y-1650D01*
X213933Y-3150D02*
X216933D01*
X215433Y-4650D02*
Y-1650D01*
X273933Y-3150D02*
X276933D01*
X275433Y-4650D02*
Y-1650D01*
X283933Y-3150D02*
X286933D01*
X285433Y-4650D02*
Y-1650D01*
X243933Y-3150D02*
X246933D01*
X245433Y-4650D02*
Y-1650D01*
X233933Y-3150D02*
X236933D01*
X235433Y-4650D02*
Y-1650D01*
X263933Y-3150D02*
X266933D01*
X265433Y-4650D02*
Y-1650D01*
X253933Y-3150D02*
X256933D01*
X255433Y-4650D02*
Y-1650D01*
X260311Y89606D02*
X263311D01*
X261811Y88106D02*
Y91106D01*
X260311Y79606D02*
X263311D01*
X261811Y78106D02*
Y81106D01*
X260311Y99606D02*
X263311D01*
X261811Y98106D02*
Y101106D01*
X260311Y69606D02*
X263311D01*
X261811Y68106D02*
Y71106D01*
X13854Y56299D02*
X16854D01*
X15354Y54799D02*
Y57799D01*
X13854Y46299D02*
X16854D01*
X15354Y44799D02*
Y47799D01*
X315823Y158110D02*
X318823D01*
X317323Y156610D02*
Y159610D01*
X315823Y118110D02*
X318823D01*
X317323Y116610D02*
Y119610D01*
X315823Y148110D02*
X318823D01*
X317323Y146610D02*
Y149610D01*
X315823Y128110D02*
X318823D01*
X317323Y126610D02*
Y129610D01*
X315823Y138110D02*
X318823D01*
X317323Y136610D02*
Y139610D01*
X227319Y11417D02*
X230319D01*
X228819Y9917D02*
Y12917D01*
X237319Y11417D02*
X240319D01*
X238819Y9917D02*
Y12917D01*
X217319Y11417D02*
X220319D01*
X218819Y9917D02*
Y12917D01*
X247319Y11417D02*
X250319D01*
X248819Y9917D02*
Y12917D01*
X309681Y-3150D02*
X312681D01*
X311181Y-4650D02*
Y-1650D01*
X299681Y-3150D02*
X302681D01*
X301181Y-4650D02*
Y-1650D01*
X335272Y-3150D02*
X338272D01*
X336772Y-4650D02*
Y-1650D01*
X355272Y-3150D02*
X358272D01*
X356772Y-4650D02*
Y-1650D01*
X325272Y-3150D02*
X328272D01*
X326772Y-4650D02*
Y-1650D01*
X345272Y-3150D02*
X348272D01*
X346772Y-4650D02*
Y-1650D01*
X350468Y137165D02*
X353468D01*
X351969Y135665D02*
Y138665D01*
X350468Y127165D02*
X353468D01*
X351969Y125665D02*
Y128665D01*
X271335Y187795D02*
X274335D01*
X272835Y186295D02*
Y189295D01*
X281335Y187795D02*
X284335D01*
X282835Y186295D02*
Y189295D01*
X266059Y248425D02*
X269059D01*
X267559Y246925D02*
Y249925D01*
X276059Y248425D02*
X279059D01*
X277559Y246925D02*
Y249925D01*
X71807Y259842D02*
X74807D01*
X73307Y258343D02*
Y261343D01*
X61807Y259842D02*
X64807D01*
X63307Y258343D02*
Y261343D01*
X41807Y259842D02*
X44807D01*
X43307Y258343D02*
Y261343D01*
X51807Y259842D02*
X54807D01*
X53307Y258343D02*
Y261343D01*
X349130Y187402D02*
X352130D01*
X350630Y185902D02*
Y188902D01*
X359130Y187402D02*
X362130D01*
X360630Y185902D02*
Y188902D01*
X230390Y259842D02*
X233390D01*
X231890Y258343D02*
Y261343D01*
X240390Y259842D02*
X243390D01*
X241890Y258343D02*
Y261343D01*
X346532Y259842D02*
X349532D01*
X348031Y258343D02*
Y261343D01*
X346532Y249843D02*
X349532D01*
X348031Y248342D02*
Y251343D01*
X81571Y192913D02*
X84571D01*
X83071Y191413D02*
Y194413D01*
X81571Y182913D02*
X84571D01*
X83071Y181413D02*
Y184413D01*
X81571Y49449D02*
X84571D01*
X83071Y47949D02*
Y50949D01*
X81571Y59449D02*
X84571D01*
X83071Y57949D02*
Y60949D01*
X262303Y223228D02*
X264665D01*
X263484Y222047D02*
Y224410D01*
X263009Y217700D02*
X265371D01*
X264190Y216518D02*
Y218881D01*
X16535Y81299D02*
X18898D01*
X17717Y80118D02*
Y82480D01*
X169390Y174311D02*
X171752D01*
X170571Y173130D02*
Y175492D01*
X166339Y187795D02*
X168701D01*
X167520Y186614D02*
Y188976D01*
X154035Y198031D02*
X156398D01*
X155217Y196850D02*
Y199213D01*
X154134Y187402D02*
X156496D01*
X155315Y186221D02*
Y188583D01*
X166142Y198425D02*
X168504D01*
X167323Y197244D02*
Y199606D01*
X139370Y187992D02*
X141732D01*
X140551Y186811D02*
Y189173D01*
X139370Y198031D02*
X141732D01*
X140551Y196850D02*
Y199213D01*
X210236Y72441D02*
X212598D01*
X211417Y71260D02*
Y73622D01*
X194488Y92126D02*
X196850D01*
X195669Y90945D02*
Y93307D01*
X209449Y106299D02*
X211811D01*
X210630Y105118D02*
Y107480D01*
X190157Y189764D02*
X192520D01*
X191339Y188583D02*
Y190945D01*
X148031Y159055D02*
X150394D01*
X149213Y157874D02*
Y160236D01*
X164961Y159055D02*
X167323D01*
X166142Y157874D02*
Y160236D01*
X88189Y245276D02*
X90551D01*
X89370Y244094D02*
Y246457D01*
X264567Y162992D02*
X266929D01*
X265748Y161811D02*
Y164173D01*
X237795Y162992D02*
X240158D01*
X238976Y161811D02*
Y164173D01*
X28740Y203937D02*
X31102D01*
X29921Y202756D02*
Y205118D01*
X3937D02*
X6299D01*
X5118Y203937D02*
Y206299D01*
X93307Y214173D02*
X95669D01*
X94488Y212992D02*
Y215354D01*
X11417Y103937D02*
X13780D01*
X12598Y102756D02*
Y105118D01*
X81890Y144882D02*
X84252D01*
X83071Y143701D02*
Y146063D01*
X14961Y149213D02*
X17323D01*
X16142Y148031D02*
Y150394D01*
X42126Y129921D02*
X44488D01*
X43307Y128740D02*
Y131102D01*
X29134Y12205D02*
X31496D01*
X30315Y11024D02*
Y13386D01*
X57480Y-1969D02*
X59842D01*
X58661Y-3150D02*
Y-787D01*
X126378Y-14567D02*
X128740D01*
X127559Y-15748D02*
Y-13386D01*
X125591Y10630D02*
X127953D01*
X126772Y9449D02*
Y11811D01*
X194488Y-14567D02*
X196850D01*
X195669Y-15748D02*
Y-13386D01*
X194488Y10630D02*
X196850D01*
X195669Y9449D02*
Y11811D01*
X28346Y37008D02*
X30709D01*
X29528Y35827D02*
Y38189D01*
X3543Y242126D02*
X5906D01*
X4724Y240945D02*
Y243307D01*
X348031Y153543D02*
X350394D01*
X349213Y152362D02*
Y154724D01*
X370866Y153150D02*
X373228D01*
X372047Y151969D02*
Y154331D01*
X351969Y111417D02*
X354331D01*
X353150Y110236D02*
Y112598D01*
X366535Y119291D02*
X368898D01*
X367717Y118110D02*
Y120472D01*
X327953Y146457D02*
X330315D01*
X329134Y145276D02*
Y147638D01*
X317717Y92126D02*
X320079D01*
X318898Y90945D02*
Y93307D01*
X385433Y140551D02*
X387795D01*
X386614Y139370D02*
Y141732D01*
X388583Y191339D02*
X390945D01*
X389764Y190157D02*
Y192520D01*
X367717Y190945D02*
X370079D01*
X368898Y189764D02*
Y192126D01*
X386614Y168898D02*
X388976D01*
X387795Y167717D02*
Y170079D01*
X263779Y155118D02*
X266142D01*
X264961Y153937D02*
Y156299D01*
Y121260D02*
X267323D01*
X266142Y120079D02*
Y122441D01*
X274803Y173228D02*
X277165D01*
X275984Y172047D02*
Y174409D01*
X321260Y172835D02*
X323622D01*
X322441Y171653D02*
Y174016D01*
X29134Y94095D02*
X31496D01*
X30315Y92913D02*
Y95276D01*
X47244Y118110D02*
X49606D01*
X48425Y116929D02*
Y119291D01*
X99606Y118110D02*
X101969D01*
X100787Y116929D02*
Y119291D01*
X75590Y94095D02*
X77953D01*
X76772Y92913D02*
Y95276D01*
X137402Y81496D02*
X139764D01*
X138583Y80315D02*
Y82677D01*
X100787Y60630D02*
X103150D01*
X101969Y59449D02*
Y61811D01*
X107087Y33465D02*
X109449D01*
X108268Y32283D02*
Y34646D01*
X185827Y101181D02*
X188189D01*
X187008Y100000D02*
Y102362D01*
X203150Y118504D02*
X205512D01*
X204331Y117323D02*
Y119685D01*
X135039Y118504D02*
X137402D01*
X136221Y117323D02*
Y119685D01*
X100787Y84252D02*
X103150D01*
X101969Y83071D02*
Y85433D01*
X49606Y33071D02*
X51968D01*
X50787Y31890D02*
Y34252D01*
X36220Y38583D02*
X38583D01*
X37402Y37402D02*
Y39764D01*
X49213Y38583D02*
X51575D01*
X50394Y37402D02*
Y39764D01*
X143307Y20866D02*
X145669D01*
X144488Y19685D02*
Y22047D01*
X159449Y49606D02*
X161811D01*
X160630Y48425D02*
Y50787D01*
X182677Y89370D02*
X185039D01*
X183858Y88189D02*
Y90551D01*
X171653Y70866D02*
X174016D01*
X172835Y69685D02*
Y72047D01*
X162598Y89764D02*
X164961D01*
X163779Y88583D02*
Y90945D01*
X176772Y40157D02*
X179134D01*
X177953Y38976D02*
Y41339D01*
X212598Y40157D02*
X214961D01*
X213779Y38976D02*
Y41339D01*
X203543Y20472D02*
X205906D01*
X204724Y19291D02*
Y21654D01*
X250394Y156693D02*
X252756D01*
X251575Y155512D02*
Y157874D01*
X230709Y146850D02*
X233071D01*
X231890Y145669D02*
Y148031D01*
X120866Y145669D02*
X123228D01*
X122047Y144488D02*
Y146850D01*
X189370Y156693D02*
X191732D01*
X190551Y155512D02*
Y157874D01*
X314961Y211024D02*
X317323D01*
X316142Y209842D02*
Y212205D01*
X337795Y251969D02*
X340158D01*
X338976Y250787D02*
Y253150D01*
X285433Y251969D02*
X287795D01*
X286614Y250787D02*
Y253150D01*
X327165Y183858D02*
X329528D01*
X328346Y182677D02*
Y185039D01*
X291339Y183858D02*
X293701D01*
X292520Y182677D02*
Y185039D01*
X243307Y167717D02*
X245669D01*
X244488Y166535D02*
Y168898D01*
X219685Y196063D02*
X222047D01*
X220866Y194882D02*
Y197244D01*
X262205Y187008D02*
X264567D01*
X263386Y185827D02*
Y188189D01*
X175591Y190945D02*
X177953D01*
X176772Y189764D02*
Y192126D01*
X40157Y161417D02*
X42520D01*
X41339Y160236D02*
Y162598D01*
X26772Y174803D02*
X29134D01*
X27953Y173622D02*
Y175984D01*
X137795Y169291D02*
X140157D01*
X138976Y168110D02*
Y170472D01*
X125591Y169291D02*
X127953D01*
X126772Y168110D02*
Y170472D01*
X100787Y200787D02*
X103150D01*
X101969Y199606D02*
Y201969D01*
X178347Y225197D02*
X180709D01*
X179528Y224016D02*
Y226378D01*
X118898Y129134D02*
X121260D01*
X120079Y127953D02*
Y130315D01*
X118898Y117323D02*
X121260D01*
X120079Y116142D02*
Y118504D01*
X206693Y130709D02*
X209055D01*
X207874Y129528D02*
Y131890D01*
X197638Y219488D02*
X200000D01*
X198819Y218307D02*
Y220669D01*
X232150Y156433D02*
X234512D01*
X233331Y155252D02*
Y157614D01*
X238189Y39370D02*
X240551D01*
X239370Y38189D02*
Y40551D01*
X238189Y55512D02*
X240551D01*
X239370Y54331D02*
Y56693D01*
X231890Y38976D02*
X234252D01*
X233071Y37795D02*
Y40157D01*
X225590Y38976D02*
X227953D01*
X226772Y37795D02*
Y40157D01*
X218898Y39370D02*
X221260D01*
X220079Y38189D02*
Y40551D01*
X353543Y72835D02*
X355906D01*
X354724Y71653D02*
Y74016D01*
X213386Y112205D02*
X215748D01*
X214567Y111024D02*
Y113386D01*
X174016Y207677D02*
X176378D01*
X175197Y206496D02*
Y208858D01*
X154331Y226378D02*
X156693D01*
X155512Y225197D02*
Y227559D01*
X154331Y213583D02*
X156693D01*
X155512Y212402D02*
Y214764D01*
X154331Y240158D02*
X156693D01*
X155512Y238976D02*
Y241339D01*
X122047Y229134D02*
X124409D01*
X123228Y227953D02*
Y230315D01*
X388583Y94488D02*
X390945D01*
X389764Y93307D02*
Y95669D01*
X369291Y39370D02*
X371654D01*
X370472Y38189D02*
Y40551D01*
X388583Y5906D02*
X390945D01*
X389764Y4724D02*
Y7087D01*
X385433Y74557D02*
X387795D01*
X386614Y73376D02*
Y75738D01*
X320472Y39764D02*
X322835D01*
X321654Y38583D02*
Y40945D01*
X339370Y238976D02*
X341732D01*
X340551Y237795D02*
Y240158D01*
X90551Y27559D02*
X92913D01*
X91732Y26378D02*
Y28740D01*
X91732Y4331D02*
X94095D01*
X92913Y3150D02*
Y5512D01*
X88583Y225984D02*
X90945D01*
X89764Y224803D02*
Y227165D01*
X66142Y167717D02*
X68504D01*
X67323Y166535D02*
Y168898D01*
X63779Y197638D02*
X66142D01*
X64961Y196457D02*
Y198819D01*
X322441Y234252D02*
X324803D01*
X323622Y233071D02*
Y235433D01*
X335039Y194882D02*
X337402D01*
X336221Y193701D02*
Y196063D01*
X334252Y207087D02*
X336614D01*
X335433Y205906D02*
Y208268D01*
X100787Y212598D02*
X103150D01*
X101969Y211417D02*
Y213779D01*
X160236Y198425D02*
X162598D01*
X161417Y197244D02*
Y199606D01*
X145866Y198228D02*
X148228D01*
X147047Y197047D02*
Y199409D01*
X160236Y187402D02*
X162598D01*
X161417Y186221D02*
Y188583D01*
X145669Y187992D02*
X148031D01*
X146850Y186811D02*
Y189173D01*
X61417Y53937D02*
X63779D01*
X62598Y52756D02*
Y55118D01*
X69291Y73228D02*
X71653D01*
X70472Y72047D02*
Y74410D01*
X126378Y129134D02*
X128740D01*
X127559Y127953D02*
Y130315D01*
X125984Y117323D02*
X128347D01*
X127165Y116142D02*
Y118504D01*
X24016Y56299D02*
X26378D01*
X25197Y55118D02*
Y57480D01*
X208268Y139370D02*
X210630D01*
X209449Y138189D02*
Y140551D01*
X217323Y142126D02*
X219685D01*
X218504Y140945D02*
Y143307D01*
X231496Y127165D02*
X233858D01*
X232677Y125984D02*
Y128347D01*
X225590Y122441D02*
X227953D01*
X226772Y121260D02*
Y123622D01*
X231890Y55512D02*
X234252D01*
X233071Y54331D02*
Y56693D01*
X225590Y55512D02*
X227953D01*
X226772Y54331D02*
Y56693D01*
X218898Y55512D02*
X221260D01*
X220079Y54331D02*
Y56693D01*
X257480Y18504D02*
X259842D01*
X258661Y17323D02*
Y19685D01*
X274016Y235827D02*
X276378D01*
X275197Y234646D02*
Y237008D01*
X341713Y219539D02*
X343287D01*
X342500Y218752D02*
Y220327D01*
X341713Y216390D02*
X343287D01*
X342500Y215602D02*
Y217177D01*
X341713Y222689D02*
X343287D01*
X342500Y221902D02*
Y223476D01*
X203543Y241339D02*
X205906D01*
X204724Y240158D02*
Y242520D01*
X372047Y-3937D02*
X383858D01*
X377953Y-9843D02*
Y1969D01*
X372047Y259842D02*
X383858D01*
X377953Y253937D02*
Y265748D01*
X9843Y259842D02*
X21654D01*
X15748Y253937D02*
Y265748D01*
X9843Y-3937D02*
X21654D01*
X15748Y-9843D02*
Y1969D01*
M02*
