G04*
G04 #@! TF.GenerationSoftware,Altium Limited,Altium Designer,25.1.2 (22)*
G04*
G04 Layer_Color=16711935*
%FSLAX25Y25*%
%MOIN*%
G70*
G04*
G04 #@! TF.SameCoordinates,19B07A0D-A3DB-41EE-8325-5E09B68B2A2D*
G04*
G04*
G04 #@! TF.FilePolarity,Positive*
G04*
G01*
G75*
%ADD73C,0.00394*%
%ADD74R,0.11024X0.02383*%
%ADD75R,0.02383X0.11024*%
D73*
X172047Y234055D02*
G03*
X172047Y234055I-1969J0D01*
G01*
X156884Y62106D02*
G03*
X156884Y62106I-1969J0D01*
G01*
X174213Y160433D02*
G03*
X174213Y160433I-1969J0D01*
G01*
X148622Y230315D02*
G03*
X148622Y230315I-1969J0D01*
G01*
X347028Y216980D02*
G03*
X347028Y216980I-1969J0D01*
G01*
X99803Y230906D02*
G03*
X99803Y230906I-1969J0D01*
G01*
X49902Y52953D02*
G03*
X49902Y52953I-1969J0D01*
G01*
X42520Y187205D02*
G03*
X42520Y187205I-1969J0D01*
G01*
X48425Y185433D02*
Y193307D01*
X53150Y185433D02*
Y193307D01*
X48425Y185433D02*
X53150D01*
X48425Y193307D02*
X53150D01*
X217323Y211417D02*
Y223228D01*
X211811D02*
X217323D01*
X211811Y211417D02*
X217323D01*
X211811D02*
Y223228D01*
X161024Y237598D02*
X173622D01*
X161024Y225394D02*
Y237598D01*
X173622Y225394D02*
Y237598D01*
X161024Y225394D02*
X173622D01*
X294528Y14173D02*
Y85039D01*
Y14173D02*
X418543Y14173D01*
X294528Y85039D02*
X418543D01*
Y14173D02*
Y85039D01*
X56693Y223425D02*
Y241142D01*
X45669D02*
X56693D01*
X45669Y223425D02*
X56693D01*
X45669D02*
Y241142D01*
X35039Y228346D02*
X39764D01*
X35039Y236221D02*
X39764D01*
X35039Y228346D02*
Y236221D01*
X39764Y228346D02*
Y236221D01*
X341339Y204724D02*
X349213D01*
X341339Y209449D02*
X349213D01*
Y204724D02*
Y209449D01*
X341339Y204724D02*
Y209449D01*
X220866Y148425D02*
Y156299D01*
X216142Y148425D02*
Y156299D01*
X220866D01*
X216142Y148425D02*
X220866D01*
X126772Y44882D02*
X131496D01*
X126772Y37008D02*
X131496D01*
Y44882D01*
X126772Y37008D02*
Y44882D01*
X133282Y69291D02*
X141156D01*
X133282Y64567D02*
X141156D01*
X133282D02*
Y69291D01*
X141156Y64567D02*
Y69291D01*
X133282Y53543D02*
X141156D01*
X133282Y58268D02*
X141156D01*
Y53543D02*
Y58268D01*
X133282Y53543D02*
Y58268D01*
X135433Y44882D02*
X140157D01*
X135433Y37008D02*
X140157D01*
Y44882D01*
X135433Y37008D02*
Y44882D01*
X187008Y70866D02*
X191732D01*
X187008Y62992D02*
X191732D01*
Y70866D01*
X187008Y62992D02*
Y70866D01*
X195276Y68110D02*
X200000D01*
X195276Y60236D02*
X200000D01*
Y68110D01*
X195276Y60236D02*
Y68110D01*
X202756Y68110D02*
X207480D01*
X202756Y60236D02*
X207480D01*
Y68110D01*
X202756Y60236D02*
Y68110D01*
X178577Y70965D02*
X183301D01*
X178577Y63091D02*
X183301D01*
Y70965D01*
X178577Y63091D02*
Y70965D01*
X160236Y69291D02*
Y74016D01*
X152362Y69291D02*
Y74016D01*
Y69291D02*
X160236D01*
X152362Y74016D02*
X160236D01*
X133282Y76378D02*
X141156D01*
X133282Y71654D02*
X141156D01*
X133282D02*
Y76378D01*
X141156Y71654D02*
Y76378D01*
X169089Y39665D02*
Y65650D01*
X151372D02*
X169089D01*
X151372Y39665D02*
Y65650D01*
Y39665D02*
X169089D01*
X282283Y75984D02*
Y80709D01*
X274410Y75984D02*
Y80709D01*
Y75984D02*
X282283D01*
X274410Y80709D02*
X282283D01*
X274410Y70984D02*
X282283D01*
X274410Y66260D02*
X282283D01*
X274410D02*
Y70984D01*
X282283Y66260D02*
Y70984D01*
X282677Y97244D02*
Y101969D01*
X274803Y97244D02*
Y101969D01*
Y97244D02*
X282677D01*
X274803Y101969D02*
X282677D01*
X101969Y18110D02*
Y22835D01*
X94095Y18110D02*
Y22835D01*
Y18110D02*
X101969D01*
X94095Y22835D02*
X101969D01*
X56299Y20079D02*
Y27953D01*
X61024Y20079D02*
Y27953D01*
X56299Y20079D02*
X61024D01*
X56299Y27953D02*
X61024D01*
X67323Y23228D02*
X75197D01*
X67323Y18504D02*
X75197D01*
X67323D02*
Y23228D01*
X75197Y18504D02*
Y23228D01*
X82284Y27953D02*
X87008D01*
X82284Y20079D02*
X87008D01*
Y27953D01*
X82284Y20079D02*
Y27953D01*
X144685Y146260D02*
Y163976D01*
X175787Y146260D02*
Y163976D01*
X144685Y146260D02*
X175787D01*
X144685Y163976D02*
X175787D01*
X286024Y140551D02*
Y151575D01*
X303740Y140551D02*
Y151575D01*
X286024D02*
X303740D01*
X286024Y140551D02*
X303740D01*
X286024Y127165D02*
Y138189D01*
X303740Y127165D02*
Y138189D01*
X286024D02*
X303740D01*
X286024Y127165D02*
X303740D01*
X286024Y113779D02*
Y124803D01*
X303740Y113779D02*
Y124803D01*
X286024D02*
X303740D01*
X286024Y113779D02*
X303740D01*
X286024Y153937D02*
Y164961D01*
X303740Y153937D02*
Y164961D01*
X286024D02*
X303740D01*
X286024Y153937D02*
X303740D01*
X178740Y151181D02*
X183465D01*
X178740Y143307D02*
X183465D01*
Y151181D01*
X178740Y143307D02*
Y151181D01*
X356890Y147047D02*
Y173425D01*
X342323D02*
X356890D01*
X342323Y147047D02*
X356890D01*
X342323D02*
Y173425D01*
X387008Y157874D02*
Y162598D01*
X379134Y157874D02*
Y162598D01*
Y157874D02*
X387008D01*
X379134Y162598D02*
X387008D01*
X359842Y134252D02*
X364567D01*
X359842Y126378D02*
X364567D01*
Y134252D01*
X359842Y126378D02*
Y134252D01*
X368110Y126378D02*
Y134252D01*
X372835Y126378D02*
Y134252D01*
X368110Y126378D02*
X372835D01*
X368110Y134252D02*
X372835D01*
X375197Y100394D02*
X383071D01*
X375197Y105118D02*
X383071D01*
Y100394D02*
Y105118D01*
X375197Y100394D02*
Y105118D01*
Y92126D02*
X383071D01*
X375197Y96850D02*
X383071D01*
Y92126D02*
Y96850D01*
X375197Y92126D02*
Y96850D01*
Y108661D02*
X383071D01*
X375197Y113386D02*
X383071D01*
Y108661D02*
Y113386D01*
X375197Y108661D02*
Y113386D01*
X319685Y214961D02*
X327559D01*
X319685Y219685D02*
X327559D01*
Y214961D02*
Y219685D01*
X319685Y214961D02*
Y219685D01*
X267795Y220327D02*
X279410D01*
X267795Y214028D02*
Y220327D01*
X279410Y214028D02*
Y220327D01*
X267795Y214028D02*
X279410D01*
X266732Y196457D02*
X284449D01*
Y207480D01*
X266732Y196457D02*
Y207480D01*
X284449D01*
X260827Y199409D02*
Y228937D01*
X231299D02*
X260827D01*
X231299Y199409D02*
X260827D01*
X231299D02*
Y228937D01*
X270059Y228988D02*
Y236862D01*
X265335Y228988D02*
Y236862D01*
X270059D01*
X265335Y228988D02*
X270059D01*
X275197Y227165D02*
Y231890D01*
X283071Y227165D02*
Y231890D01*
X275197D02*
X283071D01*
X275197Y227165D02*
X283071D01*
X384823Y204776D02*
Y234303D01*
X355295D02*
X384823D01*
X355295Y204776D02*
X384823D01*
X355295D02*
Y234303D01*
X197835Y265354D02*
X215551D01*
X197835Y254331D02*
Y265354D01*
X215551Y254331D02*
Y265354D01*
X197835Y254331D02*
X215551D01*
X130118Y218110D02*
X150197D01*
Y233858D01*
X130118Y218110D02*
Y233858D01*
X150197D01*
X327559Y223622D02*
Y228346D01*
X319685Y223622D02*
Y228346D01*
Y223622D02*
X327559D01*
X319685Y228346D02*
X327559D01*
X336398Y225642D02*
X348602D01*
X336398Y213437D02*
X348602D01*
X336398D02*
Y225642D01*
X348602Y213437D02*
Y225642D01*
X341339Y230315D02*
Y235039D01*
X349213Y230315D02*
Y235039D01*
X341339D02*
X349213D01*
X341339Y230315D02*
X349213D01*
X341339Y196850D02*
Y201575D01*
X349213Y196850D02*
Y201575D01*
X341339D02*
X349213D01*
X341339Y196850D02*
X349213D01*
X148425Y209449D02*
X156299D01*
X148425Y204724D02*
X156299D01*
X148425D02*
Y209449D01*
X156299Y204724D02*
Y209449D01*
X121260Y214173D02*
Y222047D01*
X125984Y214173D02*
Y222047D01*
X121260Y214173D02*
X125984D01*
X121260Y222047D02*
X125984D01*
X138976Y243307D02*
Y248031D01*
X131102Y243307D02*
Y248031D01*
Y243307D02*
X138976D01*
X131102Y248031D02*
X138976D01*
X62598Y227362D02*
X67323D01*
X62598Y235236D02*
X67323D01*
X62598Y227362D02*
Y235236D01*
X67323Y227362D02*
Y235236D01*
X62598Y183071D02*
Y190945D01*
X67323Y183071D02*
Y190945D01*
X62598Y183071D02*
X67323D01*
X62598Y190945D02*
X67323D01*
X89370Y248031D02*
X97244D01*
X89370Y252756D02*
X97244D01*
Y248031D02*
Y252756D01*
X89370Y248031D02*
Y252756D01*
X106496Y227362D02*
Y239567D01*
X94291D02*
X106496D01*
X94291Y227362D02*
X106496D01*
X94291D02*
Y239567D01*
X31890Y168110D02*
X36614D01*
X31890Y160236D02*
X36614D01*
Y168110D01*
X31890Y160236D02*
Y168110D01*
X35728Y49409D02*
Y88779D01*
Y49409D02*
X51476D01*
X35728Y88779D02*
X51476D01*
Y49409D02*
Y88779D01*
X378740Y166929D02*
Y171654D01*
X370866Y166929D02*
Y171654D01*
Y166929D02*
X378740D01*
X370866Y171654D02*
X378740D01*
X82284Y4331D02*
X87008D01*
X82284Y12205D02*
X87008D01*
X82284Y4331D02*
Y12205D01*
X87008Y4331D02*
Y12205D01*
X22047Y81496D02*
X26772D01*
X22047Y89370D02*
X26772D01*
X22047Y81496D02*
Y89370D01*
X26772Y81496D02*
Y89370D01*
X64173Y93307D02*
Y98032D01*
X56299Y93307D02*
Y98032D01*
Y93307D02*
X64173D01*
X56299Y98032D02*
X64173D01*
X22047Y74410D02*
X26772D01*
X22047Y66535D02*
X26772D01*
Y74410D01*
X22047Y66535D02*
Y74410D01*
X61122Y73130D02*
X65846D01*
X61122Y65256D02*
X65846D01*
Y73130D01*
X61122Y65256D02*
Y73130D01*
X61024Y79921D02*
Y87795D01*
X65748Y79921D02*
Y87795D01*
X61024Y79921D02*
X65748D01*
X61024Y87795D02*
X65748D01*
X61024Y3937D02*
Y11811D01*
X56299Y3937D02*
Y11811D01*
X61024D01*
X56299Y3937D02*
X61024D01*
X67323Y13780D02*
X75197D01*
X67323Y9055D02*
X75197D01*
X67323D02*
Y13780D01*
X75197Y9055D02*
Y13780D01*
X94095Y14173D02*
X101969D01*
X94095Y9449D02*
X101969D01*
X94095D02*
Y14173D01*
X101969Y9449D02*
Y14173D01*
X59449Y176772D02*
X67323D01*
X59449Y172047D02*
X67323D01*
X59449D02*
Y176772D01*
X67323Y172047D02*
Y176772D01*
X181890Y230709D02*
Y238583D01*
X177165Y230709D02*
Y238583D01*
X181890D01*
X177165Y230709D02*
X181890D01*
X98819Y173228D02*
Y181102D01*
X103543Y173228D02*
Y181102D01*
X98819Y173228D02*
X103543D01*
X98819Y181102D02*
X103543D01*
X31496Y190748D02*
X44094D01*
X31496Y178543D02*
Y190748D01*
X44094Y178543D02*
Y190748D01*
X31496Y178543D02*
X44094D01*
X47638Y174803D02*
X52362D01*
X47638Y166929D02*
X52362D01*
Y174803D01*
X47638Y166929D02*
Y174803D01*
X73228Y223945D02*
Y241661D01*
Y223945D02*
X84252D01*
X73228Y241661D02*
X84252D01*
Y223945D02*
Y241661D01*
X190157Y238976D02*
Y243701D01*
X198031Y238976D02*
Y243701D01*
X190157D02*
X198031D01*
X190157Y238976D02*
X198031D01*
Y229528D02*
Y234252D01*
X190157Y229528D02*
Y234252D01*
Y229528D02*
X198031D01*
X190157Y234252D02*
X198031D01*
X184429Y202610D02*
X192697D01*
X184429Y197098D02*
Y202610D01*
X192697Y197098D02*
Y202610D01*
X184429Y197098D02*
X192697D01*
X19094Y223425D02*
Y241142D01*
Y223425D02*
X30118D01*
X19094Y241142D02*
X30118D01*
Y223425D02*
Y241142D01*
X208661Y239370D02*
X220472D01*
X208661Y233858D02*
Y239370D01*
X220472Y233858D02*
Y239370D01*
X208661Y233858D02*
X220472D01*
X218307Y199756D02*
Y204480D01*
X210433Y199756D02*
Y204480D01*
Y199756D02*
X218307D01*
X210433Y204480D02*
X218307D01*
X197244Y212992D02*
X201969D01*
X197244Y205118D02*
X201969D01*
Y212992D01*
X197244Y205118D02*
Y212992D01*
X207087Y148425D02*
X211811D01*
X207087Y156299D02*
X211811D01*
X207087Y148425D02*
Y156299D01*
X211811Y148425D02*
Y156299D01*
D74*
X51184Y239951D02*
D03*
X78743Y240471D02*
D03*
X24610Y239951D02*
D03*
D75*
X302548Y146061D02*
D03*
X302548Y132675D02*
D03*
X302548Y119290D02*
D03*
X302548Y159447D02*
D03*
X267923Y201970D02*
D03*
X199024Y259846D02*
D03*
M02*
