G04*
G04 #@! TF.GenerationSoftware,Altium Limited,Altium Designer,25.1.2 (22)*
G04*
G04 Layer_Color=65535*
%FSLAX25Y25*%
%MOIN*%
G70*
G04*
G04 #@! TF.SameCoordinates,19B07A0D-A3DB-41EE-8325-5E09B68B2A2D*
G04*
G04*
G04 #@! TF.FilePolarity,Positive*
G04*
G01*
G75*
%ADD10C,0.00984*%
%ADD11C,0.02362*%
%ADD12C,0.00787*%
%ADD13C,0.01000*%
D10*
X219783Y210236D02*
G03*
X219783Y210236I-492J0D01*
G01*
X174803Y240354D02*
G03*
X174803Y240354I-492J0D01*
G01*
X389409Y90945D02*
G03*
X389409Y90945I-394J0D01*
G01*
X56988Y243701D02*
G03*
X56988Y243701I-492J0D01*
G01*
X149108Y67224D02*
G03*
X149108Y67224I-492J0D01*
G01*
X177854Y166732D02*
G03*
X177854Y166732I-492J0D01*
G01*
X306791Y140748D02*
G03*
X306791Y140748I-492J0D01*
G01*
Y127362D02*
G03*
X306791Y127362I-492J0D01*
G01*
X306791Y113976D02*
G03*
X306791Y113976I-492J0D01*
G01*
Y154134D02*
G03*
X306791Y154134I-492J0D01*
G01*
X361614Y147244D02*
G03*
X361614Y147244I-492J0D01*
G01*
X267008Y211961D02*
G03*
X267008Y211961I-492J0D01*
G01*
X264665Y207283D02*
G03*
X264665Y207283I-492J0D01*
G01*
X195768Y265158D02*
G03*
X195768Y265158I-492J0D01*
G01*
X151496Y236713D02*
G03*
X151496Y236713I-492J0D01*
G01*
X352244Y213437D02*
G03*
X352244Y213437I-492J0D01*
G01*
X94193Y224705D02*
G03*
X94193Y224705I-492J0D01*
G01*
X54921Y48248D02*
G03*
X54921Y48248I-492J0D01*
G01*
X45276Y193504D02*
G03*
X45276Y193504I-492J0D01*
G01*
X84547Y244220D02*
G03*
X84547Y244220I-492J0D01*
G01*
X183445Y195425D02*
G03*
X183445Y195425I-492J0D01*
G01*
X30413Y243701D02*
G03*
X30413Y243701I-492J0D01*
G01*
X207972Y231890D02*
G03*
X207972Y231890I-492J0D01*
G01*
D11*
X170866Y232087D02*
G03*
X170866Y232087I-1181J0D01*
G01*
X158065Y61713D02*
G03*
X158065Y61713I-1181J0D01*
G01*
X173031Y158465D02*
G03*
X173031Y158465I-1181J0D01*
G01*
X99409Y232874D02*
G03*
X99409Y232874I-1181J0D01*
G01*
X47146Y53346D02*
G03*
X47146Y53346I-1181J0D01*
G01*
X41339Y185236D02*
G03*
X41339Y185236I-1181J0D01*
G01*
D12*
X48524Y188779D02*
Y189961D01*
X53051Y188779D02*
Y189961D01*
X211811Y223228D02*
X215748D01*
X211811Y220079D02*
Y223228D01*
Y211417D02*
X215748D01*
X211811D02*
Y214567D01*
X173622Y226969D02*
Y236024D01*
X161024Y226969D02*
Y236024D01*
X173622D01*
X161024Y226969D02*
X173622D01*
X294134Y13780D02*
X295315D01*
X294134D02*
Y85433D01*
X295315D01*
X56693Y223425D02*
Y241142D01*
X55905D02*
X56693D01*
X55905Y223425D02*
X56693D01*
X45669Y241142D02*
X46457D01*
X45669Y223425D02*
Y241142D01*
Y223425D02*
X46457D01*
X35138Y231693D02*
Y232874D01*
X39665Y231693D02*
Y232874D01*
X344685Y204823D02*
X345866D01*
X344685Y209350D02*
X345866D01*
X220768Y151772D02*
Y152953D01*
X216240Y151772D02*
Y152953D01*
X131398Y40354D02*
Y41535D01*
X126870Y40354D02*
Y41535D01*
X136628Y69193D02*
X137809D01*
X136628Y64665D02*
X137809D01*
X136628Y53642D02*
X137809D01*
X136628Y58169D02*
X137809D01*
X140059Y40354D02*
Y41535D01*
X135531Y40354D02*
Y41535D01*
X191634Y66339D02*
Y67520D01*
X187106Y66339D02*
Y67520D01*
X199902Y63583D02*
Y64764D01*
X195374Y63583D02*
Y64764D01*
X207382Y63583D02*
Y64764D01*
X202854Y63583D02*
Y64764D01*
X183203Y66437D02*
Y67618D01*
X178675Y66437D02*
Y67618D01*
X155709Y69390D02*
X156890D01*
X155709Y73917D02*
X156890D01*
X136628Y76280D02*
X137809D01*
X136628Y71752D02*
X137809D01*
X152947Y65650D02*
X167514D01*
Y39665D02*
Y65650D01*
X152947Y39665D02*
X167514D01*
X152947D02*
Y65650D01*
X277756Y76083D02*
X278937D01*
X277756Y80610D02*
X278937D01*
X277756Y70886D02*
X278937D01*
X277756Y66358D02*
X278937D01*
X278150Y97342D02*
X279331D01*
X278150Y101870D02*
X279331D01*
X97441Y18209D02*
X98622D01*
X97441Y22736D02*
X98622D01*
X56398Y23425D02*
Y24606D01*
X60925Y23425D02*
Y24606D01*
X70669Y23130D02*
X71850D01*
X70669Y18602D02*
X71850D01*
X86910Y23425D02*
Y24606D01*
X82382Y23425D02*
Y24606D01*
X144685Y147835D02*
Y162402D01*
X175787Y147835D02*
Y162402D01*
X144685Y147835D02*
X175787D01*
X144685Y162402D02*
X175787D01*
X303740Y150787D02*
Y151575D01*
Y140551D02*
Y141339D01*
X286024Y151575D02*
X303740D01*
X286024Y150787D02*
Y151575D01*
Y140551D02*
X303740D01*
X286024D02*
Y141339D01*
X303740Y137402D02*
Y138189D01*
Y127165D02*
Y127953D01*
X286024Y138189D02*
X303740D01*
X286024Y137402D02*
Y138189D01*
Y127165D02*
X303740D01*
X286024D02*
Y127953D01*
X303740Y124016D02*
Y124803D01*
Y113779D02*
Y114567D01*
X286024Y124803D02*
X303740D01*
X286024Y124016D02*
Y124803D01*
Y113779D02*
X303740D01*
X286024D02*
Y114567D01*
X303740Y164173D02*
Y164961D01*
Y153937D02*
Y154724D01*
X286024Y164961D02*
X303740D01*
X286024Y164173D02*
Y164961D01*
Y153937D02*
X303740D01*
X286024D02*
Y154724D01*
X183366Y146653D02*
Y147835D01*
X178839Y146653D02*
Y147835D01*
X343504Y173425D02*
X355709D01*
Y147047D02*
Y173425D01*
X343504Y147047D02*
Y173425D01*
Y147047D02*
X355709D01*
X382480Y157973D02*
X383661D01*
X382480Y162500D02*
X383661D01*
X364469Y129724D02*
Y130905D01*
X359941Y129724D02*
Y130905D01*
X368209Y129724D02*
Y130905D01*
X372736Y129724D02*
Y130905D01*
X378543Y100492D02*
X379724D01*
X378543Y105020D02*
X379724D01*
X378543Y92224D02*
X379724D01*
X378543Y96752D02*
X379724D01*
X378543Y108760D02*
X379724D01*
X378543Y113287D02*
X379724D01*
X323031Y215059D02*
X324213D01*
X323031Y219587D02*
X324213D01*
X267697Y215602D02*
Y218752D01*
X279508D01*
X267697Y215602D02*
X279508D01*
Y218752D01*
X284449Y196457D02*
Y197244D01*
X266732Y196457D02*
X284449D01*
X266732D02*
Y197244D01*
X284449Y206693D02*
Y207480D01*
X266732Y206693D02*
Y207480D01*
X284449D01*
X260827Y199409D02*
Y228937D01*
X253150D02*
X260827D01*
X253150Y199409D02*
X260827D01*
X231299Y228937D02*
X238976D01*
X231299Y199409D02*
Y228937D01*
Y199409D02*
X238976D01*
X269961Y232335D02*
Y233516D01*
X265433Y232335D02*
Y233516D01*
X278543Y231791D02*
X279724D01*
X278543Y227264D02*
X279724D01*
X384823Y204776D02*
Y234303D01*
X377146D02*
X384823D01*
X377146Y204776D02*
X384823D01*
X355295Y234303D02*
X362972D01*
X355295Y204776D02*
Y234303D01*
Y204776D02*
X362972D01*
X197835Y265354D02*
X215551D01*
X197835Y264567D02*
Y265354D01*
X215551Y264567D02*
Y265354D01*
X197835Y254331D02*
Y255118D01*
Y254331D02*
X215551D01*
Y255118D01*
X150197Y219685D02*
Y232283D01*
X130118Y219685D02*
Y232283D01*
X323031Y223721D02*
X324213D01*
X323031Y228248D02*
X324213D01*
X343563Y226232D02*
X349193D01*
Y225524D02*
Y226232D01*
X335807D02*
X341437D01*
X335807Y225524D02*
Y226232D01*
Y212846D02*
Y213555D01*
Y212846D02*
X341437D01*
X343563D02*
X349193D01*
Y213555D01*
X344685Y234941D02*
X345866D01*
X344685Y230413D02*
X345866D01*
X344685Y201476D02*
X345866D01*
X344685Y196949D02*
X345866D01*
X151772Y209350D02*
X152953D01*
X151772Y204823D02*
X152953D01*
X121358Y217520D02*
Y218701D01*
X125886Y217520D02*
Y218701D01*
X134449Y243406D02*
X135630D01*
X134449Y247933D02*
X135630D01*
X62697Y230709D02*
Y231890D01*
X67224Y230709D02*
Y231890D01*
X62697Y186417D02*
Y187598D01*
X67224Y186417D02*
Y187598D01*
X92716Y248130D02*
X93898D01*
X92716Y252658D02*
X93898D01*
X106496Y228937D02*
Y237992D01*
X94291Y228937D02*
X106496D01*
X94291Y237992D02*
X106496D01*
X94291Y228937D02*
Y237992D01*
X36516Y163583D02*
Y164764D01*
X31988Y163583D02*
Y164764D01*
X37303Y49409D02*
X49902D01*
X37303D02*
Y88779D01*
X49902D01*
Y49409D02*
Y88779D01*
X374213Y167028D02*
X375394D01*
X374213Y171555D02*
X375394D01*
X82382Y7677D02*
Y8858D01*
X86910Y7677D02*
Y8858D01*
X22146Y84842D02*
Y86024D01*
X26673Y84842D02*
Y86024D01*
X59646Y93405D02*
X60827D01*
X59646Y97933D02*
X60827D01*
X26673Y69882D02*
Y71063D01*
X22146Y69882D02*
Y71063D01*
X65748Y68602D02*
Y69784D01*
X61220Y68602D02*
Y69784D01*
X61122Y83268D02*
Y84449D01*
X65650Y83268D02*
Y84449D01*
X60925Y7283D02*
Y8465D01*
X56398Y7283D02*
Y8465D01*
X70669Y13681D02*
X71850D01*
X70669Y9154D02*
X71850D01*
X97441Y14075D02*
X98622D01*
X97441Y9547D02*
X98622D01*
X62795Y176673D02*
X63976D01*
X62795Y172146D02*
X63976D01*
X181791Y234055D02*
Y235236D01*
X177264Y234055D02*
Y235236D01*
X98917Y176575D02*
Y177756D01*
X103445Y176575D02*
Y177756D01*
X44094Y180118D02*
Y189173D01*
X31496Y180118D02*
Y189173D01*
X44094D01*
X31496Y180118D02*
X44094D01*
X52264Y170276D02*
Y171457D01*
X47736Y170276D02*
Y171457D01*
X73228Y223945D02*
X74016D01*
X73228D02*
Y241661D01*
X74016D01*
X83465Y223945D02*
X84252D01*
X83465Y241661D02*
X84252D01*
Y223945D02*
Y241661D01*
X193504Y243602D02*
X194685D01*
X193504Y239075D02*
X194685D01*
X193504Y229626D02*
X194685D01*
X193504Y234154D02*
X194685D01*
X184429Y198673D02*
Y201035D01*
X192697D01*
X184429Y198673D02*
X192697D01*
Y201035D01*
X19094Y223425D02*
X19882D01*
X19094D02*
Y241142D01*
X19882D01*
X29331Y223425D02*
X30118D01*
X29331Y241142D02*
X30118D01*
Y223425D02*
Y241142D01*
X208661Y239370D02*
X211811D01*
X208661Y235433D02*
Y239370D01*
X217323D02*
X220472D01*
Y235433D02*
Y239370D01*
X213779Y199854D02*
X214961D01*
X213779Y204382D02*
X214961D01*
X201870Y208465D02*
Y209646D01*
X197343Y208465D02*
Y209646D01*
X207185Y151772D02*
Y152953D01*
X211713Y151772D02*
Y152953D01*
D13*
X243913Y249275D02*
X247912D01*
X245913Y251274D02*
Y247275D01*
X253910Y252274D02*
X249911D01*
Y249275D01*
X251911Y250274D01*
X252910D01*
X253910Y249275D01*
Y247275D01*
X252910Y246276D01*
X250911D01*
X249911Y247275D01*
X255909Y252274D02*
Y248275D01*
X257909Y246276D01*
X259908Y248275D01*
Y252274D01*
X46046Y198576D02*
Y204574D01*
X49045D01*
X50045Y203574D01*
Y201575D01*
X49045Y200575D01*
X46046D01*
X48045D02*
X50045Y198576D01*
X52044D02*
X54043D01*
X53044D01*
Y204574D01*
X52044Y203574D01*
X61041Y204574D02*
X59042Y203574D01*
X57042Y201575D01*
Y199575D01*
X58042Y198576D01*
X60041D01*
X61041Y199575D01*
Y200575D01*
X60041Y201575D01*
X57042D01*
X307299Y249275D02*
X311298D01*
X309299Y251274D02*
Y247275D01*
X313297Y251274D02*
X314297Y252274D01*
X316296D01*
X317296Y251274D01*
Y250274D01*
X316296Y249275D01*
X315297D01*
X316296D01*
X317296Y248275D01*
Y247275D01*
X316296Y246276D01*
X314297D01*
X313297Y247275D01*
X319295Y246276D02*
Y247275D01*
X320295D01*
Y246276D01*
X319295D01*
X324294Y251274D02*
X325293Y252274D01*
X327293D01*
X328292Y251274D01*
Y250274D01*
X327293Y249275D01*
X326293D01*
X327293D01*
X328292Y248275D01*
Y247275D01*
X327293Y246276D01*
X325293D01*
X324294Y247275D01*
X330292Y252274D02*
Y248275D01*
X332291Y246276D01*
X334291Y248275D01*
Y252274D01*
X113205Y258087D02*
Y264085D01*
X116204D01*
X117203Y263085D01*
Y261086D01*
X116204Y260086D01*
X113205D01*
X115204D02*
X117203Y258087D01*
X119203D02*
X121202D01*
X120203D01*
Y264085D01*
X119203Y263085D01*
X124201D02*
X125201Y264085D01*
X127200D01*
X128200Y263085D01*
Y259086D01*
X127200Y258087D01*
X125201D01*
X124201Y259086D01*
Y263085D01*
X50668Y252061D02*
X49668Y253061D01*
X47669D01*
X46669Y252061D01*
Y248063D01*
X47669Y247063D01*
X49668D01*
X50668Y248063D01*
X56666Y252061D02*
X55666Y253061D01*
X53667D01*
X52667Y252061D01*
Y248063D01*
X53667Y247063D01*
X55666D01*
X56666Y248063D01*
X58665Y247063D02*
X60665D01*
X59665D01*
Y253061D01*
X58665Y252061D01*
X59723Y271746D02*
X58723Y272746D01*
X56724D01*
X55724Y271746D01*
Y267748D01*
X56724Y266748D01*
X58723D01*
X59723Y267748D01*
X65721Y271746D02*
X64722Y272746D01*
X62722D01*
X61722Y271746D01*
Y267748D01*
X62722Y266748D01*
X64722D01*
X65721Y267748D01*
X71719Y266748D02*
X67721D01*
X71719Y270747D01*
Y271746D01*
X70720Y272746D01*
X68720D01*
X67721Y271746D01*
X29284Y259237D02*
Y257237D01*
Y258237D01*
X34283D01*
X35282Y257237D01*
Y256238D01*
X34283Y255238D01*
X29284Y265235D02*
X30284Y263235D01*
X32283Y261236D01*
X34283D01*
X35282Y262236D01*
Y264235D01*
X34283Y265235D01*
X33283D01*
X32283Y264235D01*
Y261236D01*
X294139Y193944D02*
X292140D01*
X293139D01*
Y188945D01*
X292140Y187946D01*
X291140D01*
X290140Y188945D01*
X296138Y187946D02*
X298138D01*
X297138D01*
Y193944D01*
X296138Y192944D01*
X301137D02*
X302136Y193944D01*
X304136D01*
X305135Y192944D01*
Y188945D01*
X304136Y187946D01*
X302136D01*
X301137Y188945D01*
Y192944D01*
X289551Y248275D02*
X287552D01*
X288552D01*
Y243276D01*
X287552Y242277D01*
X286553D01*
X285553Y243276D01*
X291551D02*
X292550Y242277D01*
X294550D01*
X295550Y243276D01*
Y247275D01*
X294550Y248275D01*
X292550D01*
X291551Y247275D01*
Y246275D01*
X292550Y245276D01*
X295550D01*
X347480Y274291D02*
X345481D01*
X346480D01*
Y269292D01*
X345481Y268292D01*
X344481D01*
X343481Y269292D01*
X349480Y274291D02*
X353478D01*
Y273291D01*
X349480Y269292D01*
Y268292D01*
X231284Y273078D02*
X229284D01*
X230284D01*
Y268079D01*
X229284Y267080D01*
X228285D01*
X227285Y268079D01*
X236282Y267080D02*
Y273078D01*
X233283Y270079D01*
X237282D01*
X121229Y198863D02*
X120229Y197864D01*
Y195864D01*
X121229Y194865D01*
X125228D01*
X126227Y195864D01*
Y197864D01*
X125228Y198863D01*
X126227Y200863D02*
Y202862D01*
Y201862D01*
X120229D01*
X121229Y200863D01*
X126227Y208860D02*
X120229D01*
X123228Y205861D01*
Y209860D01*
X364355Y104755D02*
X363355Y105755D01*
X361356D01*
X360356Y104755D01*
Y100757D01*
X361356Y99757D01*
X363355D01*
X364355Y100757D01*
X366354D02*
X367354Y99757D01*
X369353D01*
X370353Y100757D01*
Y104755D01*
X369353Y105755D01*
X367354D01*
X366354Y104755D01*
Y103756D01*
X367354Y102756D01*
X370353D01*
X126754Y164416D02*
Y159418D01*
X127754Y158418D01*
X129753D01*
X130753Y159418D01*
Y164416D01*
X132753Y158418D02*
X134752D01*
X133752D01*
Y164416D01*
X132753Y163417D01*
X141750Y158418D02*
X137751D01*
X141750Y162417D01*
Y163417D01*
X140750Y164416D01*
X138751D01*
X137751Y163417D01*
X221503Y161400D02*
X215505D01*
Y164399D01*
X216505Y165399D01*
X218504D01*
X219504Y164399D01*
Y161400D01*
Y163399D02*
X221503Y165399D01*
Y167398D02*
Y169397D01*
Y168398D01*
X215505D01*
X216505Y167398D01*
X215505Y176395D02*
Y172397D01*
X218504D01*
X217504Y174396D01*
Y175396D01*
X218504Y176395D01*
X220503D01*
X221503Y175396D01*
Y173396D01*
X220503Y172397D01*
X212448Y161006D02*
X206450D01*
Y164005D01*
X207450Y165005D01*
X209449D01*
X210449Y164005D01*
Y161006D01*
Y163006D02*
X212448Y165005D01*
Y167004D02*
Y169004D01*
Y168004D01*
X206450D01*
X207450Y167004D01*
X212448Y175002D02*
X206450D01*
X209449Y172003D01*
Y176002D01*
X101575Y192369D02*
X97576D01*
Y189370D01*
X99576D01*
X97576D01*
Y186371D01*
X103574D02*
X105573D01*
X104574D01*
Y192369D01*
X103574Y191369D01*
X331647Y229647D02*
X336645D01*
X337645Y230647D01*
Y232646D01*
X336645Y233646D01*
X331647D01*
X337645Y239644D02*
Y235645D01*
X333646Y239644D01*
X332646D01*
X331647Y238644D01*
Y236645D01*
X332646Y235645D01*
X337583Y190401D02*
X335584D01*
X336583D01*
Y185402D01*
X335584Y184403D01*
X334584D01*
X333584Y185402D01*
X339582Y189401D02*
X340582Y190401D01*
X342581D01*
X343581Y189401D01*
Y188401D01*
X342581Y187402D01*
X343581Y186402D01*
Y185402D01*
X342581Y184403D01*
X340582D01*
X339582Y185402D01*
Y186402D01*
X340582Y187402D01*
X339582Y188401D01*
Y189401D01*
X340582Y187402D02*
X342581D01*
X295002Y96700D02*
Y91701D01*
X296001Y90702D01*
X298001D01*
X299000Y91701D01*
Y96700D01*
X304998D02*
X301000D01*
Y93701D01*
X302999Y94700D01*
X303999D01*
X304998Y93701D01*
Y91701D01*
X303999Y90702D01*
X301999D01*
X301000Y91701D01*
X116261Y241975D02*
Y236977D01*
X117261Y235977D01*
X119261D01*
X120260Y236977D01*
Y241975D01*
X126258D02*
X124259Y240976D01*
X122259Y238976D01*
Y236977D01*
X123259Y235977D01*
X125259D01*
X126258Y236977D01*
Y237977D01*
X125259Y238976D01*
X122259D01*
X181071Y158993D02*
X180072Y157994D01*
Y155994D01*
X181071Y154995D01*
X185070D01*
X186070Y155994D01*
Y157994D01*
X185070Y158993D01*
X181071Y160993D02*
X180072Y161993D01*
Y163992D01*
X181071Y164991D01*
X182071D01*
X183071Y163992D01*
Y162992D01*
Y163992D01*
X184071Y164991D01*
X185070D01*
X186070Y163992D01*
Y161993D01*
X185070Y160993D01*
X181071Y166991D02*
X180072Y167991D01*
Y169990D01*
X181071Y170990D01*
X182071D01*
X183071Y169990D01*
X184071Y170990D01*
X185070D01*
X186070Y169990D01*
Y167991D01*
X185070Y166991D01*
X184071D01*
X183071Y167991D01*
X182071Y166991D01*
X181071D01*
X183071Y167991D02*
Y169990D01*
X102482Y253393D02*
Y248394D01*
X103482Y247395D01*
X105481D01*
X106481Y248394D01*
Y253393D01*
X108480Y252393D02*
X109480Y253393D01*
X111479D01*
X112479Y252393D01*
Y251393D01*
X111479Y250394D01*
X112479Y249394D01*
Y248394D01*
X111479Y247395D01*
X109480D01*
X108480Y248394D01*
Y249394D01*
X109480Y250394D01*
X108480Y251393D01*
Y252393D01*
X109480Y250394D02*
X111479D01*
X312568Y169230D02*
X311568Y168230D01*
Y166231D01*
X312568Y165231D01*
X313567D01*
X314567Y166231D01*
Y168230D01*
X315567Y169230D01*
X316566D01*
X317566Y168230D01*
Y166231D01*
X316566Y165231D01*
X311568Y171229D02*
X317566D01*
X315567Y173228D01*
X317566Y175228D01*
X311568D01*
X312568Y177227D02*
X311568Y178227D01*
Y180226D01*
X312568Y181226D01*
X313567D01*
X314567Y180226D01*
Y179226D01*
Y180226D01*
X315567Y181226D01*
X316566D01*
X317566Y180226D01*
Y178227D01*
X316566Y177227D01*
X204709Y-9796D02*
X202710D01*
X203709D01*
Y-14795D01*
X202710Y-15794D01*
X201710D01*
X200710Y-14795D01*
X210707Y-15794D02*
X206708D01*
X210707Y-11796D01*
Y-10796D01*
X209707Y-9796D01*
X207708D01*
X206708Y-10796D01*
X339733Y129860D02*
X338733Y128860D01*
Y126860D01*
X339733Y125861D01*
X340733D01*
X341732Y126860D01*
Y128860D01*
X342732Y129860D01*
X343732D01*
X344731Y128860D01*
Y126860D01*
X343732Y125861D01*
X338733Y131859D02*
X344731D01*
X342732Y133858D01*
X344731Y135858D01*
X338733D01*
X344731Y141856D02*
Y137857D01*
X340733Y141856D01*
X339733D01*
X338733Y140856D01*
Y138857D01*
X339733Y137857D01*
X300151Y-10796D02*
X299151Y-9796D01*
X297152D01*
X296152Y-10796D01*
Y-11796D01*
X297152Y-12795D01*
X299151D01*
X300151Y-13795D01*
Y-14795D01*
X299151Y-15794D01*
X297152D01*
X296152Y-14795D01*
X302150Y-9796D02*
Y-15794D01*
X304149Y-13795D01*
X306149Y-15794D01*
Y-9796D01*
X308148Y-15794D02*
X310147D01*
X309148D01*
Y-9796D01*
X308148Y-10796D01*
X34841Y97881D02*
Y92883D01*
X35840Y91883D01*
X37840D01*
X38839Y92883D01*
Y97881D01*
X40839Y91883D02*
X42838D01*
X41838D01*
Y97881D01*
X40839Y96881D01*
X45837Y91883D02*
X47837D01*
X46837D01*
Y97881D01*
X45837Y96881D01*
X152739Y37251D02*
Y32253D01*
X153738Y31253D01*
X155738D01*
X156737Y32253D01*
Y37251D01*
X158737Y31253D02*
X160736D01*
X159736D01*
Y37251D01*
X158737Y36251D01*
X163735D02*
X164735Y37251D01*
X166734D01*
X167734Y36251D01*
Y32253D01*
X166734Y31253D01*
X164735D01*
X163735Y32253D01*
Y36251D01*
X19203Y190172D02*
Y185174D01*
X20203Y184174D01*
X22202D01*
X23202Y185174D01*
Y190172D01*
X25201Y185174D02*
X26201Y184174D01*
X28200D01*
X29200Y185174D01*
Y189173D01*
X28200Y190172D01*
X26201D01*
X25201Y189173D01*
Y188173D01*
X26201Y187173D01*
X29200D01*
X158387Y253393D02*
Y248394D01*
X159387Y247395D01*
X161387D01*
X162386Y248394D01*
Y253393D01*
X164385D02*
X168384D01*
Y252393D01*
X164385Y248394D01*
Y247395D01*
X282384Y220176D02*
Y215178D01*
X283383Y214178D01*
X285383D01*
X286382Y215178D01*
Y220176D01*
X291381Y214178D02*
Y220176D01*
X288382Y217177D01*
X292380D01*
X183584Y214810D02*
Y209812D01*
X184584Y208812D01*
X186583D01*
X187583Y209812D01*
Y214810D01*
X189582Y213810D02*
X190582Y214810D01*
X192581D01*
X193581Y213810D01*
Y212811D01*
X192581Y211811D01*
X191582D01*
X192581D01*
X193581Y210811D01*
Y209812D01*
X192581Y208812D01*
X190582D01*
X189582Y209812D01*
X333797Y182133D02*
Y177135D01*
X334796Y176135D01*
X336796D01*
X337795Y177135D01*
Y182133D01*
X339795Y176135D02*
X341794D01*
X340794D01*
Y182133D01*
X339795Y181133D01*
X7963Y38220D02*
X6963Y39219D01*
X4964D01*
X3964Y38220D01*
Y37220D01*
X4964Y36220D01*
X6963D01*
X7963Y35221D01*
Y34221D01*
X6963Y33221D01*
X4964D01*
X3964Y34221D01*
X9962Y33221D02*
Y39219D01*
X12961D01*
X13961Y38220D01*
Y36220D01*
X12961Y35221D01*
X9962D01*
X15960Y39219D02*
Y33221D01*
Y35221D01*
X19959Y39219D01*
X16960Y36220D01*
X19959Y33221D01*
X25957D02*
X21958D01*
X25957Y37220D01*
Y38220D01*
X24957Y39219D01*
X22958D01*
X21958Y38220D01*
X92095Y49120D02*
X91096Y48120D01*
Y46121D01*
X92095Y45121D01*
X93095D01*
X94095Y46121D01*
Y48120D01*
X95094Y49120D01*
X96094D01*
X97093Y48120D01*
Y46121D01*
X96094Y45121D01*
X97093Y51119D02*
X91096D01*
Y54118D01*
X92095Y55118D01*
X94095D01*
X95094Y54118D01*
Y51119D01*
X91096Y57117D02*
X97093D01*
X95094D01*
X91096Y61116D01*
X94095Y58117D01*
X97093Y61116D01*
Y63116D02*
Y65115D01*
Y64115D01*
X91096D01*
X92095Y63116D01*
X38052Y23379D02*
Y29377D01*
X41051D01*
X42050Y28377D01*
Y26378D01*
X41051Y25378D01*
X38052D01*
X40051D02*
X42050Y23379D01*
X48048D02*
X44050D01*
X48048Y27378D01*
Y28377D01*
X47049Y29377D01*
X45049D01*
X44050Y28377D01*
X54046Y23379D02*
X50048D01*
X54046Y27378D01*
Y28377D01*
X53047Y29377D01*
X51047D01*
X50048Y28377D01*
X106782Y17473D02*
Y23471D01*
X109781D01*
X110781Y22472D01*
Y20472D01*
X109781Y19473D01*
X106782D01*
X108781D02*
X110781Y17473D01*
X116779D02*
X112780D01*
X116779Y21472D01*
Y22472D01*
X115779Y23471D01*
X113779D01*
X112780Y22472D01*
X118778Y17473D02*
X120777D01*
X119778D01*
Y23471D01*
X118778Y22472D01*
X37875Y3005D02*
Y9003D01*
X40874D01*
X41873Y8003D01*
Y6004D01*
X40874Y5004D01*
X37875D01*
X39874D02*
X41873Y3005D01*
X47871D02*
X43873D01*
X47871Y7004D01*
Y8003D01*
X46872Y9003D01*
X44872D01*
X43873Y8003D01*
X49871D02*
X50870Y9003D01*
X52870D01*
X53869Y8003D01*
Y4005D01*
X52870Y3005D01*
X50870D01*
X49871Y4005D01*
Y8003D01*
X106676Y8025D02*
Y14023D01*
X109675D01*
X110674Y13023D01*
Y11024D01*
X109675Y10024D01*
X106676D01*
X108675D02*
X110674Y8025D01*
X112674D02*
X114673D01*
X113673D01*
Y14023D01*
X112674Y13023D01*
X117672Y9024D02*
X118672Y8025D01*
X120671D01*
X121671Y9024D01*
Y13023D01*
X120671Y14023D01*
X118672D01*
X117672Y13023D01*
Y12023D01*
X118672Y11024D01*
X121671D01*
X76227Y185416D02*
X70229D01*
Y188415D01*
X71229Y189415D01*
X73228D01*
X74228Y188415D01*
Y185416D01*
Y187415D02*
X76227Y189415D01*
Y191414D02*
Y193413D01*
Y192414D01*
X70229D01*
X71229Y191414D01*
Y196412D02*
X70229Y197412D01*
Y199411D01*
X71229Y200411D01*
X72229D01*
X73228Y199411D01*
X74228Y200411D01*
X75228D01*
X76227Y199411D01*
Y197412D01*
X75228Y196412D01*
X74228D01*
X73228Y197412D01*
X72229Y196412D01*
X71229D01*
X73228Y197412D02*
Y199411D01*
X48014Y156843D02*
Y162842D01*
X51013D01*
X52013Y161842D01*
Y159843D01*
X51013Y158843D01*
X48014D01*
X50014D02*
X52013Y156843D01*
X54012D02*
X56012D01*
X55012D01*
Y162842D01*
X54012Y161842D01*
X59011Y162842D02*
X63009D01*
Y161842D01*
X59011Y157843D01*
Y156843D01*
X161400Y203694D02*
Y209692D01*
X164399D01*
X165399Y208692D01*
Y206693D01*
X164399Y205693D01*
X161400D01*
X163399D02*
X165399Y203694D01*
X167398D02*
X169397D01*
X168398D01*
Y209692D01*
X167398Y208692D01*
X172397D02*
X173396Y209692D01*
X175396D01*
X176395Y208692D01*
Y207693D01*
X175396Y206693D01*
X174396D01*
X175396D01*
X176395Y205693D01*
Y204694D01*
X175396Y203694D01*
X173396D01*
X172397Y204694D01*
X34403Y223639D02*
X40401D01*
Y220640D01*
X39401Y219641D01*
X37402D01*
X36402Y220640D01*
Y223639D01*
Y221640D02*
X34403Y219641D01*
Y217641D02*
Y215642D01*
Y216642D01*
X40401D01*
X39401Y217641D01*
X34403Y208644D02*
Y212643D01*
X38401Y208644D01*
X39401D01*
X40401Y209644D01*
Y211643D01*
X39401Y212643D01*
X62355Y222640D02*
X68353D01*
Y219641D01*
X67354Y218641D01*
X65354D01*
X64355Y219641D01*
Y222640D01*
Y220640D02*
X62355Y218641D01*
Y216642D02*
Y214642D01*
Y215642D01*
X68353D01*
X67354Y216642D01*
X62355Y211643D02*
Y209644D01*
Y210644D01*
X68353D01*
X67354Y211643D01*
X273734Y104765D02*
Y110763D01*
X276733D01*
X277732Y109763D01*
Y107764D01*
X276733Y106764D01*
X273734D01*
X275733D02*
X277732Y104765D01*
X279732Y105765D02*
X280732Y104765D01*
X282731D01*
X283731Y105765D01*
Y109763D01*
X282731Y110763D01*
X280732D01*
X279732Y109763D01*
Y108764D01*
X280732Y107764D01*
X283731D01*
X273340Y83466D02*
Y89464D01*
X276339D01*
X277339Y88464D01*
Y86465D01*
X276339Y85465D01*
X273340D01*
X275339D02*
X277339Y83466D01*
X279338Y88464D02*
X280338Y89464D01*
X282337D01*
X283337Y88464D01*
Y87464D01*
X282337Y86465D01*
X283337Y85465D01*
Y84465D01*
X282337Y83466D01*
X280338D01*
X279338Y84465D01*
Y85465D01*
X280338Y86465D01*
X279338Y87464D01*
Y88464D01*
X280338Y86465D02*
X282337D01*
X274128Y57993D02*
Y63991D01*
X277127D01*
X278126Y62992D01*
Y60992D01*
X277127Y59993D01*
X274128D01*
X276127D02*
X278126Y57993D01*
X280126Y63991D02*
X284124D01*
Y62992D01*
X280126Y58993D01*
Y57993D01*
X360356Y108812D02*
Y114810D01*
X363355D01*
X364355Y113810D01*
Y111811D01*
X363355Y110811D01*
X360356D01*
X362355D02*
X364355Y108812D01*
X370353Y114810D02*
X368353Y113810D01*
X366354Y111811D01*
Y109812D01*
X367354Y108812D01*
X369353D01*
X370353Y109812D01*
Y110811D01*
X369353Y111811D01*
X366354D01*
X188112Y246458D02*
Y252456D01*
X191111D01*
X192111Y251456D01*
Y249457D01*
X191111Y248457D01*
X188112D01*
X190111D02*
X192111Y246458D01*
X198109Y252456D02*
X194110D01*
Y249457D01*
X196109Y250456D01*
X197109D01*
X198109Y249457D01*
Y247457D01*
X197109Y246458D01*
X195110D01*
X194110Y247457D01*
X185947Y220426D02*
Y226424D01*
X188945D01*
X189945Y225425D01*
Y223425D01*
X188945Y222426D01*
X185947D01*
X187946D02*
X189945Y220426D01*
X194944D02*
Y226424D01*
X191945Y223425D01*
X195943D01*
X207600Y191095D02*
Y197093D01*
X210599D01*
X211599Y196094D01*
Y194095D01*
X210599Y193095D01*
X207600D01*
X209599D02*
X211599Y191095D01*
X213598Y196094D02*
X214598Y197093D01*
X216597D01*
X217597Y196094D01*
Y195094D01*
X216597Y194095D01*
X215598D01*
X216597D01*
X217597Y193095D01*
Y192095D01*
X216597Y191095D01*
X214598D01*
X213598Y192095D01*
X202999Y190277D02*
X197001D01*
Y193276D01*
X198001Y194276D01*
X200000D01*
X201000Y193276D01*
Y190277D01*
Y192277D02*
X202999Y194276D01*
Y200274D02*
Y196275D01*
X199000Y200274D01*
X198001D01*
X197001Y199274D01*
Y197275D01*
X198001Y196275D01*
X306631Y223379D02*
Y229377D01*
X309630D01*
X310630Y228377D01*
Y226378D01*
X309630Y225378D01*
X306631D01*
X308631D02*
X310630Y223379D01*
X312629D02*
X314629D01*
X313629D01*
Y229377D01*
X312629Y228377D01*
X213567Y246426D02*
Y250425D01*
X212568Y251424D01*
X210568D01*
X209569Y250425D01*
Y246426D01*
X210568Y245426D01*
X212568D01*
X211568Y247426D02*
X213567Y245426D01*
X212568D02*
X213567Y246426D01*
X219565Y245426D02*
X215567D01*
X219565Y249425D01*
Y250425D01*
X218566Y251424D01*
X216566D01*
X215567Y250425D01*
X205709Y222410D02*
Y226409D01*
X204709Y227409D01*
X202710D01*
X201710Y226409D01*
Y222410D01*
X202710Y221410D01*
X204709D01*
X203709Y223410D02*
X205709Y221410D01*
X204709D02*
X205709Y222410D01*
X207708Y221410D02*
X209707D01*
X208708D01*
Y227409D01*
X207708Y226409D01*
X231200Y245298D02*
Y239300D01*
X235199D01*
X241197D02*
X237198D01*
X241197Y243299D01*
Y244298D01*
X240197Y245298D01*
X238198D01*
X237198Y244298D01*
X355450Y249849D02*
Y243851D01*
X359449D01*
X361448D02*
X363447D01*
X362448D01*
Y249849D01*
X361448Y248850D01*
X244599Y147998D02*
X242599D01*
X243599D01*
Y143000D01*
X242599Y142000D01*
X241600D01*
X240600Y143000D01*
X250597Y147998D02*
X246598D01*
Y144999D01*
X248597Y145999D01*
X249597D01*
X250597Y144999D01*
Y143000D01*
X249597Y142000D01*
X247598D01*
X246598Y143000D01*
X205575Y14613D02*
X203576D01*
X204575D01*
Y9615D01*
X203576Y8615D01*
X202576D01*
X201576Y9615D01*
X207575Y13613D02*
X208574Y14613D01*
X210574D01*
X211573Y13613D01*
Y12614D01*
X210574Y11614D01*
X209574D01*
X210574D01*
X211573Y10615D01*
Y9615D01*
X210574Y8615D01*
X208574D01*
X207575Y9615D01*
X325787Y-9796D02*
X323788D01*
X324788D01*
Y-14795D01*
X323788Y-15794D01*
X322788D01*
X321789Y-14795D01*
X327787Y-15794D02*
X329786D01*
X328786D01*
Y-9796D01*
X327787Y-10796D01*
X16912Y217172D02*
Y211174D01*
X19911D01*
X20911Y212174D01*
Y216173D01*
X19911Y217172D01*
X16912D01*
X22910Y211174D02*
X24909D01*
X23910D01*
Y217172D01*
X22910Y216173D01*
X27908D02*
X28908Y217172D01*
X30907D01*
X31907Y216173D01*
Y212174D01*
X30907Y211174D01*
X28908D01*
X27908Y212174D01*
Y216173D01*
X46183Y217172D02*
Y211174D01*
X49182D01*
X50181Y212174D01*
Y216173D01*
X49182Y217172D01*
X46183D01*
X52181Y212174D02*
X53180Y211174D01*
X55180D01*
X56179Y212174D01*
Y216173D01*
X55180Y217172D01*
X53180D01*
X52181Y216173D01*
Y215173D01*
X53180Y214173D01*
X56179D01*
X73742Y217495D02*
Y211497D01*
X76741D01*
X77741Y212497D01*
Y216495D01*
X76741Y217495D01*
X73742D01*
X79740Y216495D02*
X80739Y217495D01*
X82739D01*
X83738Y216495D01*
Y215496D01*
X82739Y214496D01*
X83738Y213496D01*
Y212497D01*
X82739Y211497D01*
X80739D01*
X79740Y212497D01*
Y213496D01*
X80739Y214496D01*
X79740Y215496D01*
Y216495D01*
X80739Y214496D02*
X82739D01*
X272985Y114687D02*
X278983D01*
Y117686D01*
X277984Y118685D01*
X273985D01*
X272985Y117686D01*
Y114687D01*
Y120685D02*
Y124683D01*
X273985D01*
X277984Y120685D01*
X278983D01*
X272591Y128466D02*
X278590D01*
Y131465D01*
X277590Y132465D01*
X273591D01*
X272591Y131465D01*
Y128466D01*
Y138463D02*
X273591Y136464D01*
X275590Y134464D01*
X277590D01*
X278590Y135464D01*
Y137463D01*
X277590Y138463D01*
X276590D01*
X275590Y137463D01*
Y134464D01*
X272985Y141458D02*
X278983D01*
Y144457D01*
X277984Y145457D01*
X273985D01*
X272985Y144457D01*
Y141458D01*
Y151455D02*
Y147456D01*
X275984D01*
X274985Y149456D01*
Y150455D01*
X275984Y151455D01*
X277984D01*
X278983Y150455D01*
Y148456D01*
X277984Y147456D01*
X272985Y155238D02*
X278983D01*
Y158237D01*
X277984Y159237D01*
X273985D01*
X272985Y158237D01*
Y155238D01*
X278983Y164235D02*
X272985D01*
X275984Y161236D01*
Y165235D01*
X257198Y113007D02*
Y107009D01*
X260197D01*
X261197Y108009D01*
Y112007D01*
X260197Y113007D01*
X257198D01*
X263196Y112007D02*
X264196Y113007D01*
X266195D01*
X267195Y112007D01*
Y111008D01*
X266195Y110008D01*
X265196D01*
X266195D01*
X267195Y109008D01*
Y108009D01*
X266195Y107009D01*
X264196D01*
X263196Y108009D01*
X290277Y204574D02*
Y198576D01*
X293276D01*
X294276Y199575D01*
Y203574D01*
X293276Y204574D01*
X290277D01*
X300274Y198576D02*
X296275D01*
X300274Y202574D01*
Y203574D01*
X299274Y204574D01*
X297275D01*
X296275Y203574D01*
X184584Y263629D02*
Y257631D01*
X187583D01*
X188583Y258631D01*
Y262629D01*
X187583Y263629D01*
X184584D01*
X190582Y257631D02*
X192581D01*
X191582D01*
Y263629D01*
X190582Y262629D01*
X56631Y105936D02*
X55632Y106936D01*
X53632D01*
X52632Y105936D01*
Y101938D01*
X53632Y100938D01*
X55632D01*
X56631Y101938D01*
X58631Y105936D02*
X59630Y106936D01*
X61630D01*
X62629Y105936D01*
Y104937D01*
X61630Y103937D01*
X60630D01*
X61630D01*
X62629Y102937D01*
Y101938D01*
X61630Y100938D01*
X59630D01*
X58631Y101938D01*
X64629Y106936D02*
X68627D01*
Y105936D01*
X64629Y101938D01*
Y100938D01*
X7419Y90582D02*
X6419Y91582D01*
X4420D01*
X3420Y90582D01*
Y86583D01*
X4420Y85584D01*
X6419D01*
X7419Y86583D01*
X9418Y90582D02*
X10418Y91582D01*
X12417D01*
X13417Y90582D01*
Y89582D01*
X12417Y88583D01*
X11417D01*
X12417D01*
X13417Y87583D01*
Y86583D01*
X12417Y85584D01*
X10418D01*
X9418Y86583D01*
X19415Y91582D02*
X17415Y90582D01*
X15416Y88583D01*
Y86583D01*
X16416Y85584D01*
X18415D01*
X19415Y86583D01*
Y87583D01*
X18415Y88583D01*
X15416D01*
X7419Y69716D02*
X6419Y70716D01*
X4420D01*
X3420Y69716D01*
Y65717D01*
X4420Y64718D01*
X6419D01*
X7419Y65717D01*
X9418Y69716D02*
X10418Y70716D01*
X12417D01*
X13417Y69716D01*
Y68716D01*
X12417Y67716D01*
X11417D01*
X12417D01*
X13417Y66717D01*
Y65717D01*
X12417Y64718D01*
X10418D01*
X9418Y65717D01*
X19415Y70716D02*
X15416D01*
Y67716D01*
X17415Y68716D01*
X18415D01*
X19415Y67716D01*
Y65717D01*
X18415Y64718D01*
X16416D01*
X15416Y65717D01*
X70048Y57025D02*
X69048Y56025D01*
Y54026D01*
X70048Y53026D01*
X74047D01*
X75046Y54026D01*
Y56025D01*
X74047Y57025D01*
X70048Y59024D02*
X69048Y60024D01*
Y62023D01*
X70048Y63023D01*
X71048D01*
X72047Y62023D01*
Y61024D01*
Y62023D01*
X73047Y63023D01*
X74047D01*
X75046Y62023D01*
Y60024D01*
X74047Y59024D01*
X75046Y68021D02*
X69048D01*
X72047Y65022D01*
Y69021D01*
X73462Y87924D02*
X72462Y88924D01*
X70463D01*
X69463Y87924D01*
Y83926D01*
X70463Y82926D01*
X72462D01*
X73462Y83926D01*
X75461Y87924D02*
X76461Y88924D01*
X78460D01*
X79460Y87924D01*
Y86925D01*
X78460Y85925D01*
X77461D01*
X78460D01*
X79460Y84926D01*
Y83926D01*
X78460Y82926D01*
X76461D01*
X75461Y83926D01*
X81459Y87924D02*
X82459Y88924D01*
X84458D01*
X85458Y87924D01*
Y86925D01*
X84458Y85925D01*
X83459D01*
X84458D01*
X85458Y84926D01*
Y83926D01*
X84458Y82926D01*
X82459D01*
X81459Y83926D01*
X187371Y46395D02*
X186371Y45395D01*
Y43396D01*
X187371Y42396D01*
X191369D01*
X192369Y43396D01*
Y45395D01*
X191369Y46395D01*
X187371Y48394D02*
X186371Y49394D01*
Y51393D01*
X187371Y52393D01*
X188370D01*
X189370Y51393D01*
Y50394D01*
Y51393D01*
X190370Y52393D01*
X191369D01*
X192369Y51393D01*
Y49394D01*
X191369Y48394D01*
X192369Y58391D02*
Y54392D01*
X188370Y58391D01*
X187371D01*
X186371Y57391D01*
Y55392D01*
X187371Y54392D01*
X178709Y48970D02*
X177710Y47970D01*
Y45970D01*
X178709Y44971D01*
X182708D01*
X183708Y45970D01*
Y47970D01*
X182708Y48970D01*
X178709Y50969D02*
X177710Y51968D01*
Y53968D01*
X178709Y54967D01*
X179709D01*
X180709Y53968D01*
Y52968D01*
Y53968D01*
X181708Y54967D01*
X182708D01*
X183708Y53968D01*
Y51968D01*
X182708Y50969D01*
X183708Y56967D02*
Y58966D01*
Y57967D01*
X177710D01*
X178709Y56967D01*
X86553Y38614D02*
X85553Y39613D01*
X83553D01*
X82554Y38614D01*
Y34615D01*
X83553Y33615D01*
X85553D01*
X86553Y34615D01*
X88552Y38614D02*
X89552Y39613D01*
X91551D01*
X92550Y38614D01*
Y37614D01*
X91551Y36614D01*
X90551D01*
X91551D01*
X92550Y35614D01*
Y34615D01*
X91551Y33615D01*
X89552D01*
X88552Y34615D01*
X94550Y38614D02*
X95550Y39613D01*
X97549D01*
X98549Y38614D01*
Y34615D01*
X97549Y33615D01*
X95550D01*
X94550Y34615D01*
Y38614D01*
X116474Y76802D02*
X115474Y77802D01*
X113475D01*
X112475Y76802D01*
Y72804D01*
X113475Y71804D01*
X115474D01*
X116474Y72804D01*
X122472Y71804D02*
X118473D01*
X122472Y75803D01*
Y76802D01*
X121472Y77802D01*
X119473D01*
X118473Y76802D01*
X124471Y72804D02*
X125471Y71804D01*
X127470D01*
X128470Y72804D01*
Y76802D01*
X127470Y77802D01*
X125471D01*
X124471Y76802D01*
Y75803D01*
X125471Y74803D01*
X128470D01*
X116474Y68535D02*
X115474Y69534D01*
X113475D01*
X112475Y68535D01*
Y64536D01*
X113475Y63536D01*
X115474D01*
X116474Y64536D01*
X122472Y63536D02*
X118473D01*
X122472Y67535D01*
Y68535D01*
X121472Y69534D01*
X119473D01*
X118473Y68535D01*
X124471D02*
X125471Y69534D01*
X127470D01*
X128470Y68535D01*
Y67535D01*
X127470Y66536D01*
X128470Y65536D01*
Y64536D01*
X127470Y63536D01*
X125471D01*
X124471Y64536D01*
Y65536D01*
X125471Y66536D01*
X124471Y67535D01*
Y68535D01*
X125471Y66536D02*
X127470D01*
X153487Y82413D02*
X152488Y83412D01*
X150488D01*
X149489Y82413D01*
Y78414D01*
X150488Y77414D01*
X152488D01*
X153487Y78414D01*
X159485Y77414D02*
X155487D01*
X159485Y81413D01*
Y82413D01*
X158486Y83412D01*
X156486D01*
X155487Y82413D01*
X161485Y83412D02*
X165483D01*
Y82413D01*
X161485Y78414D01*
Y77414D01*
X194261Y76612D02*
X193261Y75612D01*
Y73612D01*
X194261Y72613D01*
X198259D01*
X199259Y73612D01*
Y75612D01*
X198259Y76612D01*
X199259Y82610D02*
Y78611D01*
X195260Y82610D01*
X194261D01*
X193261Y81610D01*
Y79611D01*
X194261Y78611D01*
X193261Y88608D02*
X194261Y86608D01*
X196260Y84609D01*
X198259D01*
X199259Y85609D01*
Y87608D01*
X198259Y88608D01*
X197259D01*
X196260Y87608D01*
Y84609D01*
X203217Y76907D02*
X202218Y75907D01*
Y73908D01*
X203217Y72908D01*
X207216D01*
X208216Y73908D01*
Y75907D01*
X207216Y76907D01*
X208216Y82905D02*
Y78906D01*
X204217Y82905D01*
X203217D01*
X202218Y81905D01*
Y79906D01*
X203217Y78906D01*
X202218Y88903D02*
Y84904D01*
X205217D01*
X204217Y86904D01*
Y87903D01*
X205217Y88903D01*
X207216D01*
X208216Y87903D01*
Y85904D01*
X207216Y84904D01*
X68049Y31133D02*
X67049Y32133D01*
X65049D01*
X64050Y31133D01*
Y27134D01*
X65049Y26135D01*
X67049D01*
X68049Y27134D01*
X74047Y26135D02*
X70048D01*
X74047Y30134D01*
Y31133D01*
X73047Y32133D01*
X71048D01*
X70048Y31133D01*
X79045Y26135D02*
Y32133D01*
X76046Y29134D01*
X80045D01*
X116474Y58692D02*
X115474Y59692D01*
X113475D01*
X112475Y58692D01*
Y54694D01*
X113475Y53694D01*
X115474D01*
X116474Y54694D01*
X122472Y53694D02*
X118473D01*
X122472Y57693D01*
Y58692D01*
X121472Y59692D01*
X119473D01*
X118473Y58692D01*
X124471D02*
X125471Y59692D01*
X127470D01*
X128470Y58692D01*
Y57693D01*
X127470Y56693D01*
X126470D01*
X127470D01*
X128470Y55693D01*
Y54694D01*
X127470Y53694D01*
X125471D01*
X124471Y54694D01*
X85765Y-1150D02*
X84765Y-151D01*
X82766D01*
X81766Y-1150D01*
Y-5149D01*
X82766Y-6149D01*
X84765D01*
X85765Y-5149D01*
X91763Y-6149D02*
X87764D01*
X91763Y-2150D01*
Y-1150D01*
X90763Y-151D01*
X88764D01*
X87764Y-1150D01*
X97761Y-6149D02*
X93762D01*
X97761Y-2150D01*
Y-1150D01*
X96762Y-151D01*
X94762D01*
X93762Y-1150D01*
X126741Y22591D02*
X125741Y21592D01*
Y19592D01*
X126741Y18593D01*
X130739D01*
X131739Y19592D01*
Y21592D01*
X130739Y22591D01*
X131739Y28590D02*
Y24591D01*
X127741Y28590D01*
X126741D01*
X125741Y27590D01*
Y25591D01*
X126741Y24591D01*
X131739Y30589D02*
Y32588D01*
Y31589D01*
X125741D01*
X126741Y30589D01*
X135796Y20411D02*
X134796Y19411D01*
Y17412D01*
X135796Y16412D01*
X139795D01*
X140794Y17412D01*
Y19411D01*
X139795Y20411D01*
X140794Y26409D02*
Y22410D01*
X136796Y26409D01*
X135796D01*
X134796Y25409D01*
Y23410D01*
X135796Y22410D01*
Y28408D02*
X134796Y29408D01*
Y31407D01*
X135796Y32407D01*
X139795D01*
X140794Y31407D01*
Y29408D01*
X139795Y28408D01*
X135796D01*
X68155Y4755D02*
X67155Y5755D01*
X65156D01*
X64156Y4755D01*
Y757D01*
X65156Y-243D01*
X67155D01*
X68155Y757D01*
X70154Y-243D02*
X72153D01*
X71154D01*
Y5755D01*
X70154Y4755D01*
X75152Y757D02*
X76152Y-243D01*
X78151D01*
X79151Y757D01*
Y4755D01*
X78151Y5755D01*
X76152D01*
X75152Y4755D01*
Y3756D01*
X76152Y2756D01*
X79151D01*
X75635Y176409D02*
X74635Y177409D01*
X72636D01*
X71636Y176409D01*
Y172410D01*
X72636Y171410D01*
X74635D01*
X75635Y172410D01*
X77634Y171410D02*
X79634D01*
X78634D01*
Y177409D01*
X77634Y176409D01*
X82633D02*
X83632Y177409D01*
X85632D01*
X86631Y176409D01*
Y175409D01*
X85632Y174409D01*
X86631Y173410D01*
Y172410D01*
X85632Y171410D01*
X83632D01*
X82633Y172410D01*
Y173410D01*
X83632Y174409D01*
X82633Y175409D01*
Y176409D01*
X83632Y174409D02*
X85632D01*
X34316Y154507D02*
X33316Y155507D01*
X31317D01*
X30317Y154507D01*
Y150508D01*
X31317Y149509D01*
X33316D01*
X34316Y150508D01*
X36315Y149509D02*
X38315D01*
X37315D01*
Y155507D01*
X36315Y154507D01*
X41314Y155507D02*
X45312D01*
Y154507D01*
X41314Y150508D01*
Y149509D01*
X90202Y260661D02*
X89202Y261660D01*
X87203D01*
X86203Y260661D01*
Y256662D01*
X87203Y255662D01*
X89202D01*
X90202Y256662D01*
X92201Y255662D02*
X94201D01*
X93201D01*
Y261660D01*
X92201Y260661D01*
X101198Y261660D02*
X99199Y260661D01*
X97200Y258661D01*
Y256662D01*
X98199Y255662D01*
X100199D01*
X101198Y256662D01*
Y257662D01*
X100199Y258661D01*
X97200D01*
X172485Y249637D02*
X171486Y250637D01*
X169486D01*
X168487Y249637D01*
Y245638D01*
X169486Y244639D01*
X171486D01*
X172485Y245638D01*
X174485Y244639D02*
X176484D01*
X175484D01*
Y250637D01*
X174485Y249637D01*
X183482Y250637D02*
X179483D01*
Y247638D01*
X181483Y248638D01*
X182482D01*
X183482Y247638D01*
Y245638D01*
X182482Y244639D01*
X180483D01*
X179483Y245638D01*
X132722Y255543D02*
X131722Y256542D01*
X129723D01*
X128723Y255543D01*
Y251544D01*
X129723Y250544D01*
X131722D01*
X132722Y251544D01*
X134721Y250544D02*
X136720D01*
X135721D01*
Y256542D01*
X134721Y255543D01*
X139719D02*
X140719Y256542D01*
X142718D01*
X143718Y255543D01*
Y254543D01*
X142718Y253543D01*
X141719D01*
X142718D01*
X143718Y252544D01*
Y251544D01*
X142718Y250544D01*
X140719D01*
X139719Y251544D01*
X363430Y143732D02*
X362431Y144731D01*
X360431D01*
X359432Y143732D01*
Y139733D01*
X360431Y138733D01*
X362431D01*
X363430Y139733D01*
X365430Y138733D02*
X367429D01*
X366429D01*
Y144731D01*
X365430Y143732D01*
X374427Y138733D02*
X370428D01*
X374427Y142732D01*
Y143732D01*
X373427Y144731D01*
X371428D01*
X370428Y143732D01*
X380178Y133102D02*
X379178Y134101D01*
X377179D01*
X376179Y133102D01*
Y129103D01*
X377179Y128103D01*
X379178D01*
X380178Y129103D01*
X382177Y128103D02*
X384177D01*
X383177D01*
Y134101D01*
X382177Y133102D01*
X387176Y128103D02*
X389175D01*
X388175D01*
Y134101D01*
X387176Y133102D01*
X359611Y96232D02*
X358612Y97231D01*
X356612D01*
X355613Y96232D01*
Y92233D01*
X356612Y91233D01*
X358612D01*
X359611Y92233D01*
X361611Y91233D02*
X363610D01*
X362610D01*
Y97231D01*
X361611Y96232D01*
X366609D02*
X367609Y97231D01*
X369608D01*
X370608Y96232D01*
Y92233D01*
X369608Y91233D01*
X367609D01*
X366609Y92233D01*
Y96232D01*
X290733Y231921D02*
X289733Y232920D01*
X287734D01*
X286734Y231921D01*
Y227922D01*
X287734Y226922D01*
X289733D01*
X290733Y227922D01*
X292732Y231921D02*
X293732Y232920D01*
X295731D01*
X296731Y231921D01*
Y230921D01*
X295731Y229921D01*
X296731Y228922D01*
Y227922D01*
X295731Y226922D01*
X293732D01*
X292732Y227922D01*
Y228922D01*
X293732Y229921D01*
X292732Y230921D01*
Y231921D01*
X293732Y229921D02*
X295731D01*
X256268Y236796D02*
X255269Y235796D01*
Y233797D01*
X256268Y232797D01*
X260267D01*
X261267Y233797D01*
Y235796D01*
X260267Y236796D01*
X255269Y238795D02*
Y242794D01*
X256268D01*
X260267Y238795D01*
X261267D01*
X309630Y218929D02*
X308631Y219928D01*
X306631D01*
X305631Y218929D01*
Y214930D01*
X306631Y213930D01*
X308631D01*
X309630Y214930D01*
X315628Y219928D02*
X313629Y218929D01*
X311630Y216929D01*
Y214930D01*
X312629Y213930D01*
X314629D01*
X315628Y214930D01*
Y215929D01*
X314629Y216929D01*
X311630D01*
X326166Y209086D02*
X325166Y210086D01*
X323167D01*
X322167Y209086D01*
Y205087D01*
X323167Y204088D01*
X325166D01*
X326166Y205087D01*
X332164Y210086D02*
X328165D01*
Y207087D01*
X330164Y208086D01*
X331164D01*
X332164Y207087D01*
Y205087D01*
X331164Y204088D01*
X329165D01*
X328165Y205087D01*
X326166Y200818D02*
X325166Y201818D01*
X323167D01*
X322167Y200818D01*
Y196820D01*
X323167Y195820D01*
X325166D01*
X326166Y196820D01*
X331164Y195820D02*
Y201818D01*
X328165Y198819D01*
X332164D01*
X347426Y242157D02*
X346426Y243157D01*
X344426D01*
X343427Y242157D01*
Y238158D01*
X344426Y237158D01*
X346426D01*
X347426Y238158D01*
X349425Y242157D02*
X350425Y243157D01*
X352424D01*
X353424Y242157D01*
Y241157D01*
X352424Y240158D01*
X351424D01*
X352424D01*
X353424Y239158D01*
Y238158D01*
X352424Y237158D01*
X350425D01*
X349425Y238158D01*
X381678Y153968D02*
X380678Y154967D01*
X378678D01*
X377679Y153968D01*
Y149969D01*
X378678Y148969D01*
X380678D01*
X381678Y149969D01*
X387676Y148969D02*
X383677D01*
X387676Y152968D01*
Y153968D01*
X386676Y154967D01*
X384677D01*
X383677Y153968D01*
X374410Y179558D02*
X373410Y180558D01*
X371410D01*
X370411Y179558D01*
Y175560D01*
X371410Y174560D01*
X373410D01*
X374410Y175560D01*
X376409Y174560D02*
X378408D01*
X377409D01*
Y180558D01*
X376409Y179558D01*
X78927Y206050D02*
Y200052D01*
X81927D01*
X82926Y201052D01*
Y202051D01*
X81927Y203051D01*
X78927D01*
X81927D01*
X82926Y204051D01*
Y205050D01*
X81927Y206050D01*
X78927D01*
X84926D02*
X88924D01*
X86925D01*
Y200052D01*
X90924D02*
X92923D01*
X91923D01*
Y206050D01*
X90924Y205050D01*
M02*
