G04*
G04 #@! TF.GenerationSoftware,Altium Limited,Altium Designer,25.1.2 (22)*
G04*
G04 Layer_Color=2752767*
%FSLAX25Y25*%
%MOIN*%
G70*
G04*
G04 #@! TF.SameCoordinates,CA0C9BDC-3DDB-4A6D-BED0-E5142FBB81A2*
G04*
G04*
G04 #@! TF.FilePolarity,Positive*
G04*
G01*
G75*
%ADD77C,0.00500*%
%ADD78C,0.00667*%
D77*
X118685Y249984D02*
Y248984D01*
X120685D01*
Y249984D01*
X121685D01*
Y251984D01*
X120685D01*
Y252984D01*
X118685D01*
Y251984D01*
X117685D01*
Y249984D01*
X118685D01*
Y176165D02*
Y175165D01*
X120685D01*
Y176165D01*
X121685D01*
Y178165D01*
X120685D01*
Y179165D01*
X118685D01*
Y178165D01*
X117685D01*
Y176165D01*
X118685D01*
X253118Y131465D02*
Y135465D01*
X257118D01*
Y131465D01*
X253118D01*
X243118D02*
Y135465D01*
X247118D01*
Y131465D01*
X243118D01*
X263118D02*
Y135465D01*
X267118D01*
Y131465D01*
X263118D01*
X223433Y-5150D02*
Y-1150D01*
X227433D01*
Y-5150D01*
X223433D01*
X203433D02*
Y-1150D01*
X207433D01*
Y-5150D01*
X203433D01*
X213433D02*
Y-1150D01*
X217433D01*
Y-5150D01*
X213433D01*
X273433D02*
Y-1150D01*
X277433D01*
Y-5150D01*
X273433D01*
X283433D02*
Y-1150D01*
X287433D01*
Y-5150D01*
X283433D01*
X243433D02*
Y-1150D01*
X247433D01*
Y-5150D01*
X243433D01*
X233433D02*
Y-1150D01*
X237433D01*
Y-5150D01*
X233433D01*
X263433D02*
Y-1150D01*
X267433D01*
Y-5150D01*
X263433D01*
X253433D02*
Y-1150D01*
X257433D01*
Y-5150D01*
X253433D01*
X259811Y87606D02*
Y91606D01*
X263811D01*
Y87606D01*
X259811D01*
Y77606D02*
Y81606D01*
X263811D01*
Y77606D01*
X259811D01*
Y97606D02*
Y101606D01*
X263811D01*
Y97606D01*
X259811D01*
Y67606D02*
Y71606D01*
X263811D01*
Y67606D01*
X259811D01*
X13354Y54299D02*
Y58299D01*
X17354D01*
Y54299D01*
X13354D01*
Y44299D02*
Y48299D01*
X17354D01*
Y44299D01*
X13354D01*
X315323Y156110D02*
Y160110D01*
X319323D01*
Y156110D01*
X315323D01*
Y116110D02*
Y120110D01*
X319323D01*
Y116110D01*
X315323D01*
Y146110D02*
Y150110D01*
X319323D01*
Y146110D01*
X315323D01*
Y126110D02*
Y130110D01*
X319323D01*
Y126110D01*
X315323D01*
Y136110D02*
Y140110D01*
X319323D01*
Y136110D01*
X315323D01*
X226819Y9417D02*
Y13417D01*
X230819D01*
Y9417D01*
X226819D01*
X236819D02*
Y13417D01*
X240819D01*
Y9417D01*
X236819D01*
X216819D02*
Y13417D01*
X220819D01*
Y9417D01*
X216819D01*
X246819D02*
Y13417D01*
X250819D01*
Y9417D01*
X246819D01*
X309181Y-5150D02*
Y-1150D01*
X313181D01*
Y-5150D01*
X309181D01*
X299181D02*
Y-1150D01*
X303181D01*
Y-5150D01*
X299181D01*
X334772D02*
Y-1150D01*
X338772D01*
Y-5150D01*
X334772D01*
X354772D02*
Y-1150D01*
X358772D01*
Y-5150D01*
X354772D01*
X324772D02*
Y-1150D01*
X328772D01*
Y-5150D01*
X324772D01*
X344772D02*
Y-1150D01*
X348772D01*
Y-5150D01*
X344772D01*
X349969Y135165D02*
Y139165D01*
X353969D01*
Y135165D01*
X349969D01*
Y125165D02*
Y129165D01*
X353969D01*
Y125165D01*
X349969D01*
X270835Y185795D02*
Y189795D01*
X274835D01*
Y185795D01*
X270835D01*
X280835D02*
Y189795D01*
X284835D01*
Y185795D01*
X280835D01*
X265559Y246425D02*
Y250425D01*
X269559D01*
Y246425D01*
X265559D01*
X275559D02*
Y250425D01*
X279559D01*
Y246425D01*
X275559D01*
X71307Y257842D02*
Y261842D01*
X75307D01*
Y257842D01*
X71307D01*
X61307D02*
Y261842D01*
X65307D01*
Y257842D01*
X61307D01*
X41307D02*
Y261842D01*
X45307D01*
Y257842D01*
X41307D01*
X51307D02*
Y261842D01*
X55307D01*
Y257842D01*
X51307D01*
X348630Y185402D02*
Y189402D01*
X352630D01*
Y185402D01*
X348630D01*
X358630D02*
Y189402D01*
X362630D01*
Y185402D01*
X358630D01*
X229890Y257842D02*
Y261842D01*
X233890D01*
Y257842D01*
X229890D01*
X239890D02*
Y261842D01*
X243890D01*
Y257842D01*
X239890D01*
X346031D02*
Y261842D01*
X350031D01*
Y257842D01*
X346031D01*
Y247843D02*
Y251842D01*
X350031D01*
Y247843D01*
X346031D01*
X81071Y190913D02*
Y194913D01*
X85071D01*
Y190913D01*
X81071D01*
Y180913D02*
Y184913D01*
X85071D01*
Y180913D01*
X81071D01*
Y47449D02*
Y51449D01*
X85071D01*
Y47449D01*
X81071D01*
Y57449D02*
Y61449D01*
X85071D01*
Y57449D01*
X81071D01*
X342500Y220689D02*
X343500Y221689D01*
X344500D01*
X343500Y222689D01*
X344500Y223689D01*
X343500D01*
X342500Y224689D01*
X341500Y223689D01*
X340500D01*
X341500Y222689D01*
X340500Y221689D01*
X341500D01*
X342500Y220689D01*
Y214390D02*
X343500Y215390D01*
X344500D01*
X343500Y216390D01*
X344500Y217390D01*
X343500D01*
X342500Y218390D01*
X341500Y217390D01*
X340500D01*
X341500Y216390D01*
X340500Y215390D01*
X341500D01*
X342500Y214390D01*
Y217539D02*
X343500Y218539D01*
X344500D01*
X343500Y219539D01*
X344500Y220539D01*
X343500D01*
X342500Y221539D01*
X341500Y220539D01*
X340500D01*
X341500Y219539D01*
X340500Y218539D01*
X341500D01*
X342500Y217539D01*
X377953Y-5937D02*
X375953Y-1937D01*
X379953D01*
X377953Y-5937D01*
Y257842D02*
X375953Y261842D01*
X379953D01*
X377953Y257842D01*
X15748D02*
X13748Y261842D01*
X17748D01*
X15748Y257842D01*
Y-5937D02*
X13748Y-1937D01*
X17748D01*
X15748Y-5937D01*
D78*
X91370Y244488D02*
G03*
X91370Y244488I-2000J0D01*
G01*
X91764Y225984D02*
G03*
X91764Y225984I-2000J0D01*
G01*
X391764Y96063D02*
G03*
X391764Y96063I-2000J0D01*
G01*
X276803Y238189D02*
G03*
X276803Y238189I-2000J0D01*
G01*
X181528Y223228D02*
G03*
X181528Y223228I-2000J0D01*
G01*
X320898Y93307D02*
G03*
X320898Y93307I-2000J0D01*
G01*
X266173Y223228D02*
G03*
X266173Y223228I-2000J0D01*
G01*
X266190Y217700D02*
G03*
X266190Y217700I-2000J0D01*
G01*
X19716Y81299D02*
G03*
X19716Y81299I-2000J0D01*
G01*
X172571Y174311D02*
G03*
X172571Y174311I-2000J0D01*
G01*
X169520Y187795D02*
G03*
X169520Y187795I-2000J0D01*
G01*
X157217Y198031D02*
G03*
X157217Y198031I-2000J0D01*
G01*
X157315Y187402D02*
G03*
X157315Y187402I-2000J0D01*
G01*
X169323Y198425D02*
G03*
X169323Y198425I-2000J0D01*
G01*
X142551Y187992D02*
G03*
X142551Y187992I-2000J0D01*
G01*
Y198031D02*
G03*
X142551Y198031I-2000J0D01*
G01*
X213811Y67716D02*
G03*
X213811Y67716I-2000J0D01*
G01*
X197669Y92520D02*
G03*
X197669Y92520I-2000J0D01*
G01*
X212630Y106299D02*
G03*
X212630Y106299I-2000J0D01*
G01*
X193339Y189764D02*
G03*
X193339Y189764I-2000J0D01*
G01*
X151213Y158661D02*
G03*
X151213Y158661I-2000J0D01*
G01*
X168142D02*
G03*
X168142Y158661I-2000J0D01*
G01*
X267748Y162992D02*
G03*
X267748Y162992I-2000J0D01*
G01*
X240976D02*
G03*
X240976Y162992I-2000J0D01*
G01*
X31921Y203937D02*
G03*
X31921Y203937I-2000J0D01*
G01*
X7118Y205118D02*
G03*
X7118Y205118I-2000J0D01*
G01*
X96488Y214173D02*
G03*
X96488Y214173I-2000J0D01*
G01*
X14598Y103937D02*
G03*
X14598Y103937I-2000J0D01*
G01*
X85071Y144882D02*
G03*
X85071Y144882I-2000J0D01*
G01*
X18142Y149213D02*
G03*
X18142Y149213I-2000J0D01*
G01*
X45307Y129921D02*
G03*
X45307Y129921I-2000J0D01*
G01*
X32315Y12205D02*
G03*
X32315Y12205I-2000J0D01*
G01*
X60661Y-1969D02*
G03*
X60661Y-1969I-2000J0D01*
G01*
X129559Y-14567D02*
G03*
X129559Y-14567I-2000J0D01*
G01*
X128772Y10630D02*
G03*
X128772Y10630I-2000J0D01*
G01*
X197669Y-14567D02*
G03*
X197669Y-14567I-2000J0D01*
G01*
Y10630D02*
G03*
X197669Y10630I-2000J0D01*
G01*
X31528Y37008D02*
G03*
X31528Y37008I-2000J0D01*
G01*
X6724Y242126D02*
G03*
X6724Y242126I-2000J0D01*
G01*
X351213Y153543D02*
G03*
X351213Y153543I-2000J0D01*
G01*
X374047Y153150D02*
G03*
X374047Y153150I-2000J0D01*
G01*
X355150Y111417D02*
G03*
X355150Y111417I-2000J0D01*
G01*
X369717Y119291D02*
G03*
X369717Y119291I-2000J0D01*
G01*
X331134Y146457D02*
G03*
X331134Y146457I-2000J0D01*
G01*
X388614Y140551D02*
G03*
X388614Y140551I-2000J0D01*
G01*
X391764Y191339D02*
G03*
X391764Y191339I-2000J0D01*
G01*
X370898Y190945D02*
G03*
X370898Y190945I-2000J0D01*
G01*
X389795Y168898D02*
G03*
X389795Y168898I-2000J0D01*
G01*
X266961Y155118D02*
G03*
X266961Y155118I-2000J0D01*
G01*
X268142Y121260D02*
G03*
X268142Y121260I-2000J0D01*
G01*
X277984Y173228D02*
G03*
X277984Y173228I-2000J0D01*
G01*
X324441Y172835D02*
G03*
X324441Y172835I-2000J0D01*
G01*
X32315Y94095D02*
G03*
X32315Y94095I-2000J0D01*
G01*
X50425Y118110D02*
G03*
X50425Y118110I-2000J0D01*
G01*
X102787D02*
G03*
X102787Y118110I-2000J0D01*
G01*
X78772Y94095D02*
G03*
X78772Y94095I-2000J0D01*
G01*
X140583Y81496D02*
G03*
X140583Y81496I-2000J0D01*
G01*
X103969Y60630D02*
G03*
X103969Y60630I-2000J0D01*
G01*
X110268Y33465D02*
G03*
X110268Y33465I-2000J0D01*
G01*
X189008Y101181D02*
G03*
X189008Y101181I-2000J0D01*
G01*
X206331Y118504D02*
G03*
X206331Y118504I-2000J0D01*
G01*
X138221D02*
G03*
X138221Y118504I-2000J0D01*
G01*
X103969Y84252D02*
G03*
X103969Y84252I-2000J0D01*
G01*
X52787Y33071D02*
G03*
X52787Y33071I-2000J0D01*
G01*
X39402Y38583D02*
G03*
X39402Y38583I-2000J0D01*
G01*
X52394D02*
G03*
X52394Y38583I-2000J0D01*
G01*
X146488Y20866D02*
G03*
X146488Y20866I-2000J0D01*
G01*
X162630Y49606D02*
G03*
X162630Y49606I-2000J0D01*
G01*
X185858Y89370D02*
G03*
X185858Y89370I-2000J0D01*
G01*
X174835Y70866D02*
G03*
X174835Y70866I-2000J0D01*
G01*
X165779Y89764D02*
G03*
X165779Y89764I-2000J0D01*
G01*
X181528Y39764D02*
G03*
X181528Y39764I-2000J0D01*
G01*
X215779Y40157D02*
G03*
X215779Y40157I-2000J0D01*
G01*
X206724Y20472D02*
G03*
X206724Y20472I-2000J0D01*
G01*
X253575Y156693D02*
G03*
X253575Y156693I-2000J0D01*
G01*
X233890Y146850D02*
G03*
X233890Y146850I-2000J0D01*
G01*
X124047Y145669D02*
G03*
X124047Y145669I-2000J0D01*
G01*
X192551Y156693D02*
G03*
X192551Y156693I-2000J0D01*
G01*
X317748Y210236D02*
G03*
X317748Y210236I-2000J0D01*
G01*
X340976Y251969D02*
G03*
X340976Y251969I-2000J0D01*
G01*
X288614D02*
G03*
X288614Y251969I-2000J0D01*
G01*
X329165Y183858D02*
G03*
X329165Y183858I-2000J0D01*
G01*
X294520D02*
G03*
X294520Y183858I-2000J0D01*
G01*
X246488Y167717D02*
G03*
X246488Y167717I-2000J0D01*
G01*
X223654Y194488D02*
G03*
X223654Y194488I-2000J0D01*
G01*
X265386Y187008D02*
G03*
X265386Y187008I-2000J0D01*
G01*
X178772Y190945D02*
G03*
X178772Y190945I-2000J0D01*
G01*
X43339Y161417D02*
G03*
X43339Y161417I-2000J0D01*
G01*
X29953Y174803D02*
G03*
X29953Y174803I-2000J0D01*
G01*
X140976Y169291D02*
G03*
X140976Y169291I-2000J0D01*
G01*
X128772D02*
G03*
X128772Y169291I-2000J0D01*
G01*
X103969Y200787D02*
G03*
X103969Y200787I-2000J0D01*
G01*
X122079Y129134D02*
G03*
X122079Y129134I-2000J0D01*
G01*
Y117323D02*
G03*
X122079Y117323I-2000J0D01*
G01*
X209874Y130709D02*
G03*
X209874Y130709I-2000J0D01*
G01*
X200819Y219488D02*
G03*
X200819Y219488I-2000J0D01*
G01*
X235331Y156433D02*
G03*
X235331Y156433I-2000J0D01*
G01*
X241370Y39370D02*
G03*
X241370Y39370I-2000J0D01*
G01*
Y55512D02*
G03*
X241370Y55512I-2000J0D01*
G01*
X235071Y38976D02*
G03*
X235071Y38976I-2000J0D01*
G01*
X228772D02*
G03*
X228772Y38976I-2000J0D01*
G01*
X222079Y39370D02*
G03*
X222079Y39370I-2000J0D01*
G01*
X356724Y72835D02*
G03*
X356724Y72835I-2000J0D01*
G01*
X216567Y112205D02*
G03*
X216567Y112205I-2000J0D01*
G01*
X177197Y207677D02*
G03*
X177197Y207677I-2000J0D01*
G01*
X157512Y226378D02*
G03*
X157512Y226378I-2000J0D01*
G01*
X158299Y215748D02*
G03*
X158299Y215748I-2000J0D01*
G01*
X157512Y240158D02*
G03*
X157512Y240158I-2000J0D01*
G01*
X125228Y229134D02*
G03*
X125228Y229134I-2000J0D01*
G01*
X372472Y39370D02*
G03*
X372472Y39370I-2000J0D01*
G01*
X391764Y5906D02*
G03*
X391764Y5906I-2000J0D01*
G01*
X388614Y74557D02*
G03*
X388614Y74557I-2000J0D01*
G01*
X323654Y39764D02*
G03*
X323654Y39764I-2000J0D01*
G01*
X342158Y240158D02*
G03*
X342158Y240158I-2000J0D01*
G01*
X93732Y27559D02*
G03*
X93732Y27559I-2000J0D01*
G01*
X94913Y4331D02*
G03*
X94913Y4331I-2000J0D01*
G01*
X69323Y167717D02*
G03*
X69323Y167717I-2000J0D01*
G01*
X66961Y197638D02*
G03*
X66961Y197638I-2000J0D01*
G01*
X325622Y234252D02*
G03*
X325622Y234252I-2000J0D01*
G01*
X337433Y193307D02*
G03*
X337433Y193307I-2000J0D01*
G01*
X336646Y207087D02*
G03*
X336646Y207087I-2000J0D01*
G01*
X103969Y212598D02*
G03*
X103969Y212598I-2000J0D01*
G01*
X163417Y198425D02*
G03*
X163417Y198425I-2000J0D01*
G01*
X149047Y198228D02*
G03*
X149047Y198228I-2000J0D01*
G01*
X163417Y187402D02*
G03*
X163417Y187402I-2000J0D01*
G01*
X148850Y187992D02*
G03*
X148850Y187992I-2000J0D01*
G01*
X64598Y53937D02*
G03*
X64598Y53937I-2000J0D01*
G01*
X72472Y73228D02*
G03*
X72472Y73228I-2000J0D01*
G01*
X129559Y129134D02*
G03*
X129559Y129134I-2000J0D01*
G01*
X129165Y117323D02*
G03*
X129165Y117323I-2000J0D01*
G01*
X27197Y56299D02*
G03*
X27197Y56299I-2000J0D01*
G01*
X211449Y139370D02*
G03*
X211449Y139370I-2000J0D01*
G01*
X220504Y142126D02*
G03*
X220504Y142126I-2000J0D01*
G01*
X234677Y127165D02*
G03*
X234677Y127165I-2000J0D01*
G01*
X228772Y122441D02*
G03*
X228772Y122441I-2000J0D01*
G01*
X235071Y55512D02*
G03*
X235071Y55512I-2000J0D01*
G01*
X228772D02*
G03*
X228772Y55512I-2000J0D01*
G01*
X222079D02*
G03*
X222079Y55512I-2000J0D01*
G01*
X260661Y18504D02*
G03*
X260661Y18504I-2000J0D01*
G01*
X206724Y241339D02*
G03*
X206724Y241339I-2000J0D01*
G01*
M02*
