G04*
G04 #@! TF.GenerationSoftware,Altium Limited,Altium Designer,25.1.2 (22)*
G04*
G04 Layer_Color=12632256*
%FSLAX25Y25*%
%MOIN*%
G70*
G04*
G04 #@! TF.SameCoordinates,CA0C9BDC-3DDB-4A6D-BED0-E5142FBB81A2*
G04*
G04*
G04 #@! TF.FilePolarity,Positive*
G04*
G01*
G75*
%ADD66C,0.07874*%
%ADD67C,0.06000*%
%ADD68R,0.06000X0.06000*%
%ADD69R,0.06000X0.06000*%
D66*
X119685Y250984D02*
D03*
Y177165D02*
D03*
D67*
X255118Y133465D02*
D03*
X245118D02*
D03*
X225433Y-3150D02*
D03*
X205433D02*
D03*
X215433D02*
D03*
X275433D02*
D03*
X245433D02*
D03*
X235433D02*
D03*
X265433D02*
D03*
X255433D02*
D03*
X261811Y89606D02*
D03*
Y79606D02*
D03*
Y69606D02*
D03*
X15354Y46299D02*
D03*
X317323Y158110D02*
D03*
Y148110D02*
D03*
Y128110D02*
D03*
Y138110D02*
D03*
X228819Y11417D02*
D03*
X238819D02*
D03*
X248819D02*
D03*
X301181Y-3150D02*
D03*
X336772D02*
D03*
X326772D02*
D03*
X346772D02*
D03*
X351969Y127165D02*
D03*
X282835Y187795D02*
D03*
X277559Y248425D02*
D03*
X63307Y259842D02*
D03*
X43307D02*
D03*
X53307D02*
D03*
X350630Y187402D02*
D03*
X231890Y259842D02*
D03*
X348031D02*
D03*
X83071Y182913D02*
D03*
Y59449D02*
D03*
D68*
X265118Y133465D02*
D03*
X285433Y-3150D02*
D03*
X218819Y11417D02*
D03*
X311181Y-3150D02*
D03*
X356772D02*
D03*
X272835Y187795D02*
D03*
X267559Y248425D02*
D03*
X73307Y259842D02*
D03*
X360630Y187402D02*
D03*
X241890Y259842D02*
D03*
D69*
X261811Y99606D02*
D03*
X15354Y56299D02*
D03*
X317323Y118110D02*
D03*
X351969Y137165D02*
D03*
X348031Y249843D02*
D03*
X83071Y192913D02*
D03*
Y49449D02*
D03*
M02*
