G04*
G04 #@! TF.GenerationSoftware,Altium Limited,Altium Designer,25.1.2 (22)*
G04*
G04 Layer_Physical_Order=1*
G04 Layer_Color=255*
%FSLAX25Y25*%
%MOIN*%
G70*
G04*
G04 #@! TF.SameCoordinates,CA0C9BDC-3DDB-4A6D-BED0-E5142FBB81A2*
G04*
G04*
G04 #@! TF.FilePolarity,Positive*
G04*
G01*
G75*
%ADD10C,0.00984*%
%ADD12C,0.00787*%
%ADD13C,0.01000*%
%ADD14R,0.06496X0.09449*%
%ADD15O,0.03150X0.00866*%
%ADD16R,0.05118X0.03937*%
%ADD17R,0.03937X0.02362*%
%ADD18O,0.01378X0.05512*%
%ADD19R,0.03543X0.07874*%
%ADD20R,0.14567X0.14567*%
%ADD21R,0.06299X0.08465*%
%ADD22R,0.03937X0.05118*%
%ADD23O,0.05512X0.01378*%
%ADD24R,0.08465X0.06299*%
%ADD25R,0.08465X0.03543*%
%ADD26R,0.08465X0.12795*%
%ADD27R,0.01968X0.04134*%
%ADD28R,0.11024X0.11417*%
%ADD29O,0.02362X0.05709*%
%ADD30R,0.13425X0.09921*%
%ADD31O,0.00866X0.05315*%
%ADD32O,0.05906X0.02362*%
%ADD33O,0.01772X0.03347*%
%ADD34R,0.02362X0.03937*%
%ADD63C,0.01968*%
%ADD64C,0.03937*%
%ADD65C,0.05906*%
%ADD66C,0.07874*%
%ADD67C,0.06000*%
%ADD68R,0.06000X0.06000*%
%ADD69R,0.06000X0.06000*%
%ADD70C,0.03937*%
%ADD71C,0.02362*%
%ADD72C,0.11811*%
G36*
X350787Y264567D02*
X352362Y262992D01*
Y257087D01*
X350787Y255512D01*
X238976Y255512D01*
X237795Y256693D01*
Y263386D01*
X238976Y264567D01*
X350787Y264567D01*
D02*
G37*
G36*
X235433Y262402D02*
Y257480D01*
X233071Y255118D01*
X211417D01*
X209055Y257480D01*
Y262205D01*
X211417Y264567D01*
X232835D01*
X235433Y262402D01*
D02*
G37*
G36*
X203150Y263386D02*
Y256338D01*
X199606Y254724D01*
X123622D01*
Y250984D01*
X115748D01*
Y254724D01*
X70079D01*
X68466Y256338D01*
Y263031D01*
X70395Y264961D01*
X200394D01*
X203150Y263386D01*
D02*
G37*
G36*
X351993Y252731D02*
Y246481D01*
X351181Y245669D01*
X345276D01*
X344094Y246850D01*
Y252756D01*
X344882Y253543D01*
X351181D01*
X351993Y252731D01*
D02*
G37*
G36*
X351181Y224016D02*
X350492Y223327D01*
X347662Y223327D01*
X347244Y223745D01*
X347244Y231102D01*
X351181D01*
X351181Y224016D01*
D02*
G37*
G36*
X368821Y232777D02*
Y228840D01*
X365277D01*
X357423Y220986D01*
X357336Y220986D01*
X348684Y221041D01*
X348664Y221061D01*
Y221974D01*
X353135D01*
X364490Y233329D01*
Y233564D01*
X368033D01*
X368821Y232777D01*
D02*
G37*
G36*
X346063Y238583D02*
Y236614D01*
X345966Y220474D01*
X345965Y220177D01*
X345768Y219980D01*
X345774Y219974D01*
X346213Y219974D01*
X346380D01*
X346380Y219974D01*
X346381Y219974D01*
X349001Y219974D01*
Y219121D01*
X348999Y219116D01*
X345768Y219094D01*
Y214862D01*
X345669Y195276D01*
X342913Y192520D01*
X337402D01*
X335039Y194882D01*
Y213887D01*
X335249Y214097D01*
X336004D01*
X336307Y214157D01*
X337146D01*
X337699Y214267D01*
X338168Y214581D01*
X338481Y215049D01*
X338591Y215602D01*
X338481Y216155D01*
X338168Y216624D01*
X337699Y216937D01*
X337146Y217048D01*
X336307D01*
X336004Y217108D01*
X335039D01*
Y218093D01*
X335707D01*
X336004Y218034D01*
X336307Y218094D01*
X337146D01*
X337699Y218204D01*
X338168Y218518D01*
X338481Y218986D01*
X338591Y219539D01*
X338481Y220092D01*
X338193Y220524D01*
X338481Y220955D01*
X338591Y221508D01*
X338481Y222061D01*
X338193Y222492D01*
X338481Y222923D01*
X338591Y223476D01*
X338481Y224029D01*
X338168Y224498D01*
X337699Y224812D01*
X337146Y224921D01*
X336307D01*
X336004Y224982D01*
X335039D01*
Y230709D01*
X333858Y231890D01*
X323228D01*
X322047Y233071D01*
Y235433D01*
X327559Y240945D01*
X344094D01*
X346063Y238583D01*
D02*
G37*
G36*
X277547Y232304D02*
Y227165D01*
X274803Y225984D01*
Y209842D01*
X274410Y209449D01*
X272835Y209457D01*
X272441Y209851D01*
Y214961D01*
X271654Y215748D01*
X269693Y215748D01*
X268110Y217331D01*
Y222056D01*
X264173Y225993D01*
Y230323D01*
X264961Y231111D01*
X271654D01*
X273228Y232685D01*
X277165D01*
X277547Y232304D01*
D02*
G37*
G36*
X159449Y241142D02*
Y236221D01*
X175197D01*
X177165Y233268D01*
X182087D01*
X183071Y232283D01*
X185039D01*
X186221Y231102D01*
Y227563D01*
X207677Y227362D01*
X209055Y225984D01*
Y222830D01*
X207677Y221451D01*
X202596D01*
X198819Y217520D01*
X187992D01*
X177165Y206693D01*
X173228Y207677D01*
Y225394D01*
X172244Y226378D01*
X171326D01*
X171161Y226411D01*
X170997Y226378D01*
X168767D01*
X168602Y226411D01*
X168438Y226378D01*
X166208D01*
X166043Y226411D01*
X165878Y226378D01*
X163649D01*
X163484Y226411D01*
X163320Y226378D01*
X162402D01*
X161417Y225394D01*
X161417Y203740D01*
X160433Y202756D01*
X153543D01*
X152559Y203740D01*
Y219488D01*
X150591Y220472D01*
X121063D01*
Y228346D01*
X125394Y232677D01*
X149606D01*
X150787Y233858D01*
Y241339D01*
X152559Y243110D01*
X157480D01*
X159449Y241142D01*
D02*
G37*
G36*
X365354Y210236D02*
X368898D01*
Y206299D01*
X368110Y205512D01*
X364567D01*
Y205747D01*
X353212Y217102D01*
X348741D01*
Y218015D01*
X348761Y218035D01*
X357413Y218090D01*
X357500Y218091D01*
X365354Y210236D01*
D02*
G37*
G36*
X271260Y214173D02*
Y203543D01*
X267323D01*
Y214173D01*
X267717Y214567D01*
X270866D01*
X271260Y214173D01*
D02*
G37*
G36*
X288976Y231890D02*
X288976Y196063D01*
X286614Y192126D01*
Y185827D01*
X285039Y184252D01*
X280709D01*
X278740Y186221D01*
Y207087D01*
X275984Y209842D01*
Y224410D01*
X276772Y225197D01*
X279134D01*
X280709Y226772D01*
Y231890D01*
X281102Y232283D01*
X288583D01*
X288976Y231890D01*
D02*
G37*
G36*
X350492Y215748D02*
X351969Y214173D01*
Y191404D01*
X354331Y189436D01*
X354331Y185531D01*
X352658Y183858D01*
X348721D01*
X347047Y185039D01*
Y215354D01*
X347539Y215748D01*
X350492Y215748D01*
D02*
G37*
G36*
X340551Y251969D02*
Y246063D01*
X339764Y245276D01*
X324803Y245276D01*
X315748Y236221D01*
Y220079D01*
Y213779D01*
X325984D01*
X328346Y211417D01*
Y184252D01*
X326378Y181890D01*
X292913D01*
X290551Y184252D01*
Y233071D01*
X289370Y234252D01*
X273622D01*
X272441Y235433D01*
Y240551D01*
X274016Y241732D01*
X283858D01*
X285039Y242913D01*
Y252362D01*
X286221Y253543D01*
X338976D01*
X340551Y251969D01*
D02*
G37*
G36*
X30315Y175591D02*
Y164173D01*
X31496Y162992D01*
X41339D01*
X45276Y159055D01*
X139370D01*
X143307Y162992D01*
X148556D01*
X148721Y162959D01*
X148885Y162992D01*
X151115D01*
X151279Y162959D01*
X151444Y162992D01*
X153674D01*
X153839Y162959D01*
X154003Y162992D01*
X156233D01*
X156398Y162959D01*
X156562Y162992D01*
X158792D01*
X158957Y162959D01*
X159122Y162992D01*
X161351D01*
X161516Y162959D01*
X161680Y162992D01*
X163910D01*
X164075Y162959D01*
X164240Y162992D01*
X166469D01*
X166634Y162959D01*
X166799Y162992D01*
X172047D01*
X172441Y162598D01*
Y157874D01*
X170472Y155905D01*
X27953D01*
X25591Y158268D01*
Y175591D01*
X26772Y176772D01*
X29134D01*
X30315Y175591D01*
D02*
G37*
G36*
X325197Y173622D02*
Y159055D01*
X320866Y154724D01*
X315354D01*
X309842Y160236D01*
Y163779D01*
X308661Y164961D01*
X296850D01*
X294882Y162992D01*
Y112992D01*
X293307Y111417D01*
X272047D01*
X261024Y122441D01*
Y154724D01*
X264173Y157874D01*
X266929D01*
X269291Y160236D01*
X269291Y169291D01*
X275197Y175197D01*
X323622D01*
X325197Y173622D01*
D02*
G37*
G36*
X205798Y196457D02*
X222047D01*
X223228Y195276D01*
Y188583D01*
X262992D01*
X264567Y185827D01*
X245654Y166142D01*
X203150D01*
X186221Y149213D01*
X177165D01*
X175984Y150394D01*
Y164501D01*
X176017Y164665D01*
Y168799D01*
X175984Y168964D01*
Y169685D01*
X174016Y171653D01*
X169291D01*
X168139Y172806D01*
Y182789D01*
X177024Y192520D01*
X192913D01*
X194095Y193701D01*
Y200787D01*
X195276Y201969D01*
X200787D01*
X205798Y196457D01*
D02*
G37*
G36*
X101969Y116929D02*
X77559Y92520D01*
X59252D01*
Y99213D01*
X53347D01*
Y92520D01*
X29921D01*
Y101575D01*
X48031Y119685D01*
X100394D01*
X101969Y116929D01*
D02*
G37*
G36*
X375590Y153150D02*
Y133465D01*
X373622Y131496D01*
X349213D01*
X346850Y129134D01*
Y124803D01*
X349213Y122441D01*
X368504D01*
X370866Y120079D01*
Y107480D01*
X371654Y106693D01*
X375984D01*
X377510Y105167D01*
Y91684D01*
X376378Y90551D01*
X370866D01*
X325197Y136221D01*
Y145669D01*
X329528Y150000D01*
X341339D01*
X347638Y156299D01*
X372441D01*
X375590Y153150D01*
D02*
G37*
G36*
X391732Y192126D02*
Y89139D01*
X391339Y88976D01*
X387795D01*
Y137008D01*
X384252Y140551D01*
Y162992D01*
X383071Y164173D01*
X378346D01*
X376378Y166142D01*
Y172441D01*
X374803Y174016D01*
X368898D01*
X366929Y176640D01*
Y190617D01*
X368898Y192913D01*
X390945D01*
X391732Y192126D01*
D02*
G37*
G36*
X212598Y67323D02*
X211024Y65748D01*
X195623D01*
X194488Y66883D01*
Y92520D01*
X208661Y106693D01*
X212598D01*
Y67323D01*
D02*
G37*
G36*
X205512Y117323D02*
X187795Y99606D01*
X159449D01*
X133858Y74016D01*
Y53150D01*
X115354D01*
X110236Y48031D01*
Y32677D01*
X102756Y25197D01*
X53150D01*
X48425Y29921D01*
Y33858D01*
X50000Y35433D01*
X93307D01*
X100000Y42126D01*
Y84646D01*
X135039Y119685D01*
X205512Y119685D01*
Y117323D01*
D02*
G37*
G36*
X186392Y91167D02*
Y75762D01*
X185827Y75197D01*
X177165D01*
X176378Y74410D01*
Y70472D01*
X172835Y66929D01*
X169291D01*
X168110Y66043D01*
Y64647D01*
X168036Y64272D01*
X168110Y63897D01*
Y59249D01*
X168072Y59055D01*
X168110Y58861D01*
Y56690D01*
X168072Y56496D01*
X168110Y56302D01*
Y51572D01*
X168072Y51378D01*
X168110Y51184D01*
Y49013D01*
X168072Y48819D01*
X168110Y48625D01*
Y46454D01*
X168072Y46260D01*
X168110Y46066D01*
Y43895D01*
X168072Y43701D01*
X168110Y43507D01*
Y40551D01*
X169291Y39370D01*
X177362D01*
X179003Y41339D01*
X214567Y41339D01*
X215748Y40157D01*
Y27953D01*
X205906Y18110D01*
X131890D01*
X125984Y24016D01*
Y38583D01*
X126772Y39370D01*
X151181D01*
X152362Y40551D01*
Y46124D01*
X152389Y46260D01*
X152362Y46395D01*
Y48683D01*
X152389Y48819D01*
X152362Y48954D01*
Y51243D01*
X152389Y51378D01*
X152362Y51513D01*
Y53802D01*
X152389Y53937D01*
X152385Y53960D01*
X153543Y55118D01*
X156299D01*
X161811Y60630D01*
Y66142D01*
X164173Y68504D01*
Y74410D01*
X163386Y75197D01*
X151181D01*
X150000Y76378D01*
Y79239D01*
X162665Y91904D01*
X185655D01*
X186392Y91167D01*
D02*
G37*
G36*
X391732Y43307D02*
Y9843D01*
X386811D01*
Y20472D01*
X370005Y38979D01*
X320139Y38974D01*
X319948Y39436D01*
X354331Y73819D01*
X386024D01*
X387205Y75295D01*
Y88583D01*
X391732D01*
Y43307D01*
D02*
G37*
G36*
X16535Y242520D02*
Y229921D01*
X18110Y228346D01*
X93307D01*
X94882Y227165D01*
Y222047D01*
X97020Y219909D01*
Y216142D01*
X97127Y215604D01*
X97244Y215429D01*
Y213386D01*
X95276Y211417D01*
X40157D01*
X31496Y202756D01*
Y192520D01*
X18110Y179134D01*
X16929D01*
Y154724D01*
X23228Y148425D01*
X143307D01*
X144095Y147972D01*
Y138583D01*
X140945Y135433D01*
X122441D01*
X118831Y131823D01*
X118266Y131497D01*
X117716Y130947D01*
X117390Y130382D01*
X116142Y129134D01*
Y128740D01*
X44488D01*
X6693Y90945D01*
Y40945D01*
X8268Y39370D01*
X28740D01*
X32283Y35827D01*
Y24409D01*
X50000Y6693D01*
X105118D01*
X105905Y7480D01*
Y11811D01*
X107480Y13386D01*
X196457D01*
X198819Y11024D01*
Y-15748D01*
X197507Y-17323D01*
X2362D01*
Y242520D01*
X4331Y244488D01*
X14567D01*
X16535Y242520D01*
D02*
G37*
%LPC*%
G36*
X16427Y2953D02*
X15069D01*
X13738Y2688D01*
X12484Y2169D01*
X11356Y1415D01*
X10396Y455D01*
X9642Y-673D01*
X9123Y-1927D01*
X8858Y-3258D01*
Y-4616D01*
X9123Y-5947D01*
X9642Y-7201D01*
X10396Y-8329D01*
X11356Y-9289D01*
X12484Y-10043D01*
X13738Y-10562D01*
X15069Y-10827D01*
X16427D01*
X17758Y-10562D01*
X19012Y-10043D01*
X20140Y-9289D01*
X21100Y-8329D01*
X21854Y-7201D01*
X22373Y-5947D01*
X22638Y-4616D01*
Y-3258D01*
X22373Y-1927D01*
X21854Y-673D01*
X21100Y455D01*
X20140Y1415D01*
X19012Y2169D01*
X17758Y2688D01*
X16427Y2953D01*
D02*
G37*
%LPD*%
D10*
X90563Y225984D02*
X91744Y227165D01*
X89764Y225984D02*
X90563D01*
X330891Y187402D02*
X350630D01*
X330315Y187978D02*
X330891Y187402D01*
X330315Y187978D02*
Y211291D01*
X334626Y215602D01*
X319685Y236221D02*
X327165Y243701D01*
X349213D01*
X18307Y81299D02*
X24213D01*
X18287Y79941D02*
X23819Y74410D01*
X18287Y81279D02*
X18307Y81299D01*
X18287Y79941D02*
Y81279D01*
X24213Y81299D02*
X24409Y81496D01*
X17717Y81299D02*
X18307D01*
X169193Y172134D02*
X170571Y173512D01*
X169193Y166732D02*
Y172134D01*
X170571Y173512D02*
Y174311D01*
X161417Y182677D02*
X164075Y180020D01*
X161417Y182677D02*
Y187402D01*
X164075Y166732D02*
Y180020D01*
X166634Y166732D02*
Y186110D01*
X167520Y186996D01*
Y187795D01*
X153556Y198893D02*
X154418Y198031D01*
X155217D01*
X153470Y198893D02*
X153556D01*
X148734Y203628D02*
X153470Y198893D01*
X155315Y186603D02*
Y187402D01*
Y186603D02*
X156077Y185841D01*
Y185571D02*
Y185841D01*
Y185571D02*
X156299Y185349D01*
Y184252D02*
X156322Y184229D01*
X156299Y184252D02*
Y185349D01*
X156322Y166808D02*
Y184229D01*
X171161Y202264D02*
Y222638D01*
X167323Y198425D02*
X171161Y202264D01*
X148734Y203628D02*
Y206777D01*
X140551Y187992D02*
X141339D01*
X137657Y200925D02*
X140551Y198031D01*
X137657Y200925D02*
Y215256D01*
X141339Y187992D02*
X151279Y178051D01*
X38976Y175272D02*
X39000Y175249D01*
X46378Y161890D02*
X101181D01*
X151279Y166732D02*
Y178051D01*
X168602Y235728D02*
X168898Y235433D01*
X168602Y235728D02*
Y240354D01*
X163386Y235433D02*
X163484Y235531D01*
Y240354D01*
X215132Y110374D02*
Y111640D01*
X215354Y59842D02*
Y110152D01*
X212008Y56496D02*
X215354Y59842D01*
X214567Y112205D02*
X215132Y111640D01*
Y110374D02*
X215354Y110152D01*
X174030Y173214D02*
X177165Y170079D01*
X171752Y171752D02*
X173214Y173214D01*
X171752Y166732D02*
Y171752D01*
X173214Y173214D02*
X174030D01*
X171752Y162303D02*
Y166732D01*
X169118Y161637D02*
X169694Y161061D01*
X169118Y161637D02*
Y166657D01*
X170510Y161061D02*
X171752Y162303D01*
X169694Y161061D02*
X170510D01*
X169118Y166657D02*
X169193Y166732D01*
X191230Y189872D02*
X191339Y189764D01*
X190945Y157087D02*
Y189370D01*
X191339Y189764D01*
X191230Y189872D02*
Y195093D01*
X191220Y195103D02*
X191230Y195093D01*
X219094Y220622D02*
X219094Y220622D01*
X44488Y158268D02*
X141732D01*
X146161Y162697D02*
Y166732D01*
X141732Y158268D02*
X146161Y162697D01*
X146850Y162205D02*
X148119D01*
X147824Y162500D02*
X148119Y162205D01*
X91744Y227165D02*
X96457D01*
X96457Y227024D02*
X96516Y227083D01*
X96457Y227165D02*
X96457Y227165D01*
Y224705D02*
Y227165D01*
X96516Y227083D02*
Y227720D01*
X97634Y228839D01*
X239370Y136614D02*
X265748Y162992D01*
X239370Y55512D02*
Y136614D01*
X203543Y162992D02*
X238976D01*
X187795Y147244D02*
X203543Y162992D01*
X269685Y108268D02*
X334646D01*
X353431Y85230D02*
Y89482D01*
X334646Y108268D02*
X353431Y89482D01*
Y85230D02*
X354016Y84646D01*
X358549Y85112D02*
Y89482D01*
X329921Y118110D02*
X358549Y89482D01*
Y85112D02*
X359016Y84646D01*
X317323Y118110D02*
X329921D01*
X367736Y85925D02*
Y88957D01*
X318583Y138110D02*
X367736Y88957D01*
X317323Y138110D02*
X318583D01*
X367736Y85925D02*
X369016Y84646D01*
X362952Y85709D02*
X364016Y84646D01*
X324252Y128110D02*
X362952Y89410D01*
X317323Y128110D02*
X324252D01*
X362952Y85709D02*
Y89410D01*
X387795Y161614D02*
Y168898D01*
X387008Y160827D02*
X387795Y161614D01*
X120079Y129921D02*
X123228Y133071D01*
X141732D02*
X148721Y140059D01*
X123228Y133071D02*
X141732D01*
X74398Y95669D02*
X75973Y94095D01*
X76772D01*
X64173Y95669D02*
X74398D01*
X137795Y81496D02*
X138583D01*
X134758Y78459D02*
X137795Y81496D01*
X91339Y89370D02*
X119291Y117323D01*
X91339Y44488D02*
Y89370D01*
X89764Y42913D02*
X91339Y44488D01*
X53150Y42913D02*
X89764D01*
X49606Y46457D02*
Y68543D01*
Y46457D02*
X53150Y42913D01*
X179463Y61614D02*
X180939Y63091D01*
X171845Y61614D02*
X179463D01*
X153347Y41142D02*
X153543Y41339D01*
X148616Y41142D02*
X153347D01*
X129345Y37795D02*
X142730D01*
X153937Y43701D02*
X154331Y44094D01*
X148616Y43701D02*
X153937D01*
X167427Y41142D02*
X171845D01*
X166929Y40644D02*
X167427Y41142D01*
X166929Y40644D02*
X168104Y39469D01*
X166929Y40644D02*
Y53360D01*
X167506Y53937D01*
X171845D01*
X164150Y137031D02*
X170473Y130709D01*
X164150Y137031D02*
Y143429D01*
X170473Y130709D02*
X207874D01*
X168090Y153937D02*
X171737Y150291D01*
X23228Y157854D02*
X27145Y153937D01*
X168090D01*
X122047Y145669D02*
Y145747D01*
X124037Y147736D01*
X164972D01*
X19291Y155905D02*
X24409Y150787D01*
X165748D01*
X169193Y147343D01*
X171845Y56496D02*
X212008D01*
X180512Y151181D02*
X185039D01*
X190945Y157087D01*
X311417Y217717D02*
X311811Y217323D01*
X38976Y169291D02*
Y173344D01*
Y169291D02*
X46378Y161890D01*
X48327Y161713D02*
Y165847D01*
X34843Y160236D02*
X36024Y161417D01*
X41339D01*
X44488Y158268D01*
X34252Y160236D02*
X34843D01*
X19291Y155905D02*
Y176772D01*
X23228Y175995D02*
X36501Y189267D01*
X23228Y157854D02*
Y175995D01*
X49803Y167323D02*
X50394D01*
X19291Y176772D02*
X33957Y191437D01*
X106284Y205113D02*
X111009Y209838D01*
X42505Y205113D02*
X106284D01*
X111009Y209838D02*
Y233086D01*
X36501Y199109D02*
X42505Y205113D01*
X134758Y75492D02*
Y78459D01*
X133282Y74016D02*
X134758Y75492D01*
X133282Y66929D02*
Y74016D01*
X120079Y129134D02*
Y129921D01*
X119291Y117323D02*
X120079D01*
X151181Y138976D02*
Y143405D01*
X127559Y129134D02*
X141339D01*
X151181Y138976D01*
X171827Y140358D02*
Y143409D01*
Y140358D02*
X173607Y138578D01*
X169193Y138176D02*
X172723Y134646D01*
X211417D02*
X218504Y141732D01*
X172723Y134646D02*
X211417D01*
X164972Y147736D02*
X166240Y146468D01*
Y146071D02*
Y146468D01*
Y146071D02*
X166634Y145677D01*
Y143504D02*
Y145677D01*
X169193Y144291D02*
Y147343D01*
X177165Y154724D02*
Y170079D01*
Y154724D02*
X179035Y152854D01*
Y152657D02*
X180512Y151181D01*
X179035Y152657D02*
Y152854D01*
X122441Y48819D02*
X148616D01*
X255118Y122835D02*
X269685Y108268D01*
X255118Y122835D02*
Y133998D01*
X176378Y147244D02*
X187795D01*
X174311Y149311D02*
X176378Y147244D01*
X174311Y149311D02*
Y166732D01*
X236305Y35827D02*
X366702D01*
X233155Y38976D02*
X236305Y35827D01*
X366702D02*
X383305Y19224D01*
X239370Y39370D02*
X239665Y39075D01*
X314665D01*
X352362Y76772D01*
X372047D01*
X374016Y78740D01*
Y84646D01*
X171845Y43701D02*
X312992D01*
X233071Y38976D02*
X233155D01*
X226772D02*
X233071Y32677D01*
X364567D02*
X378020Y19224D01*
X233071Y32677D02*
X364567D01*
X242321Y29921D02*
X353310D01*
X228819Y16419D02*
X242321Y29921D01*
X353310D02*
X363828Y19404D01*
X389016Y14567D02*
X389764Y13819D01*
X389016Y84646D02*
X389764Y85394D01*
X383305Y15278D02*
Y19224D01*
Y15278D02*
X384016Y14567D01*
X378020Y15562D02*
X379016Y14567D01*
X378020Y15562D02*
Y19224D01*
X23819Y74410D02*
X24409D01*
X378740Y168701D02*
Y169291D01*
Y168701D02*
X380217Y167224D01*
X380610D01*
X387008Y160827D01*
Y160236D02*
Y160827D01*
X361122Y151181D02*
X363583D01*
X370472Y144291D01*
Y134252D02*
Y144291D01*
X358701Y137165D02*
X360876Y134990D01*
X100394Y251181D02*
Y257297D01*
X97634Y228839D02*
X99216D01*
X100335Y227720D01*
Y226772D02*
Y227720D01*
Y226772D02*
X100394Y226713D01*
Y224705D02*
Y226713D01*
X33775Y175197D02*
X33957Y175379D01*
Y175787D01*
X64961Y190945D02*
Y192717D01*
X67323Y174409D02*
X67323Y174409D01*
X67323Y167717D02*
Y174409D01*
X49606Y68543D02*
X52657Y71594D01*
X54429D01*
X169193Y138176D02*
Y143504D01*
X41732Y208661D02*
X104724D01*
X36501Y193519D02*
Y199109D01*
X33999Y200929D02*
X41732Y208661D01*
X98824Y235822D02*
X103154D01*
X33999Y194771D02*
Y200929D01*
X104724Y208661D02*
X107874Y211811D01*
Y231102D01*
X103154Y235822D02*
X107874Y231102D01*
X99903Y237790D02*
X106304D01*
X111009Y233086D01*
X163386Y201193D02*
Y220194D01*
X161417Y198425D02*
Y199224D01*
X163386Y201193D01*
Y222509D02*
X163409Y222486D01*
Y220217D02*
Y222486D01*
X163386Y220194D02*
X163409Y220217D01*
X147658Y207854D02*
X148734Y206777D01*
X147658Y207854D02*
Y215256D01*
X142657Y202618D02*
Y215256D01*
Y202618D02*
X147047Y198228D01*
X156322Y166808D02*
X156398Y166732D01*
X146850Y187992D02*
X153839Y181004D01*
Y166732D02*
Y181004D01*
X137795Y46260D02*
X148616D01*
X171845Y48819D02*
X307674D01*
X171845Y51378D02*
X305315D01*
X171845Y46260D02*
X309605D01*
X171845Y59055D02*
X197140D01*
X63583Y73228D02*
X70472D01*
X63484Y73130D02*
X63583Y73228D01*
X63484Y87303D02*
Y94784D01*
X28819Y74410D02*
X31004Y76594D01*
X24409Y74410D02*
X28819D01*
X148721Y140059D02*
Y143504D01*
X151181Y143405D02*
X151279Y143504D01*
X209434Y139385D02*
Y148410D01*
X207858Y138578D02*
X208650Y139370D01*
X171752Y143484D02*
X171827Y143409D01*
X173607Y138578D02*
X207858D01*
X208650Y139370D02*
X209439D01*
X333746Y84376D02*
X334016Y84646D01*
X333746Y79809D02*
Y84376D01*
X305315Y51378D02*
X333746Y79809D01*
X338664Y84294D02*
X339016Y84646D01*
X338664Y79809D02*
Y84294D01*
X307674Y48819D02*
X338664Y79809D01*
X343154D02*
Y83783D01*
X344016Y84646D01*
X309605Y46260D02*
X343154Y79809D01*
X349016Y79724D02*
Y84646D01*
X312992Y43701D02*
X349016Y79724D01*
X39075Y189665D02*
Y193504D01*
X42520Y186221D02*
X50394D01*
X39075Y189665D02*
X42520Y186221D01*
X96457Y238189D02*
X98824Y235822D01*
X98484Y239209D02*
Y240059D01*
Y239209D02*
X99903Y237790D01*
X171737Y143519D02*
Y150291D01*
X36501Y189267D02*
Y193489D01*
X164075Y143504D02*
X164150Y143429D01*
X218504Y141732D02*
Y148425D01*
X232874Y55709D02*
Y126969D01*
X232677Y127165D02*
X232874Y126969D01*
Y55709D02*
X233071Y55512D01*
X226772D02*
Y122441D01*
X249959Y27559D02*
X345533D01*
X353197Y19896D01*
X363828Y14755D02*
X364016Y14567D01*
X353197Y15386D02*
Y19896D01*
X363828Y14755D02*
Y19404D01*
X353197Y15386D02*
X354016Y14567D01*
X197632Y59547D02*
X204522D01*
X197140Y59055D02*
X197632Y59547D01*
X142730Y40157D02*
Y43124D01*
X128557Y37008D02*
X129345Y37795D01*
X142730Y40157D02*
X143715Y41142D01*
X142730Y43124D02*
X143307Y43701D01*
X142730Y37795D02*
Y40157D01*
X134062Y57276D02*
X136727Y59941D01*
X133282Y57973D02*
Y66929D01*
Y57973D02*
X133978Y57276D01*
X134062D01*
X141156Y55413D02*
X142632Y53937D01*
X141156Y55413D02*
Y55905D01*
X166431Y37795D02*
X168104Y39469D01*
X142730Y37795D02*
X166431D01*
X145200Y59131D02*
X148541D01*
X148616Y59055D01*
X144390Y59941D02*
X145200Y59131D01*
X136727Y59941D02*
X144390D01*
X142632Y53937D02*
X148616D01*
X118701Y51378D02*
X148616D01*
X143307Y43701D02*
X148616D01*
X143715Y41142D02*
X148616D01*
X262598Y22441D02*
X340551D01*
X258661Y18504D02*
X262598Y22441D01*
X226772Y-3150D02*
X234252Y4331D01*
X225433Y-3150D02*
X226772D01*
X234252Y4331D02*
X243090D01*
X248819Y10060D01*
Y16419D01*
X228819Y11417D02*
Y16419D01*
X238819D02*
X249959Y27559D01*
X238819Y11417D02*
Y16419D01*
X248819D02*
X257596Y25197D01*
X342896D01*
X245433Y-3150D02*
X246118Y-2465D01*
X249110D02*
X271555Y19980D01*
X246118Y-2465D02*
X249110D01*
X271555Y19980D02*
X328439D01*
X255433Y-3150D02*
X256393Y-2190D01*
X258440D01*
X269291Y8661D01*
X310907D01*
X33957Y191437D02*
Y193504D01*
X302882Y159449D02*
X304331D01*
X304724Y159055D01*
X362992Y127165D02*
X369685D01*
X362205Y126378D02*
X362992Y127165D01*
X369685D02*
X371949Y124902D01*
X351969Y127165D02*
X361417D01*
X362205Y126378D01*
X371949Y124902D02*
X372736D01*
X375197Y118307D02*
Y122441D01*
X372736Y124902D02*
X375197Y122441D01*
X351969Y137165D02*
X358701D01*
X375197Y111024D02*
Y118307D01*
Y110433D02*
Y111024D01*
Y110433D02*
X379016Y106614D01*
Y84646D02*
Y106614D01*
X328439Y19980D02*
X329016Y19404D01*
Y14567D02*
Y19404D01*
X342896Y25197D02*
X348689Y19404D01*
X340551Y22441D02*
X343588Y19404D01*
Y14994D02*
X344016Y14567D01*
X343588Y14994D02*
Y19404D01*
X348689Y14894D02*
Y19404D01*
Y14894D02*
X349016Y14567D01*
X273701Y5118D02*
X314567D01*
X265433Y-3150D02*
X273701Y5118D01*
X314567D02*
X318980Y9531D01*
X312736Y13287D02*
X314016Y14567D01*
X312736Y10491D02*
Y13287D01*
X310907Y8661D02*
X312736Y10491D01*
X318980Y9531D02*
Y14531D01*
X319016Y14567D01*
X353858Y3937D02*
X369094D01*
X346772Y-3150D02*
X353858Y3937D01*
X369094D02*
X372736Y7579D01*
X347795Y7874D02*
X367053D01*
X368909Y9730D01*
X336772Y-3150D02*
X347795Y7874D01*
X368909Y14460D02*
X369016Y14567D01*
X368909Y9730D02*
Y14460D01*
X372736Y7579D02*
Y13287D01*
X374016Y14567D01*
X319685Y227781D02*
Y236221D01*
X328248Y224902D02*
X329429Y223721D01*
X332185Y219587D02*
X333071Y220472D01*
X329429Y219587D02*
X332185D01*
X327953Y218110D02*
X329429Y219587D01*
X332185Y223721D02*
X333071Y222835D01*
X329429Y223721D02*
X332185D01*
X327953Y225197D02*
X328248Y224902D01*
X333071Y221654D02*
Y222835D01*
Y220472D02*
Y221654D01*
Y222835D02*
X333713Y223476D01*
X336004D01*
X333071Y221654D02*
X333217Y221508D01*
X336004D01*
X333071Y220472D02*
X333945Y219599D01*
X335945D01*
X336004Y219539D01*
X327953Y225197D02*
X328543D01*
X275197Y229528D02*
X275591Y229921D01*
X266683Y224803D02*
X267717D01*
X241890Y259842D02*
X348031D01*
X279850Y199311D02*
X282508Y201969D01*
X283445Y201555D02*
X283571Y201429D01*
X277343Y223476D02*
X277835Y223969D01*
X283445Y201555D02*
Y228398D01*
X279016Y223969D02*
X283445Y228398D01*
X277343Y222394D02*
Y223476D01*
X283071Y228937D02*
Y229528D01*
X277835Y223969D02*
X279016D01*
X282508Y201969D02*
X283591D01*
X267571Y201429D02*
X269862Y203720D01*
X171161Y238765D02*
Y240354D01*
Y238765D02*
X171343Y238583D01*
X179528D01*
X165968Y240430D02*
Y243087D01*
X148563Y244685D02*
X164370D01*
X165968Y243087D01*
Y240430D02*
X166043Y240354D01*
X165748Y256693D02*
X171161Y251279D01*
Y240354D02*
Y251279D01*
X334626Y215602D02*
X336004D01*
X348799Y199039D02*
X348996Y199235D01*
X210914Y231802D02*
X211574D01*
X196457Y231646D02*
X198031D01*
X196457D02*
X198031D01*
X210827Y231890D02*
X210914Y231802D01*
X196457Y231646D02*
X198031D01*
X189370Y257297D02*
X189947Y257874D01*
X200517D01*
X96457Y238189D02*
Y242224D01*
X100394D02*
Y250787D01*
X34646Y168504D02*
X35433Y169291D01*
X38976D01*
X48327Y165847D02*
X49803Y167323D01*
X39000Y173367D02*
Y175249D01*
X38976Y173344D02*
X39000Y173367D01*
X100000Y251181D02*
X100394Y250787D01*
X75276Y257874D02*
X99817D01*
X100394Y257297D01*
X75276Y257874D02*
X78740Y254410D01*
X73307Y259842D02*
X75276Y257874D01*
X142264Y238779D02*
X148169Y244685D01*
X142264Y237106D02*
Y238779D01*
X219094Y202906D02*
Y213142D01*
X218307Y202118D02*
X219094Y202906D01*
X191122Y204707D02*
X191486Y205071D01*
X199606D01*
X191122Y204283D02*
Y204707D01*
X203150Y202118D02*
X210433D01*
X199606Y205071D02*
X200197D01*
X203150Y202118D01*
D12*
X67126Y233661D02*
X101128D01*
X104331Y230458D01*
X64961Y235827D02*
X67126Y233661D01*
X43110Y231102D02*
X101181D01*
X102303Y229980D01*
X37992Y236221D02*
X43110Y231102D01*
X102303Y223721D02*
Y229980D01*
X104331Y225492D02*
Y230458D01*
X37795Y38976D02*
Y68346D01*
X37402Y38583D02*
X37795Y38976D01*
X50394Y38583D02*
X91732D01*
X96457Y43307D01*
Y86614D01*
X127165Y117323D01*
X138976Y170144D02*
X141274Y172441D01*
X146457D01*
X138976Y169291D02*
Y170144D01*
X114961Y169291D02*
X126772D01*
X108268Y175984D02*
X114961Y169291D01*
X101969Y200787D02*
X105636Y197120D01*
X108268Y175984D02*
Y194488D01*
X105636Y197120D02*
X108268Y194488D01*
X105636Y197120D02*
X105636D01*
X146457Y172441D02*
X148678Y170220D01*
Y166775D02*
Y170220D01*
Y166775D02*
X148721Y166732D01*
X98425Y216142D02*
X101969Y212598D01*
X98425Y216142D02*
Y224705D01*
X152750Y63317D02*
Y71949D01*
X148729Y61727D02*
X151160D01*
X152750Y63317D01*
X152356Y72343D02*
X152750Y71949D01*
X160230Y61516D02*
Y72343D01*
X148616Y61614D02*
X148729Y61727D01*
X155324Y56609D02*
X160230Y61516D01*
X148729Y56609D02*
X155324D01*
X148616Y56496D02*
X148729Y56609D01*
X311181Y-3150D02*
X324016Y9685D01*
Y14567D01*
X36629Y179542D02*
X38583Y181496D01*
X62402D02*
X63976Y183071D01*
X38583Y181496D02*
X62402D01*
X36516Y175787D02*
X36629Y175900D01*
Y179542D01*
X63976Y183071D02*
X64567D01*
X41634Y175760D02*
X47231D01*
X50000Y175984D02*
X50788Y175197D01*
X51181Y175591D02*
X58661D01*
X24606Y236347D02*
Y240283D01*
X37402Y236221D02*
X37992D01*
X32776Y71594D02*
X34547D01*
X37795Y68346D01*
X58106Y176090D02*
X58445Y176429D01*
D13*
X64961Y226378D02*
X66535D01*
X65551Y227362D02*
X66535Y226378D01*
D14*
X342500Y219539D02*
D03*
D15*
X336004Y215602D02*
D03*
Y217571D02*
D03*
Y219539D02*
D03*
Y221508D02*
D03*
Y223476D02*
D03*
X348996D02*
D03*
Y221508D02*
D03*
Y219539D02*
D03*
Y217571D02*
D03*
Y215602D02*
D03*
D16*
X50787Y185433D02*
D03*
Y193307D02*
D03*
X37402Y228346D02*
D03*
Y236221D02*
D03*
X218504Y156299D02*
D03*
Y148425D02*
D03*
X129134Y44882D02*
D03*
Y37008D02*
D03*
X137795Y44882D02*
D03*
Y37008D02*
D03*
X189370Y70866D02*
D03*
Y62992D02*
D03*
X197638Y68110D02*
D03*
Y60236D02*
D03*
X205118Y68110D02*
D03*
Y60236D02*
D03*
X180939Y70965D02*
D03*
Y63091D02*
D03*
X58661Y20079D02*
D03*
Y27953D02*
D03*
X84646D02*
D03*
Y20079D02*
D03*
X181102Y151181D02*
D03*
Y143307D02*
D03*
X362205Y134252D02*
D03*
Y126378D02*
D03*
X370472Y126378D02*
D03*
Y134252D02*
D03*
X267717Y237008D02*
D03*
Y229134D02*
D03*
X123622Y214173D02*
D03*
Y222047D02*
D03*
X64961Y227362D02*
D03*
Y235236D02*
D03*
Y183071D02*
D03*
Y190945D02*
D03*
X34252Y168110D02*
D03*
Y160236D02*
D03*
X84646Y4331D02*
D03*
Y12205D02*
D03*
X24409Y81496D02*
D03*
Y89370D02*
D03*
Y74410D02*
D03*
Y66535D02*
D03*
X63484Y73130D02*
D03*
Y65256D02*
D03*
X63386Y79921D02*
D03*
Y87795D02*
D03*
X58661Y11811D02*
D03*
Y3937D02*
D03*
X179528Y238583D02*
D03*
Y230709D02*
D03*
X101181Y173228D02*
D03*
Y181102D02*
D03*
X50000Y174803D02*
D03*
Y166929D02*
D03*
X199606Y212992D02*
D03*
Y205118D02*
D03*
X209449Y148425D02*
D03*
Y156299D02*
D03*
D17*
X219291Y213583D02*
D03*
Y221063D02*
D03*
X209842Y217323D02*
D03*
D18*
X163484Y240354D02*
D03*
X168602D02*
D03*
X171161D02*
D03*
X166043D02*
D03*
X163484Y222638D02*
D03*
X166043D02*
D03*
X171161D02*
D03*
X168602D02*
D03*
X146161Y166732D02*
D03*
X148721D02*
D03*
X151279D02*
D03*
X153839D02*
D03*
X156398D02*
D03*
X158957D02*
D03*
X161516D02*
D03*
X164075D02*
D03*
X166634D02*
D03*
X169193D02*
D03*
X171752D02*
D03*
X174311D02*
D03*
X146161Y143504D02*
D03*
X148721D02*
D03*
X151279D02*
D03*
X153839D02*
D03*
X156398D02*
D03*
X158957D02*
D03*
X161516D02*
D03*
X164075D02*
D03*
X166634D02*
D03*
X169193D02*
D03*
X171752D02*
D03*
X174311D02*
D03*
X33957Y193504D02*
D03*
X39075D02*
D03*
X41634D02*
D03*
X36516D02*
D03*
X33957Y175787D02*
D03*
X36516D02*
D03*
X41634D02*
D03*
X39075D02*
D03*
D19*
X309016Y14567D02*
D03*
X304016D02*
D03*
X299016D02*
D03*
X339016D02*
D03*
X334016D02*
D03*
X319016D02*
D03*
X314016D02*
D03*
X329016D02*
D03*
X324016D02*
D03*
X319016Y84646D02*
D03*
X314016D02*
D03*
X299016D02*
D03*
X309016D02*
D03*
X304016D02*
D03*
X344016D02*
D03*
X329016D02*
D03*
X324016D02*
D03*
X339016D02*
D03*
X334016D02*
D03*
X359016Y14567D02*
D03*
X369016D02*
D03*
X364016D02*
D03*
X344016D02*
D03*
X354016D02*
D03*
X349016D02*
D03*
X384016D02*
D03*
X389016D02*
D03*
X379016D02*
D03*
X374016D02*
D03*
X369016Y84646D02*
D03*
X364016D02*
D03*
X349016D02*
D03*
X359016D02*
D03*
X354016D02*
D03*
X389016D02*
D03*
X379016D02*
D03*
X374016D02*
D03*
X384016D02*
D03*
D20*
X357520Y55512D02*
D03*
D21*
X51181Y240283D02*
D03*
Y224284D02*
D03*
X78740Y224803D02*
D03*
Y240803D02*
D03*
X24606Y224284D02*
D03*
Y240283D02*
D03*
D22*
X349213Y207087D02*
D03*
X341339D02*
D03*
X133282Y66929D02*
D03*
X141156D02*
D03*
Y55905D02*
D03*
X133282D02*
D03*
X160236Y71653D02*
D03*
X152362D02*
D03*
X133282Y74016D02*
D03*
X141156D02*
D03*
X282283Y78347D02*
D03*
X274410D02*
D03*
Y68622D02*
D03*
X282283D02*
D03*
X282677Y99606D02*
D03*
X274803D02*
D03*
X101969Y20472D02*
D03*
X94095D02*
D03*
X67323Y20866D02*
D03*
X75197D02*
D03*
X387008Y160236D02*
D03*
X379134D02*
D03*
X383071Y102756D02*
D03*
X375197D02*
D03*
X383071Y94488D02*
D03*
X375197D02*
D03*
X383071Y111024D02*
D03*
X375197D02*
D03*
X327559Y217323D02*
D03*
X319685D02*
D03*
X275197Y229528D02*
D03*
X283071D02*
D03*
X327559Y225984D02*
D03*
X319685D02*
D03*
X341339Y232677D02*
D03*
X349213D02*
D03*
X341339Y199213D02*
D03*
X349213D02*
D03*
X148425Y207087D02*
D03*
X156299D02*
D03*
X138976Y245669D02*
D03*
X131102D02*
D03*
X97244Y250394D02*
D03*
X89370D02*
D03*
X378740Y169291D02*
D03*
X370866D02*
D03*
X64173Y95669D02*
D03*
X56299D02*
D03*
X67323Y11417D02*
D03*
X75197D02*
D03*
X94095Y11811D02*
D03*
X101969D02*
D03*
X59449Y174409D02*
D03*
X67323D02*
D03*
X190157Y241339D02*
D03*
X198031D02*
D03*
Y231890D02*
D03*
X190157D02*
D03*
X218307Y202118D02*
D03*
X210433D02*
D03*
D23*
X171845Y61614D02*
D03*
Y59055D02*
D03*
Y64173D02*
D03*
Y53937D02*
D03*
Y56496D02*
D03*
Y46260D02*
D03*
Y48819D02*
D03*
Y41142D02*
D03*
Y43701D02*
D03*
Y51378D02*
D03*
X148616Y53937D02*
D03*
Y48819D02*
D03*
Y51378D02*
D03*
Y61614D02*
D03*
Y64173D02*
D03*
Y56496D02*
D03*
Y59055D02*
D03*
Y46260D02*
D03*
Y41142D02*
D03*
Y43701D02*
D03*
D24*
X302882Y146063D02*
D03*
X286882D02*
D03*
X302882Y132677D02*
D03*
X286882D02*
D03*
X302882Y119291D02*
D03*
X286882D02*
D03*
X302882Y159449D02*
D03*
X286882D02*
D03*
X283591Y201969D02*
D03*
X267591D02*
D03*
X198693Y259842D02*
D03*
X214693D02*
D03*
D25*
X361122Y169291D02*
D03*
Y151181D02*
D03*
Y160236D02*
D03*
D26*
X338090D02*
D03*
D27*
X269862Y222394D02*
D03*
X277343D02*
D03*
X273602Y211961D02*
D03*
X269862D02*
D03*
X277343D02*
D03*
D28*
X245669Y229173D02*
D03*
Y199173D02*
D03*
X370059Y234539D02*
D03*
Y204539D02*
D03*
D29*
X147658Y215256D02*
D03*
X142657D02*
D03*
X137657D02*
D03*
X132658D02*
D03*
X137657Y236713D02*
D03*
X147658D02*
D03*
X142657D02*
D03*
X132658D02*
D03*
D30*
X140157Y225984D02*
D03*
D31*
X104331Y242224D02*
D03*
X102362D02*
D03*
X100394D02*
D03*
X98425D02*
D03*
X104331Y224705D02*
D03*
X102362D02*
D03*
X98425D02*
D03*
X96457D02*
D03*
X100394D02*
D03*
X96457Y242224D02*
D03*
D32*
X32776Y51594D02*
D03*
Y56594D02*
D03*
Y66594D02*
D03*
Y61594D02*
D03*
Y76594D02*
D03*
Y86594D02*
D03*
Y81594D02*
D03*
Y71594D02*
D03*
X54429Y66594D02*
D03*
Y76594D02*
D03*
Y71594D02*
D03*
Y51594D02*
D03*
Y61594D02*
D03*
Y56594D02*
D03*
Y86594D02*
D03*
Y81594D02*
D03*
D33*
X186004Y204283D02*
D03*
X191122D02*
D03*
Y195425D02*
D03*
X186004D02*
D03*
D34*
X214567Y241339D02*
D03*
X218307Y231890D02*
D03*
X210827D02*
D03*
D63*
X89370Y244488D02*
Y250394D01*
X328346Y154331D02*
Y178347D01*
X179528Y223228D02*
Y230709D01*
X318957Y84705D02*
Y93248D01*
X318898Y93307D02*
X318957Y93248D01*
Y84705D02*
X319016Y84646D01*
X205906Y68110D02*
Y101575D01*
X210630Y106299D01*
X63386Y192520D02*
X64961Y190945D01*
X51575Y192520D02*
X63386D01*
X50787Y193307D02*
X51575Y192520D01*
X58661Y-1969D02*
Y3937D01*
X375197Y94488D02*
Y102756D01*
X53329Y32694D02*
X58071Y27953D01*
X50787Y33071D02*
X51164Y32694D01*
X58071Y27953D02*
X58661D01*
X51164Y32694D02*
X53329D01*
X41339Y22047D02*
Y79331D01*
X39075Y81594D02*
X41339Y79331D01*
X51575Y11811D02*
X66943D01*
X41339Y22047D02*
X51575Y11811D01*
X190354Y63976D02*
X193138D01*
X196063Y66901D01*
X189370Y62992D02*
X190354Y63976D01*
X196063Y66901D02*
Y67126D01*
X197047Y68110D02*
X197638D01*
X196063Y67126D02*
X197047Y68110D01*
X189321Y63041D02*
X189370Y62992D01*
X180989Y63041D02*
X189321D01*
X180939Y63091D02*
X180989Y63041D01*
X170043Y64272D02*
X173327D01*
X27953Y174803D02*
X28329Y175180D01*
X33758D02*
X33775Y175197D01*
X28329Y175180D02*
X33758D01*
X132658Y214355D02*
Y215256D01*
X132476Y214173D02*
X132658Y214355D01*
X117717Y43701D02*
X122783Y48767D01*
X123228Y22807D02*
X130287Y15748D01*
X123228Y22807D02*
Y40602D01*
X126524Y43898D01*
X147638Y231299D02*
X147658Y231319D01*
Y236713D01*
X136811Y231299D02*
X137582Y232070D01*
Y236637D01*
X137657Y236713D01*
Y238492D01*
X138976Y239811D01*
Y245669D01*
X84646Y4331D02*
X92913D01*
X361122Y135236D02*
Y151181D01*
X317323Y158110D02*
Y163779D01*
X290000Y169134D02*
X311968D01*
X317323Y163779D01*
X286882Y159449D02*
Y166016D01*
X290000Y169134D01*
X285799Y159449D02*
X286882D01*
X262756Y130315D02*
X274776D01*
X285799Y119291D01*
X286882D01*
X265118Y132677D02*
X278504Y146063D01*
X265118Y132677D02*
X286882D01*
X278504Y146063D02*
X286882D01*
X262756Y136406D02*
X285799Y159449D01*
X262756Y130315D02*
Y136406D01*
X97244Y250394D02*
X98032Y251181D01*
X100000D01*
X58732Y48819D02*
X82441D01*
X56397Y51153D02*
X58732Y48819D01*
X82441D02*
X83071Y49449D01*
X56122Y61594D02*
X58284Y59433D01*
X54429Y61594D02*
X56122D01*
X58284Y59433D02*
X82300D01*
X56307Y56594D02*
X58588Y54314D01*
X62222D02*
X62598Y53937D01*
X54429Y56594D02*
X56307D01*
X58588Y54314D02*
X62222D01*
X128150Y43898D02*
X129134Y44882D01*
X126524Y43898D02*
X128150D01*
X128543Y44882D02*
X137795D01*
X130287Y15748D02*
X208268D01*
X143616Y64468D02*
X150046D01*
X117717Y28150D02*
Y43701D01*
X101969Y12402D02*
X117717Y28150D01*
X179035Y69980D02*
X179955D01*
X180939Y70965D01*
X173327Y64272D02*
X179035Y69980D01*
X142730Y65354D02*
X143616Y64468D01*
X141156Y66339D02*
Y66929D01*
Y66339D02*
X142140Y65354D01*
X142730D01*
X274409Y77559D02*
Y77851D01*
X262582Y78835D02*
X273425D01*
X274409Y77851D01*
X261811Y69606D02*
X273425D01*
X274410Y68504D02*
Y68622D01*
X273425Y69606D02*
X274410Y68622D01*
X261811Y79606D02*
X262582Y78835D01*
X261811Y99606D02*
X274803D01*
X320422Y77559D02*
X323228Y80366D01*
X282283Y77559D02*
X320422D01*
X323228Y80366D02*
Y83858D01*
X324016Y84646D01*
X316367Y68504D02*
X328228Y80366D01*
X282283Y68504D02*
X316367D01*
X328228Y83858D02*
X329016Y84646D01*
X328228Y80366D02*
Y83858D01*
X313228Y85433D02*
X314016Y84646D01*
X313228Y85433D02*
Y88926D01*
X302548Y99606D02*
X313228Y88926D01*
X282677Y99606D02*
X302548D01*
X82300Y59433D02*
X83071Y58661D01*
X55724Y86594D02*
X55905Y86776D01*
Y95669D01*
X54429Y86594D02*
X55724D01*
X54429Y51594D02*
X56094D01*
X56397Y51291D01*
Y51153D02*
Y51291D01*
X58661Y20079D02*
X66339D01*
X46063Y27559D02*
X53543Y20079D01*
X58661D01*
X65945Y19488D02*
X67323Y20866D01*
X66339Y20079D02*
X66825Y20565D01*
Y21063D01*
X46063Y27559D02*
Y78150D01*
X15354Y46693D02*
X25996D01*
X30897Y51594D01*
X20180Y61519D02*
X32700D01*
X15354Y56693D02*
X20180Y61519D01*
X25197Y56299D02*
X25344Y56447D01*
X32628D01*
X32776Y56594D01*
X56276Y76776D02*
Y77170D01*
X57551Y78445D01*
X56094Y76594D02*
X56276Y76776D01*
X54429Y76594D02*
X56094D01*
X57551Y78445D02*
X62500D01*
X24468Y66594D02*
X32776D01*
X24409Y89370D02*
X25000D01*
X25984Y88386D01*
Y87795D02*
Y88386D01*
Y87795D02*
X27185Y86594D01*
X32776D01*
X57551Y65256D02*
X63484D01*
X54429Y66594D02*
X56212D01*
X57551Y65256D01*
X62500Y78445D02*
X63484Y79429D01*
X112992Y46063D02*
X117947Y51017D01*
X112992Y31534D02*
Y46063D01*
X101969Y20472D02*
Y21063D01*
X102953Y22047D02*
X103505D01*
X112992Y31534D01*
X101969Y21063D02*
X102953Y22047D01*
X101969Y11811D02*
Y12402D01*
X85039Y11811D02*
X94095D01*
X84646Y12205D02*
X85039Y11811D01*
X83858Y11417D02*
X84646Y12205D01*
X76181Y11417D02*
X83858D01*
X75978Y11620D02*
Y12697D01*
Y11620D02*
X76181Y11417D01*
X66943Y11811D02*
X67337Y11417D01*
X30897Y51594D02*
X32776D01*
X32700Y61519D02*
X32776Y61594D01*
X75984Y20079D02*
X93701D01*
X94095Y20472D01*
X75197Y20866D02*
X75984Y20079D01*
X46063Y78150D02*
X49215Y81302D01*
X308694Y157641D02*
X317323Y149012D01*
X306130Y157641D02*
X308694D01*
X304724Y159046D02*
X306130Y157641D01*
X304724Y159046D02*
Y159055D01*
X317323Y148110D02*
Y149012D01*
X304535Y144410D02*
X311024D01*
X317323Y138110D01*
X302882Y146063D02*
X304535Y144410D01*
X304457Y131102D02*
X314154D01*
X302882Y132677D02*
X304457Y131102D01*
X314154D02*
X317146Y128110D01*
X317323D01*
Y148110D02*
X322126D01*
X302882Y119291D02*
X303433Y118740D01*
X317323D01*
X322126Y148110D02*
X328346Y154331D01*
X275197Y230315D02*
X275591Y229921D01*
X268881Y217700D02*
X269685Y218504D01*
X189370Y232066D02*
Y257297D01*
X62536Y259071D02*
X63307Y259842D01*
X51040Y240425D02*
X51181Y240283D01*
X51040Y246315D02*
X62536Y257811D01*
Y259071D01*
X51040Y240425D02*
Y246315D01*
X63858Y236811D02*
Y259291D01*
X64842Y235827D02*
X64961D01*
X63858Y236811D02*
X64842Y235827D01*
X63307Y259842D02*
X63858Y259291D01*
X40433Y246969D02*
X53307Y259842D01*
X37402Y243937D02*
X40433Y246969D01*
X27925Y243543D02*
X37008D01*
X37402Y243937D01*
X124409Y214173D02*
X132476D01*
X198031Y241339D02*
X204724D01*
X78740Y240283D02*
Y254410D01*
X132658Y236713D02*
Y238279D01*
X132255Y238583D02*
X132354D01*
X131102Y239736D02*
X132255Y238583D01*
X132354D02*
X132658Y238279D01*
X131102Y239736D02*
Y246063D01*
X198031Y231646D02*
X210827D01*
X24606Y240283D02*
Y241366D01*
X26772Y243531D01*
X27913D02*
X27925Y243543D01*
X26772Y243531D02*
X27913D01*
X37402Y236221D02*
Y243937D01*
X54137Y81302D02*
X54429Y81594D01*
X49215Y81302D02*
X54137D01*
X32776Y81594D02*
X39075D01*
X74980Y12106D02*
Y12106D01*
D64*
X389764Y85394D02*
Y96063D01*
X275197Y230118D02*
Y237795D01*
X274803Y238189D02*
X275197Y237795D01*
X349213Y243701D02*
Y248661D01*
Y233465D02*
Y243701D01*
X360630Y178347D02*
Y187402D01*
X328346Y178347D02*
X360630D01*
Y171949D02*
Y178347D01*
X264567Y222835D02*
X267717D01*
X264173Y223228D02*
X264567Y222835D01*
X264190Y217700D02*
X268881D01*
X267717Y222835D02*
X269291D01*
X12795Y72638D02*
X18898Y66535D01*
X231890Y146850D02*
X272835Y187795D01*
X12795Y89961D02*
X24409Y101575D01*
X208661Y123622D02*
X231890Y146850D01*
X12795Y72638D02*
Y89961D01*
X132658Y192913D02*
X169536D01*
X186004Y209382D01*
X219094Y220622D02*
Y231842D01*
X6243Y216480D02*
X24606D01*
X26287Y207572D02*
X29921Y203937D01*
X26287Y207572D02*
Y216480D01*
X78740D02*
X92182D01*
X94488Y214173D01*
X24606Y216480D02*
X51125D01*
X273228Y178347D02*
X328346D01*
X251575Y156693D02*
X273228Y178347D01*
X220079Y124803D02*
X251575Y156299D01*
X114173Y123622D02*
X208661D01*
X311811Y217323D02*
X319685D01*
X130351Y162992D02*
X132658Y165298D01*
X101181Y162992D02*
X130351D01*
X101181D02*
Y173228D01*
X132658Y165298D02*
Y192913D01*
X141156Y74606D02*
X161431Y94882D01*
X190157D01*
X384016Y84646D02*
Y133661D01*
X245118Y104961D02*
X255473Y94606D01*
X245118Y104961D02*
Y134417D01*
X209449Y156299D02*
X218504D01*
X202559D02*
X209449D01*
X233198Y156299D02*
X233331Y156433D01*
X218504Y156299D02*
X233198D01*
X220079Y27559D02*
Y39370D01*
Y55512D02*
Y124803D01*
X189567Y143307D02*
X202559Y156299D01*
X389764Y5906D02*
Y13819D01*
X379134Y138386D02*
Y160236D01*
Y138386D02*
X383858Y133661D01*
X64961Y192717D02*
Y197638D01*
X37402Y218110D02*
Y228346D01*
X24606Y216480D02*
Y224284D01*
X78740Y216480D02*
Y224803D01*
X64961Y216480D02*
X78740D01*
X64961D02*
Y227362D01*
X51125Y216480D02*
X64961D01*
X51125Y224228D02*
X51181Y224284D01*
X51125Y216480D02*
Y224228D01*
X189370Y70866D02*
Y94095D01*
X266803Y202756D02*
X267591Y201969D01*
X246063Y199213D02*
X249606Y202756D01*
X266803D01*
X246063Y199173D02*
Y199213D01*
X24409Y101575D02*
X46457Y123622D01*
X114173D01*
X24409Y89370D02*
Y101575D01*
X18898Y66535D02*
X24409D01*
X119685Y177165D02*
Y188985D01*
X115748Y192922D02*
Y229528D01*
Y192922D02*
X119685Y188985D01*
X349213Y-11811D02*
X355740Y-5283D01*
Y-4181D02*
X356772Y-3150D01*
X285433Y-11811D02*
X349213D01*
X355740Y-5283D02*
Y-4181D01*
X208268Y4016D02*
X224095Y-11811D01*
X285433D01*
X208268Y4016D02*
Y10236D01*
Y11811D01*
Y15748D01*
X188779Y70866D02*
X189370D01*
X188681Y70965D02*
X188779Y70866D01*
X180939Y70965D02*
X188681D01*
X141156Y74016D02*
Y74606D01*
Y73425D02*
Y74016D01*
X141156Y73425D02*
X141156Y73425D01*
X141156Y66929D02*
Y73425D01*
X189370Y94095D02*
X220079Y124803D01*
X73130Y65256D02*
X76378Y68504D01*
X63484Y65256D02*
X73130D01*
X76378Y85827D02*
X114173Y123622D01*
X76378Y68504D02*
Y85827D01*
X69980Y79429D02*
X76378Y85827D01*
X63484Y79429D02*
X69980D01*
X175591Y143307D02*
X181102D01*
X189567D01*
X208268Y15748D02*
X220079Y27559D01*
X257202Y92701D02*
X257378D01*
X261425Y88653D01*
X255473Y94430D02*
Y94606D01*
Y94430D02*
X257202Y92701D01*
X360630Y169488D02*
X360925D01*
X360630D02*
Y171555D01*
X360925Y169488D02*
X361122Y169291D01*
X338090Y160236D02*
X361122D01*
X379134D01*
X361122Y169291D02*
X370866D01*
X285433Y-11811D02*
Y-3150D01*
X67697Y182913D02*
X83071D01*
X96260Y192913D02*
X101181Y187992D01*
X83071Y192913D02*
X96260D01*
X101181Y181102D02*
Y187992D01*
X115748Y229528D02*
X123622Y237402D01*
X131968D01*
X204575Y217323D02*
X209842D01*
X200197Y212992D02*
X200244D01*
X204575Y217323D01*
X186004Y204283D02*
Y209382D01*
X189614Y212992D01*
X199606D01*
X132658Y192913D02*
Y215256D01*
X249803Y232913D02*
X253752Y236862D01*
X267697D01*
X246063Y229370D02*
X249606Y232913D01*
X249803D01*
X267559Y236862D02*
Y248425D01*
X246063Y229173D02*
Y229370D01*
X214567Y259717D02*
X214693Y259842D01*
X214567Y241339D02*
Y259717D01*
D65*
X277559Y248425D02*
Y257087D01*
D66*
X119685Y250984D02*
D03*
Y177165D02*
D03*
D67*
X255118Y133465D02*
D03*
X245118D02*
D03*
X225433Y-3150D02*
D03*
X205433D02*
D03*
X215433D02*
D03*
X275433D02*
D03*
X245433D02*
D03*
X235433D02*
D03*
X265433D02*
D03*
X255433D02*
D03*
X261811Y89606D02*
D03*
Y79606D02*
D03*
Y69606D02*
D03*
X15354Y46299D02*
D03*
X317323Y158110D02*
D03*
Y148110D02*
D03*
Y128110D02*
D03*
Y138110D02*
D03*
X228819Y11417D02*
D03*
X238819D02*
D03*
X248819D02*
D03*
X301181Y-3150D02*
D03*
X336772D02*
D03*
X326772D02*
D03*
X346772D02*
D03*
X351969Y127165D02*
D03*
X282835Y187795D02*
D03*
X277559Y248425D02*
D03*
X63307Y259842D02*
D03*
X43307D02*
D03*
X53307D02*
D03*
X350630Y187402D02*
D03*
X231890Y259842D02*
D03*
X348031D02*
D03*
X83071Y182913D02*
D03*
Y59449D02*
D03*
D68*
X265118Y133465D02*
D03*
X285433Y-3150D02*
D03*
X218819Y11417D02*
D03*
X311181Y-3150D02*
D03*
X356772D02*
D03*
X272835Y187795D02*
D03*
X267559Y248425D02*
D03*
X73307Y259842D02*
D03*
X360630Y187402D02*
D03*
X241890Y259842D02*
D03*
D69*
X261811Y99606D02*
D03*
X15354Y56299D02*
D03*
X317323Y118110D02*
D03*
X351969Y137165D02*
D03*
X348031Y249843D02*
D03*
X83071Y192913D02*
D03*
Y49449D02*
D03*
D70*
X89370Y244488D02*
D03*
X89764Y225984D02*
D03*
X389764Y96063D02*
D03*
X274803Y238189D02*
D03*
X179528Y223228D02*
D03*
X318898Y93307D02*
D03*
X264173Y223228D02*
D03*
X264190Y217700D02*
D03*
X17717Y81299D02*
D03*
X170571Y174311D02*
D03*
X167520Y187795D02*
D03*
X155217Y198031D02*
D03*
X155315Y187402D02*
D03*
X167323Y198425D02*
D03*
X140551Y187992D02*
D03*
Y198031D02*
D03*
X211811Y67716D02*
D03*
X195669Y92520D02*
D03*
X210630Y106299D02*
D03*
X191339Y189764D02*
D03*
X149213Y158661D02*
D03*
X166142D02*
D03*
X265748Y162992D02*
D03*
X238976D02*
D03*
X29921Y203937D02*
D03*
X5118Y205118D02*
D03*
X94488Y214173D02*
D03*
X12598Y103937D02*
D03*
X83071Y144882D02*
D03*
X16142Y149213D02*
D03*
X43307Y129921D02*
D03*
X30315Y12205D02*
D03*
X58661Y-1969D02*
D03*
X127559Y-14567D02*
D03*
X126772Y10630D02*
D03*
X195669Y-14567D02*
D03*
Y10630D02*
D03*
X29528Y37008D02*
D03*
X4724Y242126D02*
D03*
X349213Y153543D02*
D03*
X372047Y153150D02*
D03*
X353150Y111417D02*
D03*
X367717Y119291D02*
D03*
X329134Y146457D02*
D03*
X386614Y140551D02*
D03*
X389764Y191339D02*
D03*
X368898Y190945D02*
D03*
X387795Y168898D02*
D03*
X264961Y155118D02*
D03*
X266142Y121260D02*
D03*
X275984Y173228D02*
D03*
X322441Y172835D02*
D03*
X30315Y94095D02*
D03*
X48425Y118110D02*
D03*
X100787D02*
D03*
X76772Y94095D02*
D03*
X138583Y81496D02*
D03*
X101969Y60630D02*
D03*
X108268Y33465D02*
D03*
X187008Y101181D02*
D03*
X204331Y118504D02*
D03*
X136221D02*
D03*
X101969Y84252D02*
D03*
X50787Y33071D02*
D03*
X37402Y38583D02*
D03*
X50394D02*
D03*
X144488Y20866D02*
D03*
X160630Y49606D02*
D03*
X183858Y89370D02*
D03*
X172835Y70866D02*
D03*
X163779Y89764D02*
D03*
X179528Y39764D02*
D03*
X213779Y40157D02*
D03*
X204724Y20472D02*
D03*
X251575Y156693D02*
D03*
X231890Y146850D02*
D03*
X122047Y145669D02*
D03*
X190551Y156693D02*
D03*
X315748Y210236D02*
D03*
X338976Y251969D02*
D03*
X286614D02*
D03*
X327165Y183858D02*
D03*
X292520D02*
D03*
X244488Y167717D02*
D03*
X221654Y194488D02*
D03*
X263386Y187008D02*
D03*
X176772Y190945D02*
D03*
X41339Y161417D02*
D03*
X27953Y174803D02*
D03*
X138976Y169291D02*
D03*
X126772D02*
D03*
X101969Y200787D02*
D03*
X120079Y129134D02*
D03*
Y117323D02*
D03*
X207874Y130709D02*
D03*
X198819Y219488D02*
D03*
X233331Y156433D02*
D03*
X239370Y39370D02*
D03*
Y55512D02*
D03*
X233071Y38976D02*
D03*
X226772D02*
D03*
X220079Y39370D02*
D03*
X354724Y72835D02*
D03*
X214567Y112205D02*
D03*
X175197Y207677D02*
D03*
X155512Y226378D02*
D03*
X156299Y215748D02*
D03*
X155512Y240158D02*
D03*
X123228Y229134D02*
D03*
X370472Y39370D02*
D03*
X389764Y5906D02*
D03*
X386614Y74557D02*
D03*
X321654Y39764D02*
D03*
X340158Y240158D02*
D03*
X91732Y27559D02*
D03*
X92913Y4331D02*
D03*
X67323Y167717D02*
D03*
X64961Y197638D02*
D03*
X323622Y234252D02*
D03*
X335433Y193307D02*
D03*
X334646Y207087D02*
D03*
X101969Y212598D02*
D03*
X161417Y198425D02*
D03*
X147047Y198228D02*
D03*
X161417Y187402D02*
D03*
X146850Y187992D02*
D03*
X62598Y53937D02*
D03*
X70472Y73228D02*
D03*
X127559Y129134D02*
D03*
X127165Y117323D02*
D03*
X25197Y56299D02*
D03*
X209449Y139370D02*
D03*
X218504Y142126D02*
D03*
X232677Y127165D02*
D03*
X226772Y122441D02*
D03*
X233071Y55512D02*
D03*
X226772D02*
D03*
X220079D02*
D03*
X258661Y18504D02*
D03*
X204724Y241339D02*
D03*
D71*
X342500Y222689D02*
D03*
Y216390D02*
D03*
Y219539D02*
D03*
D72*
X377953Y-3937D02*
D03*
Y259842D02*
D03*
X15748D02*
D03*
Y-3937D02*
D03*
M02*
