M48
;Layer_Color=9474304
;FILE_FORMAT=2:4
INCH,TZ
;TYPE=PLATED
T01F00S00C0.0157
T02F00S00C0.0236
T03F00S00C0.0300
T04F00S00C0.0394
T05F00S00C0.1181
%
T01
X34250Y21639
Y21954
Y22269
T02
X3031Y1220
X2953Y3701
X3740Y3858
X5039
X5079Y3307
X6260Y5394
X9173Y2756
X10827Y3346
X12677Y1063
X12756Y-1457
X14449Y2087
X16063Y4961
X17953Y3976
X20472Y2047
X19567Y1063
Y-1457
X9291Y433
X5866Y-197
X21378Y4016
X22008Y3937
X22677Y3898
X23307
X23937Y3937
Y5551
X23307
X22677
X22008
X25866Y1850
X32165Y3976
X37047Y3937
X38976Y591
X38661Y7456
X38976Y9606
X38661Y14055
X37205Y15315
X38780Y16890
X38976Y19134
X36890Y19094
X33543Y19331
X33465Y20709
X31575Y21024
X32717Y18386
X32244Y17283
X32913Y14646
X34921Y15354
X35315Y11142
X36772Y11929
X35472Y7283
X31890Y9331
X26614Y12126
X26496Y15512
X26575Y16299
X27598Y17323
X26339Y18701
X29252Y18386
X24449Y16772
X23898Y16299
X23333Y15643
X23189Y14685
X21850Y14213
X22677Y12244
X23268Y12717
X21457Y11220
X25157Y15669
X22165Y19449
X19134Y18976
X17677Y19094
X16752Y18780
X16142Y18740
X15532
X14685Y18799
X14055
Y19803
X14705Y19823
X15522Y19803
X16142Y19843
X16732
X17520Y20768
X17057Y17431
X16614Y15866
X14921
X13898Y16929
X12677
X12205Y14567
X12008Y12913
X12756
X12717Y11732
X12008
X13622Y11850
X10079Y11811
X10197Y8425
Y6063
X7047Y7323
X7677Y9409
X8307Y14488
X6732Y16772
X6496Y19764
X10197Y20079
X19055Y15669
X20945Y13937
X20787Y13071
X20433Y11850
X21063Y10630
X19567Y9252
X18386Y8937
X18701Y10118
X16378Y8976
X17283Y7087
X21181Y6772
X13858Y8150
X3031Y9409
X1772Y8130
X1260Y10394
X1614Y14921
X4134Y16142
X2795Y17480
X2992Y20394
X512Y20512
X4331Y12992
X4843Y11811
X2520Y5630
X472Y24213
X8937Y24449
X8976Y22598
X9449Y21417
X10197Y21260
X12323Y22913
X15551Y22638
X15630Y21575
X15551Y24016
X17953Y22323
X19882Y21949
X20472Y24134
X27480Y23819
X28661Y25197
X26417Y22323
X26419Y21770
X32362Y23425
X34016Y24016
X33898Y25197
T03
X1535Y4630
X8307Y4945
X20543Y-315
X21543
X22543
X23543
X24543
X25543
X26543
X27543
X28543
X30118
X31118
X32677
X33677
X34677
X35677
X24882Y1142
X23882
X22882
X21882
X26181Y6961
Y7961
Y8961
Y9961
X26512Y13346
X25512
X24512
X31732Y13811
Y14811
Y15811
Y12811
Y11811
X35197Y12717
Y13717
X35063Y18740
X36063
X28283Y18780
X27283
X8307Y18291
Y19291
Y5945
X1535Y5630
X4331Y25984
X5331
X6331
X7331
X23189
X24189
X26756Y24843
X27756
X34803Y24984
Y25984
T04
X11968Y17717
Y25098
T05
X1575Y-394
X37795
X1575Y25984
X37795
M30
